<svg width="200" height="200" viewBox="0 0 200 200" fill="none" xmlns="http://www.w3.org/2000/svg">
<rect width="200" height="200" rx="10" fill="white"/>
<g filter="url(#filter0_d_9_69)">
<path d="M30.88 119.04C31.68 115.44 32.44 111.92 33.16 108.48C33.4533 107.04 33.76 105.52 34.08 103.92C34.4 102.32 34.7067 100.747 35 99.2C35.2933 97.6533 35.5733 96.16 35.84 94.72C36.1067 93.28 36.3333 91.96 36.52 90.76C37.2933 90.52 38.0533 90.32 38.8 90.16C39.5467 89.9733 40.3067 89.8133 41.08 89.68C41.88 89.5467 42.6267 89.48 43.32 89.48C44.52 89.48 45.52 89.68 46.32 90.08C47.1467 90.48 47.8133 91.0267 48.32 91.72C48.8267 92.3867 49.1867 93.1733 49.4 94.08C49.6133 94.9867 49.72 95.96 49.72 97C49.72 98.4933 49.44 99.9333 48.88 101.32C48.3467 102.707 47.6133 103.947 46.68 105.04C45.7733 106.107 44.72 106.96 43.52 107.6C42.3467 108.24 41.12 108.56 39.84 108.56H39.4C39.1867 109.467 38.9867 110.453 38.8 111.52C38.6133 112.587 38.4533 113.573 38.32 114.48C38.1333 115.547 37.96 116.613 37.8 117.68L30.88 119.04ZM42.04 94.32C41.7467 96.08 41.4533 97.7467 41.16 99.32C40.8667 100.893 40.5467 102.573 40.2 104.36C40.6267 104.253 41.0667 104.013 41.52 103.64C42 103.24 42.44 102.733 42.84 102.12C43.24 101.48 43.56 100.747 43.8 99.92C44.04 99.0933 44.16 98.2267 44.16 97.32C44.16 96.3333 43.9333 95.5867 43.48 95.08C43.0533 94.5733 42.5733 94.32 42.04 94.32ZM72.9562 97.36C72.9562 99.5467 72.7163 101.613 72.2363 103.56C71.7829 105.48 71.1696 107.253 70.3963 108.88C69.6229 110.48 68.7163 111.92 67.6763 113.2C66.6629 114.453 65.5963 115.533 64.4763 116.44C63.3563 117.32 62.2229 118 61.0763 118.48C59.9296 118.933 58.8363 119.16 57.7962 119.16C56.9162 119.16 56.1162 119 55.3962 118.68C54.6762 118.333 54.0496 117.84 53.5162 117.2C52.9829 116.533 52.5562 115.693 52.2362 114.68C51.9429 113.64 51.7962 112.4 51.7962 110.96C51.7962 109.467 51.9829 107.893 52.3562 106.24C52.7296 104.587 53.2362 102.947 53.8762 101.32C54.5162 99.6933 55.3029 98.1467 56.2362 96.68C57.1696 95.2133 58.1962 93.92 59.3163 92.8C60.4362 91.6533 61.6363 90.7467 62.9163 90.08C64.1963 89.4133 65.5296 89.08 66.9162 89.08C68.1163 89.08 69.1029 89.3333 69.8763 89.84C70.6763 90.32 71.2896 90.96 71.7163 91.76C72.1696 92.5333 72.4896 93.4133 72.6763 94.4C72.8629 95.3867 72.9562 96.3733 72.9562 97.36ZM57.7562 109.92C57.7562 110.213 57.8096 110.52 57.9163 110.84C58.0229 111.16 58.1696 111.44 58.3562 111.68C58.5429 111.92 58.7696 112.133 59.0363 112.32C59.3296 112.48 59.6362 112.56 59.9563 112.56C61.1562 112.56 62.2229 112.147 63.1563 111.32C64.0896 110.493 64.8629 109.48 65.4763 108.28C66.0896 107.08 66.5563 105.8 66.8763 104.44C67.2229 103.08 67.3963 101.84 67.3963 100.72C67.3963 100.4 67.3696 100.053 67.3163 99.68C67.2896 99.3067 67.2096 98.96 67.0763 98.64C66.9696 98.32 66.7829 98.0533 66.5163 97.84C66.2763 97.6 65.9429 97.48 65.5163 97.48C64.6629 97.48 63.8763 97.6933 63.1563 98.12C62.4363 98.5467 61.7829 99.12 61.1962 99.84C60.6362 100.533 60.1429 101.333 59.7163 102.24C59.2896 103.12 58.9163 104.027 58.5962 104.96C58.3029 105.867 58.0896 106.76 57.9562 107.64C57.8229 108.52 57.7562 109.28 57.7562 109.92ZM92.4028 109.12C92.4028 110.613 92.1095 111.973 91.5228 113.2C90.9628 114.4 90.1895 115.44 89.2028 116.32C88.2428 117.2 87.0961 117.88 85.7628 118.36C84.4561 118.84 83.0428 119.08 81.5228 119.08C80.4561 119.08 79.3895 118.8 78.3228 118.24C77.2561 117.653 76.2295 116.733 75.2428 115.48L78.2028 109.68C78.3895 110.027 78.6695 110.387 79.0428 110.76C79.4161 111.107 79.8295 111.413 80.2828 111.68C80.7628 111.947 81.2295 112.173 81.6828 112.36C82.1628 112.52 82.5895 112.6 82.9628 112.6C83.2828 112.6 83.6161 112.547 83.9628 112.44C84.3095 112.333 84.6295 112.173 84.9228 111.96C85.2161 111.747 85.4428 111.507 85.6028 111.24C85.7895 110.947 85.8828 110.613 85.8828 110.24C85.8828 109.6 85.6695 109.013 85.2428 108.48C84.8428 107.92 84.3361 107.4 83.7228 106.92C83.1095 106.413 82.4428 105.907 81.7228 105.4C81.0028 104.893 80.3361 104.36 79.7228 103.8C79.1361 103.24 78.6295 102.613 78.2028 101.92C77.7761 101.227 77.5628 100.453 77.5628 99.6C77.5628 98.2133 77.9761 96.92 78.8028 95.72C79.6295 94.52 80.6561 93.4933 81.8828 92.64C83.1361 91.76 84.4961 91.0667 85.9628 90.56C87.4295 90.0533 88.8161 89.8 90.1228 89.8C90.8428 89.8 91.5228 89.8933 92.1628 90.08C92.8028 90.24 93.3495 90.52 93.8028 90.92C94.2828 91.2933 94.6561 91.7733 94.9228 92.36C95.2161 92.9467 95.3628 93.68 95.3628 94.56C95.3628 94.9333 95.3228 95.3067 95.2428 95.68C95.1895 96.0533 95.1361 96.4533 95.0828 96.88L89.2828 98.56C89.3361 98.3467 89.3761 98.1333 89.4028 97.92C89.4561 97.7067 89.4828 97.4933 89.4828 97.28C89.4828 96.48 89.3361 95.9067 89.0428 95.56C88.7761 95.1867 88.4161 95 87.9628 95C87.7495 95 87.4828 95.08 87.1628 95.24C86.8695 95.4 86.5628 95.6133 86.2428 95.88C85.9495 96.12 85.6961 96.4133 85.4828 96.76C85.2695 97.1067 85.1628 97.48 85.1628 97.88C85.1628 98.52 85.3361 99.0533 85.6828 99.48C86.0561 99.9067 86.5095 100.307 87.0428 100.68C87.5761 101.053 88.1495 101.44 88.7628 101.84C89.4028 102.213 89.9895 102.707 90.5228 103.32C91.0561 103.933 91.4961 104.707 91.8428 105.64C92.2161 106.547 92.4028 107.707 92.4028 109.12ZM99.8703 119.04C100.484 116.107 101.07 113.213 101.63 110.36C101.87 109.16 102.11 107.907 102.35 106.6C102.59 105.293 102.817 104.013 103.03 102.76C103.27 101.48 103.47 100.253 103.63 99.08C103.817 97.88 103.977 96.7867 104.11 95.8C103.497 95.72 102.87 95.6933 102.23 95.72C101.617 95.7467 101.004 95.6667 100.39 95.48C100.417 95.0533 100.43 94.56 100.43 94C100.43 93.44 100.444 92.88 100.47 92.32C100.497 91.7067 100.524 91.0533 100.55 90.36C101.244 90.4133 101.937 90.4533 102.63 90.48C103.324 90.5067 104.017 90.52 104.71 90.52C106.07 90.52 107.377 90.4933 108.63 90.44C109.91 90.36 111.084 90.28 112.15 90.2C113.244 90.0933 114.31 89.9733 115.35 89.84L114.91 92C114.777 92.6133 114.644 93.24 114.51 93.88C114.404 94.52 114.297 95.0667 114.19 95.52C113.604 95.68 113.004 95.8 112.39 95.88C111.804 95.9333 111.217 96.0133 110.63 96.12C110.444 97.0267 110.244 98.04 110.03 99.16C109.817 100.253 109.604 101.4 109.39 102.6C109.204 103.773 109.017 104.973 108.83 106.2C108.644 107.427 108.457 108.6 108.27 109.72C107.844 112.36 107.444 115.093 107.07 117.92L99.8703 119.04ZM133.695 118.2C133.455 118.2 132.988 118.24 132.295 118.32C131.602 118.373 130.882 118.453 130.135 118.56C129.388 118.64 128.708 118.72 128.095 118.8C127.508 118.88 127.188 118.933 127.135 118.96C127.455 117.813 127.775 116.547 128.095 115.16C128.415 113.747 128.735 112.28 129.055 110.76C129.402 109.213 129.722 107.653 130.015 106.08C130.335 104.507 130.642 102.987 130.935 101.52C131.602 98.1067 132.255 94.6 132.895 91L139.135 90C138.442 93.5733 137.748 97.08 137.055 100.52C136.762 101.987 136.455 103.507 136.135 105.08C135.842 106.653 135.548 108.213 135.255 109.76C134.988 111.307 134.708 112.813 134.415 114.28C134.148 115.72 133.908 117.027 133.695 118.2ZM143.188 119.04C143.801 116.107 144.388 113.213 144.948 110.36C145.188 109.16 145.428 107.907 145.668 106.6C145.908 105.293 146.134 104.013 146.348 102.76C146.588 101.48 146.788 100.253 146.948 99.08C147.134 97.88 147.294 96.7867 147.428 95.8C146.814 95.72 146.188 95.6933 145.548 95.72C144.934 95.7467 144.321 95.6667 143.708 95.48C143.734 95.0533 143.748 94.56 143.748 94C143.748 93.44 143.761 92.88 143.788 92.32C143.814 91.7067 143.841 91.0533 143.868 90.36C144.561 90.4133 145.254 90.4533 145.948 90.48C146.641 90.5067 147.334 90.52 148.028 90.52C149.388 90.52 150.694 90.4933 151.948 90.44C153.228 90.36 154.401 90.28 155.468 90.2C156.561 90.0933 157.628 89.9733 158.668 89.84L158.228 92C158.094 92.6133 157.961 93.24 157.828 93.88C157.721 94.52 157.614 95.0667 157.508 95.52C156.921 95.68 156.321 95.8 155.708 95.88C155.121 95.9333 154.534 96.0133 153.948 96.12C153.761 97.0267 153.561 98.04 153.348 99.16C153.134 100.253 152.921 101.4 152.708 102.6C152.521 103.773 152.334 104.973 152.148 106.2C151.961 107.427 151.774 108.6 151.588 109.72C151.161 112.36 150.761 115.093 150.388 117.92L143.188 119.04ZM165.622 109.52C164.849 109.52 164.076 109.547 163.302 109.6C162.529 109.653 161.756 109.707 160.982 109.76C161.809 106.48 162.609 103.213 163.382 99.96C164.182 96.7067 165.009 93.44 165.862 90.16C166.369 90.08 166.942 90 167.582 89.92C168.249 89.84 168.916 89.7467 169.582 89.64C170.249 89.5333 170.889 89.44 171.502 89.36C172.142 89.28 172.676 89.2 173.102 89.12C171.662 92.48 170.342 95.8667 169.142 99.28C167.969 102.667 166.796 106.08 165.622 109.52ZM166.022 115.8C166.022 116.307 165.902 116.813 165.662 117.32C165.449 117.827 165.129 118.28 164.702 118.68C164.276 119.053 163.742 119.347 163.102 119.56C162.462 119.8 161.729 119.92 160.902 119.92C160.342 119.92 159.836 119.813 159.382 119.6C158.929 119.387 158.556 119.107 158.262 118.76C157.996 118.387 157.782 117.973 157.622 117.52C157.462 117.067 157.382 116.613 157.382 116.16C157.382 115.653 157.462 115.173 157.622 114.72C157.782 114.24 158.022 113.827 158.342 113.48C158.689 113.107 159.102 112.8 159.582 112.56C160.089 112.32 160.689 112.2 161.382 112.2C162.929 112.2 164.089 112.573 164.862 113.32C165.636 114.04 166.022 114.867 166.022 115.8Z" fill="#12619C"/>
</g>
<defs>
<filter id="filter0_d_9_69" x="20.8799" y="79.0801" width="172.222" height="60.8398" filterUnits="userSpaceOnUse" color-interpolation-filters="sRGB">
<feFlood flood-opacity="0" result="BackgroundImageFix"/>
<feColorMatrix in="SourceAlpha" type="matrix" values="0 0 0 0 0 0 0 0 0 0 0 0 0 0 0 0 0 0 127 0" result="hardAlpha"/>
<feOffset dx="5" dy="5"/>
<feGaussianBlur stdDeviation="7.5"/>
<feComposite in2="hardAlpha" operator="out"/>
<feColorMatrix type="matrix" values="0 0 0 0 1 0 0 0 0 0.882353 0 0 0 0 0.435294 0 0 0 0.5 0"/>
<feBlend mode="normal" in2="BackgroundImageFix" result="effect1_dropShadow_9_69"/>
<feBlend mode="normal" in="SourceGraphic" in2="effect1_dropShadow_9_69" result="shape"/>
</filter>
</defs>
</svg>
