<svg width="1361" height="122" viewBox="0 0 1361 122" fill="none" xmlns="http://www.w3.org/2000/svg">
<g filter="url(#filter0_d_2600_614)">
<path d="M4.07352 59.32L8.69352 32.86L13.4535 4.29999H35.2935L25.2135 58.06L4.07352 59.32ZM32.9135 58.06C33.3802 55.26 33.8935 52.4133 34.4535 49.52C34.9202 47.1867 35.3869 44.6667 35.8535 41.96C36.4135 39.2533 36.9269 36.8733 37.3935 34.82C38.1402 30.4333 38.7935 26.42 39.3535 22.78C40.0069 19.0467 40.5669 15.7333 41.0335 12.84C41.5002 9.94666 41.9202 7.19333 42.2935 4.58H63.9935L55.1735 57.78H43.6935L32.9135 58.06ZM65.2984 110.14C68.0984 97.54 70.7584 85.22 73.2784 73.18C74.305 68.14 75.3784 62.82 76.4984 57.22C77.6184 51.62 78.6917 46.1133 79.7184 40.7C80.745 35.2867 81.725 30.06 82.6584 25.02C83.5917 19.98 84.385 15.36 85.0384 11.16C87.745 10.32 90.405 9.62 93.0184 9.06C95.6317 8.40666 98.2917 7.84666 100.998 7.37999C103.798 6.91333 106.412 6.68 108.838 6.68C113.038 6.68 116.538 7.37999 119.338 8.77999C122.232 10.18 124.565 12.0933 126.338 14.52C128.112 16.8533 129.372 19.6067 130.118 22.78C130.865 25.9533 131.238 29.36 131.238 33C131.238 38.2267 130.258 43.2667 128.298 48.12C126.432 52.9733 123.865 57.3133 120.598 61.14C117.425 64.8733 113.738 67.86 109.538 70.1C105.432 72.34 101.138 73.46 96.6584 73.46H95.1184C94.3717 76.6333 93.6717 80.0867 93.0184 83.82C92.365 87.5533 91.805 91.0067 91.3384 94.18C90.685 97.9133 90.0784 101.647 89.5184 105.38L65.2984 110.14ZM104.358 23.62C103.332 29.78 102.305 35.6133 101.278 41.12C100.252 46.6267 99.1317 52.5067 97.9184 58.76C99.4117 58.3867 100.952 57.5467 102.538 56.24C104.218 54.84 105.758 53.0667 107.158 50.92C108.558 48.68 109.678 46.1133 110.518 43.22C111.358 40.3267 111.778 37.2933 111.778 34.12C111.778 30.6667 110.985 28.0533 109.398 26.28C107.905 24.5067 106.225 23.62 104.358 23.62ZM212.565 34.26C212.565 41.9133 211.725 49.1467 210.045 55.96C208.459 62.68 206.312 68.8867 203.605 74.58C200.899 80.18 197.725 85.22 194.085 89.7C190.539 94.0867 186.805 97.8667 182.885 101.04C178.965 104.12 174.999 106.5 170.985 108.18C166.972 109.767 163.145 110.56 159.505 110.56C156.425 110.56 153.625 110 151.105 108.88C148.585 107.667 146.392 105.94 144.525 103.7C142.659 101.367 141.165 98.4267 140.045 94.88C139.019 91.24 138.505 86.9 138.505 81.86C138.505 76.6333 139.159 71.1267 140.465 65.34C141.772 59.5533 143.545 53.8133 145.785 48.12C148.025 42.4267 150.779 37.0133 154.045 31.88C157.312 26.7467 160.905 22.22 164.825 18.3C168.745 14.2867 172.945 11.1133 177.425 8.77999C181.905 6.44666 186.572 5.28 191.425 5.28C195.625 5.28 199.079 6.16666 201.785 7.94C204.585 9.62 206.732 11.86 208.225 14.66C209.812 17.3667 210.932 20.4467 211.585 23.9C212.239 27.3533 212.565 30.8067 212.565 34.26ZM159.365 78.22C159.365 79.2467 159.552 80.32 159.925 81.44C160.299 82.56 160.812 83.54 161.465 84.38C162.119 85.22 162.912 85.9667 163.845 86.62C164.872 87.18 165.945 87.46 167.065 87.46C171.265 87.46 174.999 86.0133 178.265 83.12C181.532 80.2267 184.239 76.68 186.385 72.48C188.532 68.28 190.165 63.8 191.285 59.04C192.499 54.28 193.105 49.94 193.105 46.02C193.105 44.9 193.012 43.6867 192.825 42.38C192.732 41.0733 192.452 39.86 191.985 38.74C191.612 37.62 190.959 36.6867 190.025 35.94C189.185 35.1 188.019 34.68 186.525 34.68C183.539 34.68 180.785 35.4267 178.265 36.92C175.745 38.4133 173.459 40.42 171.405 42.94C169.445 45.3667 167.719 48.1667 166.225 51.34C164.732 54.42 163.425 57.5933 162.305 60.86C161.279 64.0333 160.532 67.16 160.065 70.24C159.599 73.32 159.365 75.98 159.365 78.22ZM280.628 75.42C280.628 80.6467 279.602 85.4067 277.548 89.7C275.588 93.9 272.882 97.54 269.428 100.62C266.068 103.7 262.055 106.08 257.388 107.76C252.815 109.44 247.868 110.28 242.548 110.28C238.815 110.28 235.082 109.3 231.348 107.34C227.615 105.287 224.022 102.067 220.568 97.68L230.928 77.38C231.582 78.5933 232.562 79.8533 233.868 81.16C235.175 82.3733 236.622 83.4467 238.208 84.38C239.888 85.3133 241.522 86.1067 243.108 86.76C244.788 87.32 246.282 87.6 247.588 87.6C248.708 87.6 249.875 87.4133 251.088 87.04C252.302 86.6667 253.422 86.1067 254.448 85.36C255.475 84.6133 256.268 83.7733 256.828 82.84C257.482 81.8133 257.808 80.6467 257.808 79.34C257.808 77.1 257.062 75.0467 255.568 73.18C254.168 71.22 252.395 69.4 250.248 67.72C248.102 65.9467 245.768 64.1733 243.248 62.4C240.728 60.6267 238.395 58.76 236.248 56.8C234.195 54.84 232.422 52.6467 230.928 50.22C229.435 47.7933 228.688 45.0867 228.688 42.1C228.688 37.2467 230.135 32.72 233.028 28.52C235.922 24.32 239.515 20.7267 243.808 17.74C248.195 14.66 252.955 12.2333 258.088 10.46C263.222 8.68666 268.075 7.8 272.648 7.8C275.168 7.8 277.548 8.12666 279.788 8.77999C282.028 9.34 283.942 10.32 285.528 11.72C287.208 13.0267 288.515 14.7067 289.448 16.76C290.475 18.8133 290.988 21.38 290.988 24.46C290.988 25.7667 290.848 27.0733 290.568 28.38C290.382 29.6867 290.195 31.0867 290.008 32.58L269.708 38.46C269.895 37.7133 270.035 36.9667 270.128 36.22C270.315 35.4733 270.408 34.7267 270.408 33.98C270.408 31.18 269.895 29.1733 268.868 27.96C267.935 26.6533 266.675 26 265.088 26C264.342 26 263.408 26.28 262.288 26.84C261.262 27.4 260.188 28.1467 259.068 29.08C258.042 29.92 257.155 30.9467 256.408 32.16C255.662 33.3733 255.288 34.68 255.288 36.08C255.288 38.32 255.895 40.1867 257.108 41.68C258.415 43.1733 260.002 44.5733 261.868 45.88C263.735 47.1867 265.742 48.54 267.888 49.94C270.128 51.2467 272.182 52.9733 274.048 55.12C275.915 57.2667 277.455 59.9733 278.668 63.24C279.975 66.4133 280.628 70.4733 280.628 75.42ZM306.764 110.14C308.911 99.8733 310.964 89.7467 312.924 79.76C313.764 75.56 314.604 71.1733 315.444 66.6C316.284 62.0267 317.078 57.5467 317.824 53.16C318.664 48.68 319.364 44.3867 319.924 40.28C320.578 36.08 321.138 32.2533 321.604 28.8C319.458 28.52 317.264 28.4267 315.024 28.52C312.878 28.6133 310.731 28.3333 308.584 27.68C308.678 26.1867 308.724 24.46 308.724 22.5C308.724 20.54 308.771 18.58 308.864 16.62C308.958 14.4733 309.051 12.1867 309.144 9.76C311.571 9.94666 313.998 10.0867 316.424 10.18C318.851 10.2733 321.278 10.32 323.704 10.32C328.464 10.32 333.038 10.2267 337.424 10.04C341.904 9.76 346.011 9.48 349.744 9.2C353.571 8.82666 357.304 8.40666 360.944 7.94L359.404 15.5C358.938 17.6467 358.471 19.84 358.004 22.08C357.631 24.32 357.258 26.2333 356.884 27.82C354.831 28.38 352.731 28.8 350.584 29.08C348.531 29.2667 346.478 29.5467 344.424 29.92C343.771 33.0933 343.071 36.64 342.324 40.56C341.578 44.3867 340.831 48.4 340.084 52.6C339.431 56.7067 338.778 60.9067 338.124 65.2C337.471 69.4933 336.818 73.6 336.164 77.52C334.671 86.76 333.271 96.3267 331.964 106.22L306.764 110.14ZM425.151 107.2C424.311 107.2 422.678 107.34 420.251 107.62C417.824 107.807 415.304 108.087 412.691 108.46C410.078 108.74 407.698 109.02 405.551 109.3C403.498 109.58 402.378 109.767 402.191 109.86C403.311 105.847 404.431 101.413 405.551 96.56C406.671 91.6133 407.791 86.48 408.911 81.16C410.124 75.7467 411.244 70.2867 412.271 64.78C413.391 59.2733 414.464 53.9533 415.491 48.82C417.824 36.8733 420.111 24.6 422.351 12L444.191 8.5C441.764 21.0067 439.338 33.28 436.911 45.32C435.884 50.4533 434.811 55.7733 433.691 61.28C432.664 66.7867 431.638 72.2467 430.611 77.66C429.678 83.0733 428.698 88.3467 427.671 93.48C426.738 98.52 425.898 103.093 425.151 107.2ZM458.375 110.14C460.521 99.8733 462.575 89.7467 464.535 79.76C465.375 75.56 466.215 71.1733 467.055 66.6C467.895 62.0267 468.688 57.5467 469.435 53.16C470.275 48.68 470.975 44.3867 471.535 40.28C472.188 36.08 472.748 32.2533 473.215 28.8C471.068 28.52 468.875 28.4267 466.635 28.52C464.488 28.6133 462.341 28.3333 460.195 27.68C460.288 26.1867 460.335 24.46 460.335 22.5C460.335 20.54 460.381 18.58 460.475 16.62C460.568 14.4733 460.661 12.1867 460.755 9.76C463.181 9.94666 465.608 10.0867 468.035 10.18C470.461 10.2733 472.888 10.32 475.315 10.32C480.075 10.32 484.648 10.2267 489.035 10.04C493.515 9.76 497.621 9.48 501.355 9.2C505.181 8.82666 508.915 8.40666 512.555 7.94L511.015 15.5C510.548 17.6467 510.081 19.84 509.615 22.08C509.241 24.32 508.868 26.2333 508.495 27.82C506.441 28.38 504.341 28.8 502.195 29.08C500.141 29.2667 498.088 29.5467 496.035 29.92C495.381 33.0933 494.681 36.64 493.935 40.56C493.188 44.3867 492.441 48.4 491.695 52.6C491.041 56.7067 490.388 60.9067 489.735 65.2C489.081 69.4933 488.428 73.6 487.775 77.52C486.281 86.76 484.881 96.3267 483.575 106.22L458.375 110.14ZM536.896 76.82C534.189 76.82 531.483 76.9133 528.776 77.1C526.069 77.2867 523.363 77.4733 520.656 77.66C523.549 66.18 526.349 54.7467 529.056 43.36C531.856 31.9733 534.749 20.54 537.736 9.06C539.509 8.78 541.516 8.49999 543.756 8.21999C546.089 7.94 548.423 7.61333 550.756 7.24C553.089 6.86666 555.329 6.53999 557.476 6.25999C559.716 5.98 561.583 5.7 563.076 5.41999C558.036 17.18 553.416 29.0333 549.216 40.98C545.109 52.8333 541.003 64.78 536.896 76.82ZM538.296 98.8C538.296 100.573 537.876 102.347 537.036 104.12C536.289 105.893 535.169 107.48 533.676 108.88C532.183 110.187 530.316 111.213 528.076 111.96C525.836 112.8 523.269 113.22 520.376 113.22C518.416 113.22 516.643 112.847 515.056 112.1C513.469 111.353 512.163 110.373 511.136 109.16C510.203 107.853 509.456 106.407 508.896 104.82C508.336 103.233 508.056 101.647 508.056 100.06C508.056 98.2867 508.336 96.6067 508.896 95.02C509.456 93.34 510.296 91.8933 511.416 90.68C512.629 89.3733 514.076 88.3 515.756 87.46C517.529 86.62 519.629 86.2 522.056 86.2C527.469 86.2 531.529 87.5067 534.236 90.12C536.943 92.64 538.296 95.5333 538.296 98.8ZM600.133 54.84L605.033 31.18L610.913 1.63999L632.053 0.379993L621.973 54.84H600.133ZM571.993 54.98L575.633 30.9L580.393 1.63999H602.933L592.993 52.88L571.993 54.98ZM734.772 79.9C732.532 85.0333 730.012 89.5133 727.212 93.34C724.505 97.0733 721.612 100.247 718.532 102.86C715.545 105.38 712.512 107.247 709.432 108.46C706.352 109.673 703.365 110.28 700.472 110.28C697.578 110.28 694.918 109.627 692.492 108.32C690.158 107.013 688.105 105.053 686.332 102.44C684.558 99.8267 683.112 96.6067 681.992 92.78C680.965 88.9533 680.452 84.4733 680.452 79.34C680.452 70.5667 681.665 61.9333 684.092 53.44C686.518 44.8533 689.925 37.1533 694.312 30.34C698.698 23.5267 703.878 18.0667 709.852 13.96C715.918 9.76 722.592 7.66 729.872 7.66C732.112 7.66 734.258 8.12667 736.312 9.06C738.365 9.99333 740.138 11.3 741.632 12.98C743.125 14.66 744.292 16.7133 745.132 19.14C746.065 21.5667 746.532 24.2733 746.532 27.26C746.532 27.82 746.532 28.4267 746.532 29.08C746.532 29.64 746.485 30.2467 746.392 30.9L728.052 35.8C726.932 33.4667 725.625 32.3 724.132 32.3C722.638 32.3 721.052 33.1867 719.372 34.96C717.785 36.64 716.198 38.88 714.612 41.68C713.025 44.3867 711.485 47.4667 709.992 50.92C708.498 54.28 707.192 57.6867 706.072 61.14C704.952 64.5933 704.018 67.9067 703.272 71.08C702.618 74.16 702.292 76.68 702.292 78.64C702.292 81.6267 702.665 83.7267 703.412 84.94C704.252 86.1533 705.325 86.76 706.632 86.76C707.658 86.76 708.825 86.3867 710.132 85.64C711.438 84.8 712.652 83.7733 713.772 82.56C714.892 81.2533 715.918 79.8067 716.852 78.22C717.785 76.6333 718.438 75.0467 718.812 73.46L734.772 79.9ZM826.761 34.26C826.761 41.9133 825.921 49.1467 824.241 55.96C822.654 62.68 820.507 68.8867 817.801 74.58C815.094 80.18 811.921 85.22 808.281 89.7C804.734 94.0867 801.001 97.8667 797.081 101.04C793.161 104.12 789.194 106.5 785.181 108.18C781.167 109.767 777.341 110.56 773.701 110.56C770.621 110.56 767.821 110 765.301 108.88C762.781 107.667 760.587 105.94 758.721 103.7C756.854 101.367 755.361 98.4267 754.241 94.88C753.214 91.24 752.701 86.9 752.701 81.86C752.701 76.6333 753.354 71.1267 754.661 65.34C755.967 59.5533 757.741 53.8133 759.981 48.12C762.221 42.4267 764.974 37.0133 768.241 31.88C771.507 26.7467 775.101 22.22 779.021 18.3C782.941 14.2867 787.141 11.1133 791.621 8.77999C796.101 6.44666 800.767 5.28 805.621 5.28C809.821 5.28 813.274 6.16666 815.981 7.94C818.781 9.62 820.927 11.86 822.421 14.66C824.007 17.3667 825.127 20.4467 825.781 23.9C826.434 27.3533 826.761 30.8067 826.761 34.26ZM773.561 78.22C773.561 79.2467 773.747 80.32 774.121 81.44C774.494 82.56 775.007 83.54 775.661 84.38C776.314 85.22 777.107 85.9667 778.041 86.62C779.067 87.18 780.141 87.46 781.261 87.46C785.461 87.46 789.194 86.0133 792.461 83.12C795.727 80.2267 798.434 76.68 800.581 72.48C802.727 68.28 804.361 63.8 805.481 59.04C806.694 54.28 807.301 49.94 807.301 46.02C807.301 44.9 807.207 43.6867 807.021 42.38C806.927 41.0733 806.647 39.86 806.181 38.74C805.807 37.62 805.154 36.6867 804.221 35.94C803.381 35.1 802.214 34.68 800.721 34.68C797.734 34.68 794.981 35.4267 792.461 36.92C789.941 38.4133 787.654 40.42 785.601 42.94C783.641 45.3667 781.914 48.1667 780.421 51.34C778.927 54.42 777.621 57.5933 776.501 60.86C775.474 64.0333 774.727 67.16 774.261 70.24C773.794 73.32 773.561 75.98 773.561 78.22ZM871.443 105.52C868.55 105.52 865.47 105.613 862.203 105.8C859.03 105.987 855.81 106.267 852.543 106.64C849.277 107.013 846.057 107.527 842.883 108.18C839.803 108.74 837.003 109.44 834.483 110.28C835.043 106.08 835.697 101.413 836.443 96.28C837.19 91.1467 838.03 85.8267 838.963 80.32C839.99 74.8133 840.97 69.26 841.903 63.66C842.93 58.06 843.957 52.6933 844.983 47.56C847.317 35.3333 849.79 22.8733 852.403 10.18L876.903 6.95999C874.383 17.7867 871.957 28.3333 869.623 38.6C868.597 42.9867 867.57 47.56 866.543 52.32C865.517 56.9867 864.537 61.56 863.603 66.04C862.67 70.52 861.83 74.86 861.083 79.06C860.337 83.26 859.73 86.9933 859.263 90.26C861.597 90.0733 864.07 89.98 866.683 89.98C869.39 89.8867 871.77 89.84 873.823 89.84C873.917 91.6133 874.057 93.3867 874.243 95.16C874.43 96.84 874.617 98.38 874.803 99.78C875.083 101.18 875.27 102.44 875.363 103.56C875.55 104.587 875.69 105.287 875.783 105.66C875.037 105.66 874.29 105.66 873.543 105.66C872.89 105.567 872.19 105.52 871.443 105.52ZM929.09 105.52C926.196 105.52 923.116 105.613 919.85 105.8C916.676 105.987 913.456 106.267 910.19 106.64C906.923 107.013 903.703 107.527 900.53 108.18C897.45 108.74 894.65 109.44 892.13 110.28C892.69 106.08 893.343 101.413 894.09 96.28C894.836 91.1467 895.676 85.8267 896.61 80.32C897.636 74.8133 898.616 69.26 899.55 63.66C900.576 58.06 901.603 52.6933 902.63 47.56C904.963 35.3333 907.436 22.8733 910.05 10.18L934.55 6.95999C932.03 17.7867 929.603 28.3333 927.27 38.6C926.243 42.9867 925.216 47.56 924.19 52.32C923.163 56.9867 922.183 61.56 921.25 66.04C920.316 70.52 919.476 74.86 918.73 79.06C917.983 83.26 917.376 86.9933 916.91 90.26C919.243 90.0733 921.716 89.98 924.33 89.98C927.036 89.8867 929.416 89.84 931.47 89.84C931.563 91.6133 931.703 93.3867 931.89 95.16C932.076 96.84 932.263 98.38 932.45 99.78C932.73 101.18 932.916 102.44 933.01 103.56C933.196 104.587 933.336 105.287 933.43 105.66C932.683 105.66 931.936 105.66 931.19 105.66C930.536 105.567 929.836 105.52 929.09 105.52ZM949.216 110.14L967.556 10.6L1011.8 6.81999C1011.14 8.87333 1010.58 10.9733 1010.12 13.12C1009.65 14.8933 1009.18 16.76 1008.72 18.72C1008.34 20.5867 1008.02 22.2667 1007.74 23.76C1006.8 23.8533 1005.45 23.9467 1003.68 24.04C1002 24.04 1000.18 24.0867 998.216 24.18C996.256 24.18 994.249 24.18 992.196 24.18C990.236 24.18 988.509 24.18 987.016 24.18L982.116 49.24C985.009 49.0533 987.716 48.9133 990.236 48.82C992.289 48.7267 994.389 48.68 996.536 48.68C998.682 48.68 1000.27 48.6333 1001.3 48.54C1000.92 51.1533 1000.55 53.72 1000.18 56.24C999.896 58.76 999.522 61.3267 999.056 63.94C998.122 64.0333 996.582 64.1267 994.436 64.22C992.382 64.22 990.282 64.2667 988.136 64.36C985.709 64.4533 983.049 64.5467 980.156 64.64L975.396 90.4L995.836 87.18L994.436 103.14L949.216 110.14ZM1070.99 79.9C1068.75 85.0333 1066.23 89.5133 1063.43 93.34C1060.72 97.0733 1057.83 100.247 1054.75 102.86C1051.76 105.38 1048.73 107.247 1045.65 108.46C1042.57 109.673 1039.58 110.28 1036.69 110.28C1033.8 110.28 1031.14 109.627 1028.71 108.32C1026.38 107.013 1024.32 105.053 1022.55 102.44C1020.78 99.8267 1019.33 96.6067 1018.21 92.78C1017.18 88.9533 1016.67 84.4733 1016.67 79.34C1016.67 70.5667 1017.88 61.9333 1020.31 53.44C1022.74 44.8533 1026.14 37.1533 1030.53 30.34C1034.92 23.5267 1040.1 18.0667 1046.07 13.96C1052.14 9.76 1058.81 7.66 1066.09 7.66C1068.33 7.66 1070.48 8.12667 1072.53 9.06C1074.58 9.99333 1076.36 11.3 1077.85 12.98C1079.34 14.66 1080.51 16.7133 1081.35 19.14C1082.28 21.5667 1082.75 24.2733 1082.75 27.26C1082.75 27.82 1082.75 28.4267 1082.75 29.08C1082.75 29.64 1082.7 30.2467 1082.61 30.9L1064.27 35.8C1063.15 33.4667 1061.84 32.3 1060.35 32.3C1058.86 32.3 1057.27 33.1867 1055.59 34.96C1054 36.64 1052.42 38.88 1050.83 41.68C1049.24 44.3867 1047.7 47.4667 1046.21 50.92C1044.72 54.28 1043.41 57.6867 1042.29 61.14C1041.17 64.5933 1040.24 67.9067 1039.49 71.08C1038.84 74.16 1038.51 76.68 1038.51 78.64C1038.51 81.6267 1038.88 83.7267 1039.63 84.94C1040.47 86.1533 1041.54 86.76 1042.85 86.76C1043.88 86.76 1045.04 86.3867 1046.35 85.64C1047.66 84.8 1048.87 83.7733 1049.99 82.56C1051.11 81.2533 1052.14 79.8067 1053.07 78.22C1054 76.6333 1054.66 75.0467 1055.03 73.46L1070.99 79.9ZM1097.18 110.14C1099.33 99.8733 1101.38 89.7467 1103.34 79.76C1104.18 75.56 1105.02 71.1733 1105.86 66.6C1106.7 62.0267 1107.49 57.5467 1108.24 53.16C1109.08 48.68 1109.78 44.3867 1110.34 40.28C1110.99 36.08 1111.55 32.2533 1112.02 28.8C1109.87 28.52 1107.68 28.4267 1105.44 28.52C1103.29 28.6133 1101.15 28.3333 1099 27.68C1099.09 26.1867 1099.14 24.46 1099.14 22.5C1099.14 20.54 1099.19 18.58 1099.28 16.62C1099.37 14.4733 1099.47 12.1867 1099.56 9.76C1101.99 9.94666 1104.41 10.0867 1106.84 10.18C1109.27 10.2733 1111.69 10.32 1114.12 10.32C1118.88 10.32 1123.45 10.2267 1127.84 10.04C1132.32 9.76 1136.43 9.48 1140.16 9.2C1143.99 8.82666 1147.72 8.40666 1151.36 7.94L1149.82 15.5C1149.35 17.6467 1148.89 19.84 1148.42 22.08C1148.05 24.32 1147.67 26.2333 1147.3 27.82C1145.25 28.38 1143.15 28.8 1141 29.08C1138.95 29.2667 1136.89 29.5467 1134.84 29.92C1134.19 33.0933 1133.49 36.64 1132.74 40.56C1131.99 44.3867 1131.25 48.4 1130.5 52.6C1129.85 56.7067 1129.19 60.9067 1128.54 65.2C1127.89 69.4933 1127.23 73.6 1126.58 77.52C1125.09 86.76 1123.69 96.3267 1122.38 106.22L1097.18 110.14ZM1174.5 107.2C1173.66 107.2 1171.98 107.34 1169.46 107.62C1167.04 107.807 1164.52 108.087 1161.9 108.46C1159.29 108.74 1156.91 109.02 1154.76 109.3C1152.71 109.58 1151.59 109.767 1151.4 109.86C1152.34 105.847 1153.27 101.413 1154.2 96.56C1155.23 91.6133 1156.26 86.48 1157.28 81.16C1158.31 75.7467 1159.29 70.2867 1160.22 64.78C1161.16 59.2733 1162.04 53.9533 1162.88 48.82C1164.84 36.8733 1166.8 24.6 1168.76 12L1190.6 8.5C1188.46 21.0067 1186.36 33.28 1184.3 45.32C1183.46 50.4533 1182.58 55.7733 1181.64 61.28C1180.8 66.7867 1179.92 72.2467 1178.98 77.66C1178.14 83.0733 1177.35 88.3467 1176.6 93.48C1175.86 98.52 1175.16 103.093 1174.5 107.2ZM1272.8 34.26C1272.8 41.9133 1271.96 49.1467 1270.28 55.96C1268.7 62.68 1266.55 68.8867 1263.84 74.58C1261.14 80.18 1257.96 85.22 1254.32 89.7C1250.78 94.0867 1247.04 97.8667 1243.12 101.04C1239.2 104.12 1235.24 106.5 1231.22 108.18C1227.21 109.767 1223.38 110.56 1219.74 110.56C1216.66 110.56 1213.86 110 1211.34 108.88C1208.82 107.667 1206.63 105.94 1204.76 103.7C1202.9 101.367 1201.4 98.4267 1200.28 94.88C1199.26 91.24 1198.74 86.9 1198.74 81.86C1198.74 76.6333 1199.4 71.1267 1200.7 65.34C1202.01 59.5533 1203.78 53.8133 1206.02 48.12C1208.26 42.4267 1211.02 37.0133 1214.28 31.88C1217.55 26.7467 1221.14 22.22 1225.06 18.3C1228.98 14.2867 1233.18 11.1133 1237.66 8.77999C1242.14 6.44666 1246.81 5.28 1251.66 5.28C1255.86 5.28 1259.32 6.16666 1262.02 7.94C1264.82 9.62 1266.97 11.86 1268.46 14.66C1270.05 17.3667 1271.17 20.4467 1271.82 23.9C1272.48 27.3533 1272.8 30.8067 1272.8 34.26ZM1219.6 78.22C1219.6 79.2467 1219.79 80.32 1220.16 81.44C1220.54 82.56 1221.05 83.54 1221.7 84.38C1222.36 85.22 1223.15 85.9667 1224.08 86.62C1225.11 87.18 1226.18 87.46 1227.3 87.46C1231.5 87.46 1235.24 86.0133 1238.5 83.12C1241.77 80.2267 1244.48 76.68 1246.62 72.48C1248.77 68.28 1250.4 63.8 1251.52 59.04C1252.74 54.28 1253.34 49.94 1253.34 46.02C1253.34 44.9 1253.25 43.6867 1253.06 42.38C1252.97 41.0733 1252.69 39.86 1252.22 38.74C1251.85 37.62 1251.2 36.6867 1250.26 35.94C1249.42 35.1 1248.26 34.68 1246.76 34.68C1243.78 34.68 1241.02 35.4267 1238.5 36.92C1235.98 38.4133 1233.7 40.42 1231.64 42.94C1229.68 45.3667 1227.96 48.1667 1226.46 51.34C1224.97 54.42 1223.66 57.5933 1222.54 60.86C1221.52 64.0333 1220.77 67.16 1220.3 70.24C1219.84 73.32 1219.6 75.98 1219.6 78.22ZM1279.55 110.7C1282.35 97.26 1285.01 84.24 1287.53 71.64C1288.46 66.2267 1289.44 60.6267 1290.47 54.84C1291.59 49.0533 1292.61 43.36 1293.55 37.76C1294.48 32.0667 1295.32 26.6533 1296.07 21.52C1296.81 16.2933 1297.37 11.58 1297.75 7.37999C1298.96 7.47333 1299.99 7.51999 1300.83 7.51999C1301.67 7.51999 1302.65 7.51999 1303.77 7.51999C1305.07 7.51999 1306.66 7.51999 1308.53 7.51999C1310.39 7.42666 1312.26 7.33333 1314.13 7.24C1315.99 7.14666 1318 7.05333 1320.15 6.95999C1321.45 13.4933 1322.62 19.7933 1323.65 25.86C1324.67 31.18 1325.7 36.64 1326.73 42.24C1327.85 47.84 1328.83 52.6 1329.67 56.52C1330.04 54.6533 1330.46 52.5067 1330.93 50.08C1331.39 47.56 1331.91 44.9467 1332.47 42.24C1333.03 39.5333 1333.54 36.8267 1334.01 34.12C1334.57 31.32 1335.13 28.5667 1335.69 25.86C1336.99 19.7933 1338.35 13.54 1339.75 7.1L1356.83 4.99999C1353.65 19.28 1350.85 32.8133 1348.43 45.6C1347.31 51.1067 1346.19 56.7067 1345.07 62.4C1344.04 68 1343.06 73.4133 1342.13 78.64C1341.19 83.7733 1340.4 88.58 1339.75 93.06C1339.09 97.4467 1338.58 101.133 1338.21 104.12C1337.93 104.12 1336.81 104.353 1334.85 104.82C1332.98 105.193 1330.79 105.66 1328.27 106.22C1325.84 106.78 1323.37 107.34 1320.85 107.9C1318.42 108.46 1316.6 108.973 1315.39 109.44C1314.83 101.973 1314.22 94.88 1313.57 88.16C1313.29 85.2667 1312.96 82.3267 1312.59 79.34C1312.31 76.26 1311.98 73.32 1311.61 70.52C1311.23 67.72 1310.86 65.1067 1310.49 62.68C1310.11 60.2533 1309.74 58.1533 1309.37 56.38C1309.09 58.1533 1308.71 60.2067 1308.25 62.54C1307.78 64.8733 1307.31 67.3467 1306.85 69.96C1306.38 72.5733 1305.91 75.3267 1305.45 78.22C1304.98 81.02 1304.47 83.7267 1303.91 86.34C1302.69 92.5933 1301.39 99.1267 1299.99 105.94L1279.55 110.7Z" fill="#12619C"/>
</g>
<defs>
<filter id="filter0_d_2600_614" x="0.0742188" y="0.379883" width="1360.75" height="120.84" filterUnits="userSpaceOnUse" color-interpolation-filters="sRGB">
<feFlood flood-opacity="0" result="BackgroundImageFix"/>
<feColorMatrix in="SourceAlpha" type="matrix" values="0 0 0 0 0 0 0 0 0 0 0 0 0 0 0 0 0 0 127 0" result="hardAlpha"/>
<feOffset dy="4"/>
<feGaussianBlur stdDeviation="2"/>
<feComposite in2="hardAlpha" operator="out"/>
<feColorMatrix type="matrix" values="0 0 0 0 0 0 0 0 0 0 0 0 0 0 0 0 0 0 0.25 0"/>
<feBlend mode="normal" in2="BackgroundImageFix" result="effect1_dropShadow_2600_614"/>
<feBlend mode="normal" in="SourceGraphic" in2="effect1_dropShadow_2600_614" result="shape"/>
</filter>
</defs>
</svg>
