<svg width="1246" height="122" viewBox="0 0 1246 122" fill="none" xmlns="http://www.w3.org/2000/svg">
<g filter="url(#filter0_d_1_103)">
<path d="M4.36374 59.32L8.98374 32.86L13.7437 4.29999H35.5837L25.5037 58.06L4.36374 59.32ZM33.2037 58.06C33.6704 55.26 34.1837 52.4133 34.7437 49.52C35.2104 47.1867 35.6771 44.6667 36.1437 41.96C36.7037 39.2533 37.2171 36.8733 37.6837 34.82C38.4304 30.4333 39.0837 26.42 39.6437 22.78C40.2971 19.0467 40.8571 15.7333 41.3237 12.84C41.7904 9.94666 42.2104 7.19333 42.5837 4.58H64.2837L55.4637 57.78H43.9837L33.2037 58.06ZM65.5886 110.14C68.3886 97.54 71.0486 85.22 73.5686 73.18C74.5953 68.14 75.6686 62.82 76.7886 57.22C77.9086 51.62 78.9819 46.1133 80.0086 40.7C81.0353 35.2867 82.0153 30.06 82.9486 25.02C83.8819 19.98 84.6753 15.36 85.3286 11.16C88.0353 10.32 90.6953 9.62 93.3086 9.06C95.9219 8.40666 98.5819 7.84666 101.289 7.37999C104.089 6.91333 106.702 6.68 109.129 6.68C113.329 6.68 116.829 7.37999 119.629 8.77999C122.522 10.18 124.855 12.0933 126.629 14.52C128.402 16.8533 129.662 19.6067 130.409 22.78C131.155 25.9533 131.529 29.36 131.529 33C131.529 38.2267 130.549 43.2667 128.589 48.12C126.722 52.9733 124.155 57.3133 120.889 61.14C117.715 64.8733 114.029 67.86 109.829 70.1C105.722 72.34 101.429 73.46 96.9486 73.46H95.4086C94.6619 76.6333 93.9619 80.0867 93.3086 83.82C92.6553 87.5533 92.0953 91.0067 91.6286 94.18C90.9753 97.9133 90.3686 101.647 89.8086 105.38L65.5886 110.14ZM104.649 23.62C103.622 29.78 102.595 35.6133 101.569 41.12C100.542 46.6267 99.4219 52.5067 98.2086 58.76C99.7019 58.3867 101.242 57.5467 102.829 56.24C104.509 54.84 106.049 53.0667 107.449 50.92C108.849 48.68 109.969 46.1133 110.809 43.22C111.649 40.3267 112.069 37.2933 112.069 34.12C112.069 30.6667 111.275 28.0533 109.689 26.28C108.195 24.5067 106.515 23.62 104.649 23.62ZM212.855 34.26C212.855 41.9133 212.015 49.1467 210.335 55.96C208.749 62.68 206.602 68.8867 203.895 74.58C201.189 80.18 198.015 85.22 194.375 89.7C190.829 94.0867 187.095 97.8667 183.175 101.04C179.255 104.12 175.289 106.5 171.275 108.18C167.262 109.767 163.435 110.56 159.795 110.56C156.715 110.56 153.915 110 151.395 108.88C148.875 107.667 146.682 105.94 144.815 103.7C142.949 101.367 141.455 98.4267 140.335 94.88C139.309 91.24 138.795 86.9 138.795 81.86C138.795 76.6333 139.449 71.1267 140.755 65.34C142.062 59.5533 143.835 53.8133 146.075 48.12C148.315 42.4267 151.069 37.0133 154.335 31.88C157.602 26.7467 161.195 22.22 165.115 18.3C169.035 14.2867 173.235 11.1133 177.715 8.77999C182.195 6.44666 186.862 5.28 191.715 5.28C195.915 5.28 199.369 6.16666 202.075 7.94C204.875 9.62 207.022 11.86 208.515 14.66C210.102 17.3667 211.222 20.4467 211.875 23.9C212.529 27.3533 212.855 30.8067 212.855 34.26ZM159.655 78.22C159.655 79.2467 159.842 80.32 160.215 81.44C160.589 82.56 161.102 83.54 161.755 84.38C162.409 85.22 163.202 85.9667 164.135 86.62C165.162 87.18 166.235 87.46 167.355 87.46C171.555 87.46 175.289 86.0133 178.555 83.12C181.822 80.2267 184.529 76.68 186.675 72.48C188.822 68.28 190.455 63.8 191.575 59.04C192.789 54.28 193.395 49.94 193.395 46.02C193.395 44.9 193.302 43.6867 193.115 42.38C193.022 41.0733 192.742 39.86 192.275 38.74C191.902 37.62 191.249 36.6867 190.315 35.94C189.475 35.1 188.309 34.68 186.815 34.68C183.829 34.68 181.075 35.4267 178.555 36.92C176.035 38.4133 173.749 40.42 171.695 42.94C169.735 45.3667 168.009 48.1667 166.515 51.34C165.022 54.42 163.715 57.5933 162.595 60.86C161.569 64.0333 160.822 67.16 160.355 70.24C159.889 73.32 159.655 75.98 159.655 78.22ZM280.918 75.42C280.918 80.6467 279.892 85.4067 277.838 89.7C275.878 93.9 273.172 97.54 269.718 100.62C266.358 103.7 262.345 106.08 257.678 107.76C253.105 109.44 248.158 110.28 242.838 110.28C239.105 110.28 235.372 109.3 231.638 107.34C227.905 105.287 224.312 102.067 220.858 97.68L231.218 77.38C231.872 78.5933 232.852 79.8533 234.158 81.16C235.465 82.3733 236.912 83.4467 238.498 84.38C240.178 85.3133 241.812 86.1067 243.398 86.76C245.078 87.32 246.572 87.6 247.878 87.6C248.998 87.6 250.165 87.4133 251.378 87.04C252.592 86.6667 253.712 86.1067 254.738 85.36C255.765 84.6133 256.558 83.7733 257.118 82.84C257.772 81.8133 258.098 80.6467 258.098 79.34C258.098 77.1 257.352 75.0467 255.858 73.18C254.458 71.22 252.685 69.4 250.538 67.72C248.392 65.9467 246.058 64.1733 243.538 62.4C241.018 60.6267 238.685 58.76 236.538 56.8C234.485 54.84 232.712 52.6467 231.218 50.22C229.725 47.7933 228.978 45.0867 228.978 42.1C228.978 37.2467 230.425 32.72 233.318 28.52C236.212 24.32 239.805 20.7267 244.098 17.74C248.485 14.66 253.245 12.2333 258.378 10.46C263.512 8.68666 268.365 7.8 272.938 7.8C275.458 7.8 277.838 8.12666 280.078 8.77999C282.318 9.34 284.232 10.32 285.818 11.72C287.498 13.0267 288.805 14.7067 289.738 16.76C290.765 18.8133 291.278 21.38 291.278 24.46C291.278 25.7667 291.138 27.0733 290.858 28.38C290.672 29.6867 290.485 31.0867 290.298 32.58L269.998 38.46C270.185 37.7133 270.325 36.9667 270.418 36.22C270.605 35.4733 270.698 34.7267 270.698 33.98C270.698 31.18 270.185 29.1733 269.158 27.96C268.225 26.6533 266.965 26 265.378 26C264.632 26 263.698 26.28 262.578 26.84C261.552 27.4 260.478 28.1467 259.358 29.08C258.332 29.92 257.445 30.9467 256.698 32.16C255.952 33.3733 255.578 34.68 255.578 36.08C255.578 38.32 256.185 40.1867 257.398 41.68C258.705 43.1733 260.292 44.5733 262.158 45.88C264.025 47.1867 266.032 48.54 268.178 49.94C270.418 51.2467 272.472 52.9733 274.338 55.12C276.205 57.2667 277.745 59.9733 278.958 63.24C280.265 66.4133 280.918 70.4733 280.918 75.42ZM307.055 110.14C309.201 99.8733 311.255 89.7467 313.215 79.76C314.055 75.56 314.895 71.1733 315.735 66.6C316.575 62.0267 317.368 57.5467 318.115 53.16C318.955 48.68 319.655 44.3867 320.215 40.28C320.868 36.08 321.428 32.2533 321.895 28.8C319.748 28.52 317.555 28.4267 315.315 28.52C313.168 28.6133 311.021 28.3333 308.875 27.68C308.968 26.1867 309.015 24.46 309.015 22.5C309.015 20.54 309.061 18.58 309.155 16.62C309.248 14.4733 309.341 12.1867 309.435 9.76C311.861 9.94666 314.288 10.0867 316.715 10.18C319.141 10.2733 321.568 10.32 323.995 10.32C328.755 10.32 333.328 10.2267 337.715 10.04C342.195 9.76 346.301 9.48 350.035 9.2C353.861 8.82666 357.595 8.40666 361.235 7.94L359.695 15.5C359.228 17.6467 358.761 19.84 358.295 22.08C357.921 24.32 357.548 26.2333 357.175 27.82C355.121 28.38 353.021 28.8 350.875 29.08C348.821 29.2667 346.768 29.5467 344.715 29.92C344.061 33.0933 343.361 36.64 342.615 40.56C341.868 44.3867 341.121 48.4 340.375 52.6C339.721 56.7067 339.068 60.9067 338.415 65.2C337.761 69.4933 337.108 73.6 336.455 77.52C334.961 86.76 333.561 96.3267 332.255 106.22L307.055 110.14ZM425.441 107.2C424.601 107.2 422.968 107.34 420.541 107.62C418.114 107.807 415.594 108.087 412.981 108.46C410.368 108.74 407.988 109.02 405.841 109.3C403.788 109.58 402.668 109.767 402.481 109.86C403.601 105.847 404.721 101.413 405.841 96.56C406.961 91.6133 408.081 86.48 409.201 81.16C410.414 75.7467 411.534 70.2867 412.561 64.78C413.681 59.2733 414.754 53.9533 415.781 48.82C418.114 36.8733 420.401 24.6 422.641 12L444.481 8.5C442.054 21.0067 439.628 33.28 437.201 45.32C436.174 50.4533 435.101 55.7733 433.981 61.28C432.954 66.7867 431.928 72.2467 430.901 77.66C429.968 83.0733 428.988 88.3467 427.961 93.48C427.028 98.52 426.188 103.093 425.441 107.2ZM458.665 110.14C460.811 99.8733 462.865 89.7467 464.825 79.76C465.665 75.56 466.505 71.1733 467.345 66.6C468.185 62.0267 468.978 57.5467 469.725 53.16C470.565 48.68 471.265 44.3867 471.825 40.28C472.478 36.08 473.038 32.2533 473.505 28.8C471.358 28.52 469.165 28.4267 466.925 28.52C464.778 28.6133 462.631 28.3333 460.485 27.68C460.578 26.1867 460.625 24.46 460.625 22.5C460.625 20.54 460.671 18.58 460.765 16.62C460.858 14.4733 460.951 12.1867 461.045 9.76C463.471 9.94666 465.898 10.0867 468.325 10.18C470.751 10.2733 473.178 10.32 475.605 10.32C480.365 10.32 484.938 10.2267 489.325 10.04C493.805 9.76 497.911 9.48 501.645 9.2C505.471 8.82666 509.205 8.40666 512.845 7.94L511.305 15.5C510.838 17.6467 510.371 19.84 509.905 22.08C509.531 24.32 509.158 26.2333 508.785 27.82C506.731 28.38 504.631 28.8 502.485 29.08C500.431 29.2667 498.378 29.5467 496.325 29.92C495.671 33.0933 494.971 36.64 494.225 40.56C493.478 44.3867 492.731 48.4 491.985 52.6C491.331 56.7067 490.678 60.9067 490.025 65.2C489.371 69.4933 488.718 73.6 488.065 77.52C486.571 86.76 485.171 96.3267 483.865 106.22L458.665 110.14ZM537.186 76.82C534.48 76.82 531.773 76.9133 529.066 77.1C526.36 77.2867 523.653 77.4733 520.946 77.66C523.84 66.18 526.64 54.7467 529.346 43.36C532.146 31.9733 535.04 20.54 538.026 9.06C539.8 8.78 541.806 8.49999 544.046 8.21999C546.38 7.94 548.713 7.61333 551.046 7.24C553.38 6.86666 555.62 6.53999 557.766 6.25999C560.006 5.98 561.873 5.7 563.366 5.41999C558.326 17.18 553.706 29.0333 549.506 40.98C545.4 52.8333 541.293 64.78 537.186 76.82ZM538.586 98.8C538.586 100.573 538.166 102.347 537.326 104.12C536.58 105.893 535.46 107.48 533.966 108.88C532.473 110.187 530.606 111.213 528.366 111.96C526.126 112.8 523.56 113.22 520.666 113.22C518.706 113.22 516.933 112.847 515.346 112.1C513.76 111.353 512.453 110.373 511.426 109.16C510.493 107.853 509.746 106.407 509.186 104.82C508.626 103.233 508.346 101.647 508.346 100.06C508.346 98.2867 508.626 96.6067 509.186 95.02C509.746 93.34 510.586 91.8933 511.706 90.68C512.92 89.3733 514.366 88.3 516.046 87.46C517.82 86.62 519.92 86.2 522.346 86.2C527.76 86.2 531.82 87.5067 534.526 90.12C537.233 92.64 538.586 95.5333 538.586 98.8ZM600.424 54.84L605.324 31.18L611.204 1.63999L632.344 0.379993L622.264 54.84H600.424ZM572.284 54.98L575.924 30.9L580.684 1.63999H603.224L593.284 52.88L572.284 54.98ZM751.442 56.66C750.789 66.18 748.922 74.4867 745.842 81.58C742.762 88.58 739.029 94.46 734.642 99.22C730.349 103.98 725.682 107.527 720.642 109.86C715.695 112.193 710.982 113.36 706.502 113.36C703.049 113.36 699.735 112.613 696.562 111.12C693.482 109.627 690.775 107.387 688.442 104.4C686.202 101.32 684.429 97.4933 683.122 92.92C681.815 88.3467 681.162 82.98 681.162 76.82C681.162 64.78 682.889 54.28 686.342 45.32C689.795 36.36 694.135 28.8933 699.362 22.92C704.682 16.9467 710.329 12.5133 716.302 9.62C722.369 6.72666 728.015 5.28 733.242 5.28C736.975 5.28 740.195 5.93333 742.902 7.24C745.702 8.54666 747.989 10.32 749.762 12.56C751.535 14.7067 752.795 17.2733 753.542 20.26C754.382 23.1533 754.802 26.2333 754.802 29.5L735.622 33.14C734.782 29.4067 733.662 26.7467 732.262 25.16C730.862 23.5733 729.275 22.78 727.502 22.78C725.169 22.78 722.602 24.46 719.802 27.82C717.002 31.0867 714.389 35.3333 711.962 40.56C709.535 45.7867 707.482 51.5267 705.802 57.78C704.122 64.0333 703.189 70.1933 703.002 76.26C703.002 82.0467 703.842 86.2 705.522 88.72C707.295 91.1467 709.535 92.36 712.242 92.36C714.109 92.36 716.022 91.8933 717.982 90.96C720.035 90.0267 721.855 88.72 723.442 87.04C725.029 85.2667 726.335 83.26 727.362 81.02C728.482 78.6867 729.089 76.1667 729.182 73.46L714.202 75.7L716.862 61.84C721.249 61.28 725.542 60.72 729.742 60.16C733.289 59.6933 737.022 59.1333 740.942 58.48C744.955 57.8267 748.455 57.22 751.442 56.66ZM824.665 107.2C822.332 107.573 819.765 107.993 816.965 108.46C814.165 108.927 811.645 109.347 809.405 109.72C809.779 106.64 810.152 103.607 810.525 100.62C810.805 98.0067 811.039 95.3933 811.225 92.78C811.505 90.1667 811.739 87.9267 811.925 86.06H799.745L794.145 106.22C792.092 106.5 789.665 106.827 786.865 107.2C784.065 107.48 781.452 107.76 779.025 108.04C776.039 108.413 773.099 108.787 770.205 109.16C773.939 96.7467 777.625 84.52 781.265 72.48C782.759 67.44 784.299 62.1667 785.885 56.66C787.565 51.1533 789.199 45.6933 790.785 40.28C792.465 34.7733 794.052 29.5 795.545 24.46C797.039 19.42 798.345 14.8 799.465 10.6C805.812 10.1333 812.252 9.57333 818.785 8.91999C825.412 8.26666 831.852 7.37999 838.105 6.25999C837.825 9.24666 837.499 12.98 837.125 17.46C836.845 21.8467 836.565 26.6533 836.285 31.88C836.005 37.1067 835.725 42.5667 835.445 48.26C835.165 53.9533 834.885 59.5533 834.605 65.06C834.139 77.94 833.625 91.6133 833.065 106.08C830.265 106.547 827.465 106.92 824.665 107.2ZM803.105 72.06C803.479 72.06 804.132 72.06 805.065 72.06C806.092 71.9667 807.119 71.92 808.145 71.92C809.265 71.8267 810.292 71.78 811.225 71.78C812.159 71.6867 812.812 71.5933 813.185 71.5C813.185 70.94 813.232 70.0067 813.325 68.7C813.512 67.3 813.652 65.76 813.745 64.08C813.932 62.3067 814.119 60.3933 814.305 58.34C814.492 56.2867 814.679 54.28 814.865 52.32C815.239 47.56 815.705 42.4267 816.265 36.92L817.105 24.74L815.005 24.88L811.785 36.92L803.105 72.06ZM900.352 105.52C897.458 105.52 894.378 105.613 891.112 105.8C887.938 105.987 884.718 106.267 881.452 106.64C878.185 107.013 874.965 107.527 871.792 108.18C868.712 108.74 865.912 109.44 863.392 110.28C863.952 106.08 864.605 101.413 865.352 96.28C866.098 91.1467 866.938 85.8267 867.872 80.32C868.898 74.8133 869.878 69.26 870.812 63.66C871.838 58.06 872.865 52.6933 873.892 47.56C876.225 35.3333 878.698 22.8733 881.312 10.18L905.812 6.95999C903.292 17.7867 900.865 28.3333 898.532 38.6C897.505 42.9867 896.478 47.56 895.452 52.32C894.425 56.9867 893.445 61.56 892.512 66.04C891.578 70.52 890.738 74.86 889.992 79.06C889.245 83.26 888.638 86.9933 888.172 90.26C890.505 90.0733 892.978 89.98 895.592 89.98C898.298 89.8867 900.678 89.84 902.732 89.84C902.825 91.6133 902.965 93.3867 903.152 95.16C903.338 96.84 903.525 98.38 903.712 99.78C903.992 101.18 904.178 102.44 904.272 103.56C904.458 104.587 904.598 105.287 904.692 105.66C903.945 105.66 903.198 105.66 902.452 105.66C901.798 105.567 901.098 105.52 900.352 105.52ZM970.598 105.52C967.704 105.52 964.624 105.613 961.358 105.8C958.184 105.987 954.964 106.267 951.698 106.64C948.431 107.013 945.211 107.527 942.038 108.18C938.958 108.74 936.158 109.44 933.638 110.28C934.198 106.08 934.851 101.413 935.598 96.28C936.344 91.1467 937.184 85.8267 938.118 80.32C939.144 74.8133 940.124 69.26 941.058 63.66C942.084 58.06 943.111 52.6933 944.138 47.56C946.471 35.3333 948.944 22.8733 951.558 10.18L976.058 6.95999C973.538 17.7867 971.111 28.3333 968.778 38.6C967.751 42.9867 966.724 47.56 965.698 52.32C964.671 56.9867 963.691 61.56 962.758 66.04C961.824 70.52 960.984 74.86 960.238 79.06C959.491 83.26 958.884 86.9933 958.418 90.26C960.751 90.0733 963.224 89.98 965.838 89.98C968.544 89.8867 970.924 89.84 972.978 89.84C973.071 91.6133 973.211 93.3867 973.398 95.16C973.584 96.84 973.771 98.38 973.958 99.78C974.238 101.18 974.424 102.44 974.518 103.56C974.704 104.587 974.844 105.287 974.938 105.66C974.191 105.66 973.444 105.66 972.698 105.66C972.044 105.567 971.344 105.52 970.598 105.52ZM1003.32 110.14L1021.66 10.6L1065.9 6.81999C1065.25 8.87333 1064.69 10.9733 1064.22 13.12C1063.76 14.8933 1063.29 16.76 1062.82 18.72C1062.45 20.5867 1062.12 22.2667 1061.84 23.76C1060.91 23.8533 1059.56 23.9467 1057.78 24.04C1056.1 24.04 1054.28 24.0867 1052.32 24.18C1050.36 24.18 1048.36 24.18 1046.3 24.18C1044.34 24.18 1042.62 24.18 1041.12 24.18L1036.22 49.24C1039.12 49.0533 1041.82 48.9133 1044.34 48.82C1046.4 48.7267 1048.5 48.68 1050.64 48.68C1052.79 48.68 1054.38 48.6333 1055.4 48.54C1055.03 51.1533 1054.66 53.72 1054.28 56.24C1054 58.76 1053.63 61.3267 1053.16 63.94C1052.23 64.0333 1050.69 64.1267 1048.54 64.22C1046.49 64.22 1044.39 64.2667 1042.24 64.36C1039.82 64.4533 1037.16 64.5467 1034.26 64.64L1029.5 90.4L1049.94 87.18L1048.54 103.14L1003.32 110.14ZM1078.48 110.14C1081 97.7267 1083.43 85.5933 1085.76 73.74C1086.6 68.7 1087.53 63.4733 1088.56 58.06C1089.59 52.5533 1090.52 47.14 1091.36 41.82C1092.29 36.4067 1093.13 31.2267 1093.88 26.28C1094.72 21.24 1095.37 16.6667 1095.84 12.56C1101.16 10.88 1106.9 9.66666 1113.06 8.91999C1119.22 8.08 1125.33 7.66 1131.4 7.66C1135.04 7.66 1138.03 8.08 1140.36 8.91999C1142.79 9.75999 1144.65 10.9733 1145.96 12.56C1147.36 14.0533 1148.34 15.8267 1148.9 17.88C1149.46 19.9333 1149.74 22.22 1149.74 24.74C1149.74 28.4733 1149.09 32.16 1147.78 35.8C1146.47 39.3467 1144.7 42.7533 1142.46 46.02C1140.31 49.1933 1137.79 52.1333 1134.9 54.84C1132.1 57.4533 1129.07 59.6 1125.8 61.28C1127.48 65.0133 1129.25 69.12 1131.12 73.6C1133.08 77.9867 1134.9 82.1867 1136.58 86.2C1138.45 90.8667 1140.36 95.5333 1142.32 100.2L1120.62 107.76C1118.75 101.787 1117.07 96.1867 1115.58 90.96C1114.93 88.8133 1114.27 86.62 1113.62 84.38C1112.97 82.0467 1112.36 79.8533 1111.8 77.8C1111.24 75.7467 1110.77 73.9267 1110.4 72.34C1110.03 70.66 1109.79 69.3067 1109.7 68.28L1107.88 68.84C1107.32 71.8267 1106.62 75.3267 1105.78 79.34C1105.03 83.3533 1104.33 87.2267 1103.68 90.96C1102.84 95.3467 1102 99.78 1101.16 104.26L1078.48 110.14ZM1111.38 49.38C1113.15 49.1933 1115.3 48.4467 1117.82 47.14C1120.43 45.8333 1122.91 44.2933 1125.24 42.52C1127.57 40.6533 1129.58 38.74 1131.26 36.78C1132.94 34.82 1133.78 33.0933 1133.78 31.6C1133.78 30.5733 1133.45 29.78 1132.8 29.22C1132.15 28.5667 1131.21 28.1 1130 27.82C1128.88 27.4467 1127.62 27.2133 1126.22 27.12C1124.82 27.0267 1123.37 26.98 1121.88 26.98C1120.85 26.98 1119.78 27.0267 1118.66 27.12C1117.63 27.12 1116.7 27.12 1115.86 27.12L1111.38 49.38ZM1178.91 107.9L1185.35 79.76C1185.35 75.7467 1185.25 71.4067 1185.07 66.74C1184.97 61.98 1184.79 57.22 1184.51 52.46C1184.23 47.7 1183.95 43.1267 1183.67 38.74C1183.39 34.26 1183.15 30.34 1182.97 26.98C1182.78 23.5267 1182.59 20.7733 1182.41 18.72C1182.22 16.6667 1182.13 15.64 1182.13 15.64L1204.95 6.95999V24.04C1204.95 26.3733 1204.95 28.7533 1204.95 31.18C1204.95 33.6067 1204.9 35.9867 1204.81 38.32C1204.81 40.6533 1204.81 42.8467 1204.81 44.9C1204.81 46.9533 1204.81 48.68 1204.81 50.08C1206.02 46.9067 1207.47 42.9867 1209.15 38.32C1210.92 33.6533 1212.55 29.1267 1214.05 24.74C1215.82 19.6067 1217.64 14.1933 1219.51 8.5L1241.21 13.4C1237.19 21.4267 1233.27 29.4067 1229.45 37.34C1227.86 40.7933 1226.18 44.3867 1224.41 48.12C1222.63 51.76 1220.86 55.4467 1219.09 59.18C1217.31 62.82 1215.59 66.3667 1213.91 69.82C1212.23 73.2733 1210.69 76.4933 1209.29 79.48C1208.82 81.9067 1208.21 84.5667 1207.47 87.46C1206.81 90.3533 1206.16 93.1067 1205.51 95.72C1204.67 98.8 1203.78 101.88 1202.85 104.96L1178.91 107.9Z" fill="#12619C"/>
</g>
<defs>
<filter id="filter0_d_1_103" x="0.36377" y="0.379883" width="1244.84" height="120.98" filterUnits="userSpaceOnUse" color-interpolation-filters="sRGB">
<feFlood flood-opacity="0" result="BackgroundImageFix"/>
<feColorMatrix in="SourceAlpha" type="matrix" values="0 0 0 0 0 0 0 0 0 0 0 0 0 0 0 0 0 0 127 0" result="hardAlpha"/>
<feOffset dy="4"/>
<feGaussianBlur stdDeviation="2"/>
<feComposite in2="hardAlpha" operator="out"/>
<feColorMatrix type="matrix" values="0 0 0 0 0 0 0 0 0 0 0 0 0 0 0 0 0 0 0.25 0"/>
<feBlend mode="normal" in2="BackgroundImageFix" result="effect1_dropShadow_1_103"/>
<feBlend mode="normal" in="SourceGraphic" in2="effect1_dropShadow_1_103" result="shape"/>
</filter>
</defs>
</svg>
