<svg width="1324" height="1604" viewBox="0 0 1324 1604" fill="none" xmlns="http://www.w3.org/2000/svg">
<g clip-path="url(#clip0_1_45)">
<path opacity="0.2" d="M893.685 814.128C846.763 726.718 705.067 546.121 624.402 550.213C574.456 552.739 488.61 650.125 430.36 723.953C422.872 690.548 414.017 657.997 414.017 657.997L95.8091 510.448L112.617 540.395L284.215 724.097C284.215 724.097 270.52 773.085 282.669 782.714C294.818 792.343 341.451 782.497 341.451 782.497C341.451 782.497 329.908 791.911 348.395 811.584C366.882 831.257 395.3 846.621 395.3 846.621C395.3 846.621 396.005 845.812 397.094 844.502C402.676 847.172 409.269 849.727 417.286 851.901C473.655 867.503 483.12 865.058 483.12 865.058C483.12 865.058 498.727 853.681 548.96 948.579C599.194 1043.48 586.608 1089.65 658.116 1130.06C729.656 1170.53 1242.44 1434.84 1242.44 1434.84C1242.44 1434.84 940.608 901.538 893.749 814.1L893.685 814.128Z" fill="black"/>
<path d="M321.606 506.495C321.606 506.495 302.417 572.913 279.86 611.813C257.304 650.713 248.302 692.984 286.094 695.916C308.788 697.649 328.677 672.278 328.677 672.278C328.677 672.278 293.425 702.371 303.841 746.001C314.32 789.604 388.412 737.53 388.412 737.53C388.412 737.53 348.946 808.025 374.557 816.011C400.167 823.998 431.739 795.533 450.207 787.366C468.675 779.2 532.475 673.826 554.687 664.004C576.9 654.181 644.404 687.072 662.245 727.419C680.086 767.766 737.393 737.618 689.486 609.203C641.515 480.816 565.623 388.977 503.295 377.916C440.968 366.854 321.606 506.495 321.606 506.495Z" fill="white" stroke="#263238" stroke-linecap="round" stroke-linejoin="round"/>
<path d="M360.124 653.483L481.005 528.089C481.005 528.089 538.933 484.074 622.39 547.207" stroke="#263238" stroke-linecap="round" stroke-linejoin="round"/>
<path d="M407.381 690.519L529.703 607.504C529.703 607.504 587.01 577.356 657.915 637.668" stroke="#263238" stroke-linecap="round" stroke-linejoin="round"/>
<path d="M1681.58 1184.53C1562.67 1135.41 1074.5 960.747 1061.36 940.12C1046.98 917.553 907.272 641.592 889.4 601.176C871.528 560.759 754.861 496.648 754.861 496.648C754.861 496.648 703.526 462.574 653.057 388.419C602.587 314.263 520.06 311.056 484.902 331.41C449.744 351.764 353.726 408.644 327.394 458.91C301.062 509.176 281.904 565.885 324.268 561.655C394.528 554.622 455.414 420.866 531.15 461.222C565.807 479.712 647.074 592.63 657.961 607.127C657.961 607.127 675.898 632.762 664.786 660.136C653.704 687.58 627.009 726.901 627.009 726.901C627.009 726.901 575.461 772.819 550.673 786.598C525.822 800.405 586.213 936.975 631.983 964.641C677.722 992.237 800.935 1160.2 856.211 1192.04C908.95 1222.42 1415.7 1572.95 1415.7 1572.95" fill="white"/>
<path d="M1681.58 1184.53C1562.67 1135.41 1074.5 960.747 1061.36 940.12C1046.98 917.553 907.272 641.592 889.4 601.176C871.528 560.759 754.861 496.648 754.861 496.648C754.861 496.648 703.526 462.574 653.057 388.419C602.587 314.263 520.06 311.056 484.902 331.41C449.744 351.764 353.726 408.644 327.394 458.91C301.062 509.176 281.904 565.885 324.268 561.655C394.528 554.622 455.414 420.866 531.15 461.222C565.807 479.712 647.074 592.63 657.961 607.127C657.961 607.127 675.898 632.762 664.786 660.136C653.704 687.58 627.009 726.901 627.009 726.901C627.009 726.901 575.461 772.819 550.673 786.598C525.822 800.405 586.213 936.975 631.983 964.641C677.722 992.237 800.935 1160.2 856.211 1192.04C908.95 1222.42 1415.7 1572.95 1415.7 1572.95" stroke="#263238" stroke-linecap="round" stroke-linejoin="round"/>
<path d="M6.17906 512.454C6.73896 510.632 8.52026 509.513 10.407 510.004L32.1029 510.854C36.2549 511.836 39.0704 516.144 38.4147 520.495C37.759 524.846 33.8748 527.558 29.7228 526.576L9.16984 517.845C7.12557 517.34 5.63904 515.179 6.04567 513.01C6.11129 512.816 6.11344 512.649 6.17906 512.454Z" fill="#263238" stroke="#263238" stroke-linecap="round" stroke-linejoin="round"/>
<path d="M26.6299 514.434C29.1363 506.032 37.3404 501.078 45.9596 503.069L105.106 508.823L717.613 637.294C739.914 642.6 755.012 665.761 751.524 689.101C748.036 712.441 727.087 727.009 704.817 721.772L92.8951 557.735L40.5088 539.128C31.0097 536.864 24.6059 527.015 26.0593 517.09C26.1969 516.2 26.4288 515.352 26.6606 514.503L26.6299 514.434Z" fill="#12619C" stroke="#333333" stroke-linecap="round" stroke-linejoin="round"/>
<path d="M716.998 636.074L540.288 599.011C522.336 616.066 516.023 643.141 526.63 667.128C527.672 669.485 528.905 671.758 530.234 673.905L704.296 720.594C726.533 725.927 747.451 711.29 751.003 687.922C754.554 664.554 739.393 641.421 717.092 636.116L716.998 636.074Z" fill="#FFE16F" stroke="#263238" stroke-linecap="round" stroke-linejoin="round"/>
<path d="M821.835 1164.16C596.07 1048.42 576.45 938.164 540.015 915.652C503.581 893.141 476.984 868.683 422.708 805.825C368.433 742.966 328.427 691.617 301.665 631.096C274.903 570.576 317.872 539.06 383.348 587.269C448.825 635.477 537.465 714.966 537.465 714.966C537.465 714.966 584.88 742.235 638.632 704.046" fill="white"/>
<path d="M821.835 1164.16C596.07 1048.42 576.45 938.164 540.015 915.652C503.581 893.141 476.984 868.683 422.708 805.825C368.433 742.966 328.427 691.617 301.665 631.096C274.903 570.576 317.872 539.06 383.348 587.269C448.825 635.477 537.465 714.966 537.465 714.966C537.465 714.966 584.88 742.235 638.632 704.046" stroke="#263238" stroke-linecap="round" stroke-linejoin="round"/>
<path d="M537.496 715.035C537.496 715.035 597.598 739.595 632.433 766.212" stroke="#263238" stroke-linecap="round" stroke-linejoin="round"/>
<path d="M336.741 585.334L361.042 606.829C361.042 606.829 358.249 608.064 343.938 629.063C329.69 650.033 328.646 672.209 328.646 672.209C328.646 672.209 283.918 622.534 292.645 596.628C295.27 588.837 299.497 583.984 304.11 581.033C314.037 574.654 327.322 576.902 336.774 585.237L336.741 585.334Z" fill="white" stroke="#263238" stroke-linecap="round" stroke-linejoin="round"/>
<path d="M454.438 708.913C456.22 707.794 458.128 706.619 460.067 705.513" stroke="#263238" stroke-linecap="round" stroke-linejoin="round"/>
<path d="M413.998 766.91C413.998 766.91 407.583 743.308 444.156 716.03" stroke="#263238" stroke-linecap="round" stroke-linejoin="round"/>
<path d="M451.272 731.78C451.272 731.78 452.554 742.401 429.577 767.48" stroke="#263238" stroke-linecap="round" stroke-linejoin="round"/>
<path d="M436.976 702.711C436.976 702.711 414.003 717.677 405.194 737.734" stroke="#263238" stroke-linecap="round" stroke-linejoin="round"/>
</g>
<defs>
<clipPath id="clip0_1_45">
<rect width="1260.16" height="1532.61" fill="white" transform="translate(0 509.634) rotate(-23.8548)"/>
</clipPath>
</defs>
</svg>
