<svg width="169" height="44" viewBox="0 0 169 44" fill="none" xmlns="http://www.w3.org/2000/svg">
<g filter="url(#filter0_d_1_44)">
<path d="M4.865 34.045C5.765 29.995 6.62 26.035 7.43 22.165C7.76 20.545 8.105 18.835 8.465 17.035C8.825 15.235 9.17 13.465 9.5 11.725C9.83 9.985 10.145 8.305 10.445 6.685C10.745 5.065 11 3.58 11.21 2.23C12.08 1.96 12.935 1.735 13.775 1.555C14.615 1.345 15.47 1.165 16.34 1.015C17.24 0.864998 18.08 0.789998 18.86 0.789998C20.21 0.789998 21.335 1.015 22.235 1.465C23.165 1.915 23.915 2.53 24.485 3.31C25.055 4.06 25.46 4.945 25.7 5.965C25.94 6.985 26.06 8.08 26.06 9.25C26.06 10.93 25.745 12.55 25.115 14.11C24.515 15.67 23.69 17.065 22.64 18.295C21.62 19.495 20.435 20.455 19.085 21.175C17.765 21.895 16.385 22.255 14.945 22.255H14.45C14.21 23.275 13.985 24.385 13.775 25.585C13.565 26.785 13.385 27.895 13.235 28.915C13.025 30.115 12.83 31.315 12.65 32.515L4.865 34.045ZM17.42 6.235C17.09 8.215 16.76 10.09 16.43 11.86C16.1 13.63 15.74 15.52 15.35 17.53C15.83 17.41 16.325 17.14 16.835 16.72C17.375 16.27 17.87 15.7 18.32 15.01C18.77 14.29 19.13 13.465 19.4 12.535C19.67 11.605 19.805 10.63 19.805 9.61C19.805 8.5 19.55 7.66 19.04 7.09C18.56 6.52 18.02 6.235 17.42 6.235ZM52.2008 9.655C52.2008 12.115 51.9308 14.44 51.3908 16.63C50.8808 18.79 50.1908 20.785 49.3208 22.615C48.4508 24.415 47.4308 26.035 46.2608 27.475C45.1208 28.885 43.9208 30.1 42.6608 31.12C41.4008 32.11 40.1258 32.875 38.8358 33.415C37.5458 33.925 36.3158 34.18 35.1458 34.18C34.1558 34.18 33.2558 34 32.4458 33.64C31.6358 33.25 30.9308 32.695 30.3308 31.975C29.7308 31.225 29.2508 30.28 28.8908 29.14C28.5608 27.97 28.3958 26.575 28.3958 24.955C28.3958 23.275 28.6058 21.505 29.0258 19.645C29.4458 17.785 30.0158 15.94 30.7358 14.11C31.4558 12.28 32.3408 10.54 33.3908 8.89C34.4408 7.24 35.5958 5.785 36.8558 4.525C38.1158 3.235 39.4658 2.215 40.9058 1.465C42.3458 0.714998 43.8458 0.339999 45.4058 0.339999C46.7558 0.339999 47.8658 0.624999 48.7358 1.195C49.6358 1.735 50.3258 2.455 50.8058 3.355C51.3158 4.225 51.6758 5.215 51.8858 6.325C52.0958 7.435 52.2008 8.545 52.2008 9.655ZM35.1008 23.785C35.1008 24.115 35.1608 24.46 35.2808 24.82C35.4008 25.18 35.5658 25.495 35.7758 25.765C35.9858 26.035 36.2408 26.275 36.5408 26.485C36.8708 26.665 37.2158 26.755 37.5758 26.755C38.9258 26.755 40.1258 26.29 41.1758 25.36C42.2258 24.43 43.0958 23.29 43.7858 21.94C44.4758 20.59 45.0008 19.15 45.3608 17.62C45.7508 16.09 45.9458 14.695 45.9458 13.435C45.9458 13.075 45.9158 12.685 45.8558 12.265C45.8258 11.845 45.7358 11.455 45.5858 11.095C45.4658 10.735 45.2558 10.435 44.9558 10.195C44.6858 9.925 44.3108 9.79 43.8308 9.79C42.8708 9.79 41.9858 10.03 41.1758 10.51C40.3658 10.99 39.6308 11.635 38.9708 12.445C38.3408 13.225 37.7858 14.125 37.3058 15.145C36.8258 16.135 36.4058 17.155 36.0458 18.205C35.7158 19.225 35.4758 20.23 35.3258 21.22C35.1758 22.21 35.1008 23.065 35.1008 23.785ZM74.0782 22.885C74.0782 24.565 73.7482 26.095 73.0882 27.475C72.4582 28.825 71.5882 29.995 70.4782 30.985C69.3982 31.975 68.1082 32.74 66.6082 33.28C65.1382 33.82 63.5482 34.09 61.8382 34.09C60.6382 34.09 59.4382 33.775 58.2382 33.145C57.0382 32.485 55.8832 31.45 54.7732 30.04L58.1032 23.515C58.3132 23.905 58.6282 24.31 59.0482 24.73C59.4682 25.12 59.9332 25.465 60.4432 25.765C60.9832 26.065 61.5082 26.32 62.0182 26.53C62.5582 26.71 63.0382 26.8 63.4582 26.8C63.8182 26.8 64.1932 26.74 64.5832 26.62C64.9732 26.5 65.3332 26.32 65.6632 26.08C65.9932 25.84 66.2482 25.57 66.4282 25.27C66.6382 24.94 66.7432 24.565 66.7432 24.145C66.7432 23.425 66.5032 22.765 66.0232 22.165C65.5732 21.535 65.0032 20.95 64.3132 20.41C63.6232 19.84 62.8732 19.27 62.0632 18.7C61.2532 18.13 60.5032 17.53 59.8132 16.9C59.1532 16.27 58.5832 15.565 58.1032 14.785C57.6232 14.005 57.3832 13.135 57.3832 12.175C57.3832 10.615 57.8482 9.16 58.7782 7.81C59.7082 6.46 60.8632 5.305 62.2432 4.345C63.6532 3.355 65.1832 2.575 66.8332 2.005C68.4832 1.435 70.0432 1.15 71.5132 1.15C72.3232 1.15 73.0882 1.255 73.8082 1.465C74.5282 1.645 75.1432 1.96 75.6532 2.41C76.1932 2.83 76.6132 3.37 76.9132 4.03C77.2432 4.69 77.4082 5.515 77.4082 6.505C77.4082 6.925 77.3632 7.345 77.2732 7.765C77.2132 8.185 77.1532 8.635 77.0932 9.115L70.5682 11.005C70.6282 10.765 70.6732 10.525 70.7032 10.285C70.7632 10.045 70.7932 9.805 70.7932 9.565C70.7932 8.665 70.6282 8.02 70.2982 7.63C69.9982 7.21 69.5932 7 69.0832 7C68.8432 7 68.5432 7.09 68.1832 7.27C67.8532 7.45 67.5082 7.69 67.1482 7.99C66.8182 8.26 66.5332 8.59 66.2932 8.98C66.0532 9.37 65.9332 9.79 65.9332 10.24C65.9332 10.96 66.1282 11.56 66.5182 12.04C66.9382 12.52 67.4482 12.97 68.0482 13.39C68.6482 13.81 69.2932 14.245 69.9832 14.695C70.7032 15.115 71.3632 15.67 71.9632 16.36C72.5632 17.05 73.0582 17.92 73.4482 18.97C73.8682 19.99 74.0782 21.295 74.0782 22.885ZM82.4791 34.045C83.1691 30.745 83.8291 27.49 84.4591 24.28C84.7291 22.93 84.9991 21.52 85.2691 20.05C85.5391 18.58 85.7941 17.14 86.0341 15.73C86.3041 14.29 86.5291 12.91 86.7091 11.59C86.9191 10.24 87.0991 9.01 87.2491 7.9C86.5591 7.81 85.8541 7.78 85.1341 7.81C84.4441 7.84 83.7541 7.75 83.0641 7.54C83.0941 7.06 83.1091 6.505 83.1091 5.875C83.1091 5.245 83.1241 4.615 83.1541 3.985C83.1841 3.295 83.2141 2.56 83.2441 1.78C84.0241 1.84 84.8041 1.885 85.5841 1.915C86.3641 1.945 87.1441 1.96 87.9241 1.96C89.4541 1.96 90.9241 1.93 92.3341 1.87C93.7741 1.78 95.0941 1.69 96.2941 1.6C97.5241 1.48 98.7241 1.345 99.8941 1.195L99.3991 3.625C99.2491 4.315 99.0991 5.02 98.9491 5.74C98.8291 6.46 98.7091 7.075 98.5891 7.585C97.9291 7.765 97.2541 7.9 96.5641 7.99C95.9041 8.05 95.2441 8.14 94.5841 8.26C94.3741 9.28 94.1491 10.42 93.9091 11.68C93.6691 12.91 93.4291 14.2 93.1891 15.55C92.9791 16.87 92.7691 18.22 92.5591 19.6C92.3491 20.98 92.1391 22.3 91.9291 23.56C91.4491 26.53 90.9991 29.605 90.5791 32.785L82.4791 34.045ZM120.532 33.1C120.262 33.1 119.737 33.145 118.957 33.235C118.177 33.295 117.367 33.385 116.527 33.505C115.687 33.595 114.922 33.685 114.232 33.775C113.572 33.865 113.212 33.925 113.152 33.955C113.512 32.665 113.872 31.24 114.232 29.68C114.592 28.09 114.952 26.44 115.312 24.73C115.702 22.99 116.062 21.235 116.392 19.465C116.752 17.695 117.097 15.985 117.427 14.335C118.177 10.495 118.912 6.55 119.632 2.5L126.652 1.375C125.872 5.395 125.092 9.34 124.312 13.21C123.982 14.86 123.637 16.57 123.277 18.34C122.947 20.11 122.617 21.865 122.287 23.605C121.987 25.345 121.672 27.04 121.342 28.69C121.042 30.31 120.772 31.78 120.532 33.1ZM131.211 34.045C131.901 30.745 132.561 27.49 133.191 24.28C133.461 22.93 133.731 21.52 134.001 20.05C134.271 18.58 134.526 17.14 134.766 15.73C135.036 14.29 135.261 12.91 135.441 11.59C135.651 10.24 135.831 9.01 135.981 7.9C135.291 7.81 134.586 7.78 133.866 7.81C133.176 7.84 132.486 7.75 131.796 7.54C131.826 7.06 131.841 6.505 131.841 5.875C131.841 5.245 131.856 4.615 131.886 3.985C131.916 3.295 131.946 2.56 131.976 1.78C132.756 1.84 133.536 1.885 134.316 1.915C135.096 1.945 135.876 1.96 136.656 1.96C138.186 1.96 139.656 1.93 141.066 1.87C142.506 1.78 143.826 1.69 145.026 1.6C146.256 1.48 147.456 1.345 148.626 1.195L148.131 3.625C147.981 4.315 147.831 5.02 147.681 5.74C147.561 6.46 147.441 7.075 147.321 7.585C146.661 7.765 145.986 7.9 145.296 7.99C144.636 8.05 143.976 8.14 143.316 8.26C143.106 9.28 142.881 10.42 142.641 11.68C142.401 12.91 142.161 14.2 141.921 15.55C141.711 16.87 141.501 18.22 141.291 19.6C141.081 20.98 140.871 22.3 140.661 23.56C140.181 26.53 139.731 29.605 139.311 32.785L131.211 34.045ZM156.45 23.335C155.58 23.335 154.71 23.365 153.84 23.425C152.97 23.485 152.1 23.545 151.23 23.605C152.16 19.915 153.06 16.24 153.93 12.58C154.83 8.92 155.76 5.245 156.72 1.555C157.29 1.465 157.935 1.375 158.655 1.285C159.405 1.195 160.155 1.09 160.905 0.969999C161.655 0.849999 162.375 0.744998 163.065 0.654997C163.785 0.564999 164.385 0.474999 164.865 0.384998C163.245 4.165 161.76 7.975 160.41 11.815C159.09 15.625 157.77 19.465 156.45 23.335ZM156.9 30.4C156.9 30.97 156.765 31.54 156.495 32.11C156.255 32.68 155.895 33.19 155.415 33.64C154.935 34.06 154.335 34.39 153.615 34.63C152.895 34.9 152.07 35.035 151.14 35.035C150.51 35.035 149.94 34.915 149.43 34.675C148.92 34.435 148.5 34.12 148.17 33.73C147.87 33.31 147.63 32.845 147.45 32.335C147.27 31.825 147.18 31.315 147.18 30.805C147.18 30.235 147.27 29.695 147.45 29.185C147.63 28.645 147.9 28.18 148.26 27.79C148.65 27.37 149.115 27.025 149.655 26.755C150.225 26.485 150.9 26.35 151.68 26.35C153.42 26.35 154.725 26.77 155.595 27.61C156.465 28.42 156.9 29.35 156.9 30.4Z" fill="#12619C"/>
</g>
<defs>
<filter id="filter0_d_1_44" x="0.86499" y="0.340088" width="168" height="42.6948" filterUnits="userSpaceOnUse" color-interpolation-filters="sRGB">
<feFlood flood-opacity="0" result="BackgroundImageFix"/>
<feColorMatrix in="SourceAlpha" type="matrix" values="0 0 0 0 0 0 0 0 0 0 0 0 0 0 0 0 0 0 127 0" result="hardAlpha"/>
<feOffset dy="4"/>
<feGaussianBlur stdDeviation="2"/>
<feComposite in2="hardAlpha" operator="out"/>
<feColorMatrix type="matrix" values="0 0 0 0 0 0 0 0 0 0 0 0 0 0 0 0 0 0 0.25 0"/>
<feBlend mode="normal" in2="BackgroundImageFix" result="effect1_dropShadow_1_44"/>
<feBlend mode="normal" in="SourceGraphic" in2="effect1_dropShadow_1_44" result="shape"/>
</filter>
</defs>
</svg>
