<svg width="727" height="771" viewBox="0 0 727 771" fill="none" xmlns="http://www.w3.org/2000/svg">
<g clip-path="url(#clip0_69_70)">
<g style="mix-blend-mode:multiply">
<path d="M179.303 42.7106L36.1443 404.704L74.548 487.273L433.302 629.146L599.487 208.866L179.303 42.7106Z" fill="#CFD1D3"/>
<path d="M179.303 42.7106L36.1443 404.704L74.548 487.273L433.302 629.146L599.487 208.866L179.303 42.7106Z" stroke="#231815" stroke-miterlimit="10"/>
</g>
<path d="M594.733 199.047L174.549 32.8915L31.3899 394.885L69.7936 477.453L428.548 619.327L594.733 199.047Z" fill="#FFE16F" stroke="#231815" stroke-miterlimit="10"/>
<path d="M69.7936 477.454L31.3899 394.885L92.8295 419.187L69.7936 477.454Z" fill="#EDE5C7" stroke="#231815" stroke-miterlimit="10"/>
<g opacity="0.8">
<path d="M545.878 144.586L337.583 60.262C335.861 63.2902 333.641 66.3901 332.834 68.0537C327.329 79.3395 322.707 91.0462 318.969 103.028L530.443 188.636C533.856 178.812 537.289 168.979 540.906 159.226C542.528 154.84 543.876 149.314 545.893 144.591L545.878 144.586Z" fill="#12619C" stroke="#231815" stroke-miterlimit="10"/>
</g>
</g>
<g clip-path="url(#clip1_69_70)">
<g style="mix-blend-mode:multiply">
<path d="M299.819 424.897L370.766 709.372L430.475 743.119L712.402 672.804L630.016 342.535L299.819 424.897Z" fill="#CFD1D3"/>
<path d="M299.819 424.897L370.766 709.372L430.475 743.119L712.402 672.804L630.016 342.535L299.819 424.897Z" stroke="#231815" stroke-miterlimit="10"/>
</g>
<path d="M622.801 338.604L292.604 420.966L363.551 705.44L423.259 739.188L705.186 668.872L622.801 338.604Z" fill="#FFE16F" stroke="#231815" stroke-miterlimit="10"/>
<path d="M423.259 739.188L363.551 705.441L411.836 693.402L423.259 739.188Z" fill="#EDE5C7" stroke="#231815" stroke-miterlimit="10"/>
<g opacity="0.8">
<path d="M569.008 326.654L404.464 366.284C404.736 368.894 404.735 371.765 404.97 373.138C406.544 382.463 408.842 391.66 411.803 400.637L578.858 360.4C576.643 352.887 574.437 345.36 572.378 337.8C571.45 334.403 569.854 330.427 569.019 326.651L569.008 326.654Z" fill="#12619C" stroke="#231815" stroke-miterlimit="10"/>
</g>
</g>
<defs>
<clipPath id="clip0_69_70">
<rect width="478.284" height="507.567" fill="white" transform="translate(166.574) rotate(19.1585)"/>
</clipPath>
<clipPath id="clip1_69_70">
<rect width="360.228" height="382.283" fill="white" transform="translate(273.305 404.313) rotate(-16.4227)"/>
</clipPath>
</defs>
</svg>
