<svg width="432" height="376" viewBox="0 0 432 376" fill="none" xmlns="http://www.w3.org/2000/svg">
<g filter="url(#filter0_d_1_17)">
<path d="M5.4 150.2C9.4 132.2 13.2 114.6 16.8 97.4C18.2667 90.2 19.8 82.6 21.4 74.6C23 66.6 24.5333 58.7333 26 51C27.4667 43.2667 28.8667 35.8 30.2 28.6C31.5333 21.4 32.6667 14.8 33.6 8.79999C37.4667 7.59999 41.2667 6.59999 45 5.8C48.7333 4.86666 52.5333 4.06666 56.4 3.39999C60.4 2.73333 64.1333 2.39999 67.6 2.39999C73.6 2.39999 78.6 3.39999 82.6 5.39999C86.7333 7.4 90.0667 10.1333 92.6 13.6C95.1333 16.9333 96.9333 20.8667 98 25.4C99.0667 29.9333 99.6 34.8 99.6 40C99.6 47.4667 98.2 54.6667 95.4 61.6C92.7333 68.5333 89.0667 74.7333 84.4 80.2C79.8667 85.5333 74.6 89.8 68.6 93C62.7333 96.2 56.6 97.8 50.2 97.8H48C46.9333 102.333 45.9333 107.267 45 112.6C44.0667 117.933 43.2667 122.867 42.6 127.4C41.6667 132.733 40.8 138.067 40 143.4L5.4 150.2ZM61.2 26.6C59.7333 35.4 58.2667 43.7333 56.8 51.6C55.3333 59.4667 53.7333 67.8667 52 76.8C54.1333 76.2667 56.3333 75.0667 58.6 73.2C61 71.2 63.2 68.6667 65.2 65.6C67.2 62.4 68.8 58.7333 70 54.6C71.2 50.4667 71.8 46.1333 71.8 41.6C71.8 36.6667 70.6667 32.9333 68.4 30.4C66.2667 27.8667 63.8667 26.6 61.2 26.6ZM215.781 41.8C215.781 52.7333 214.581 63.0667 212.181 72.8C209.915 82.4 206.848 91.2667 202.981 99.4C199.115 107.4 194.581 114.6 189.381 121C184.315 127.267 178.981 132.667 173.381 137.2C167.781 141.6 162.115 145 156.381 147.4C150.648 149.667 145.181 150.8 139.981 150.8C135.581 150.8 131.581 150 127.981 148.4C124.381 146.667 121.248 144.2 118.581 141C115.915 137.667 113.781 133.467 112.181 128.4C110.715 123.2 109.981 117 109.981 109.8C109.981 102.333 110.915 94.4667 112.781 86.2C114.648 77.9333 117.181 69.7333 120.381 61.6C123.581 53.4667 127.515 45.7333 132.181 38.4C136.848 31.0667 141.981 24.6 147.581 19C153.181 13.2667 159.181 8.73333 165.581 5.39999C171.981 2.06666 178.648 0.399995 185.581 0.399995C191.581 0.399995 196.515 1.66666 200.381 4.19999C204.381 6.59999 207.448 9.79999 209.581 13.8C211.848 17.6667 213.448 22.0667 214.381 27C215.315 31.9333 215.781 36.8667 215.781 41.8ZM139.781 104.6C139.781 106.067 140.048 107.6 140.581 109.2C141.115 110.8 141.848 112.2 142.781 113.4C143.715 114.6 144.848 115.667 146.181 116.6C147.648 117.4 149.181 117.8 150.781 117.8C156.781 117.8 162.115 115.733 166.781 111.6C171.448 107.467 175.315 102.4 178.381 96.4C181.448 90.4 183.781 84 185.381 77.2C187.115 70.4 187.981 64.2 187.981 58.6C187.981 57 187.848 55.2667 187.581 53.4C187.448 51.5333 187.048 49.8 186.381 48.2C185.848 46.6 184.915 45.2667 183.581 44.2C182.381 43 180.715 42.4 178.581 42.4C174.315 42.4 170.381 43.4667 166.781 45.6C163.181 47.7333 159.915 50.6 156.981 54.2C154.181 57.6667 151.715 61.6667 149.581 66.2C147.448 70.6 145.581 75.1333 143.981 79.8C142.515 84.3333 141.448 88.8 140.781 93.2C140.115 97.6 139.781 101.4 139.781 104.6ZM313.014 100.6C313.014 108.067 311.547 114.867 308.614 121C305.814 127 301.947 132.2 297.014 136.6C292.214 141 286.481 144.4 279.814 146.8C273.281 149.2 266.214 150.4 258.614 150.4C253.281 150.4 247.947 149 242.614 146.2C237.281 143.267 232.147 138.667 227.214 132.4L242.014 103.4C242.947 105.133 244.347 106.933 246.214 108.8C248.081 110.533 250.147 112.067 252.414 113.4C254.814 114.733 257.147 115.867 259.414 116.8C261.814 117.6 263.947 118 265.814 118C267.414 118 269.081 117.733 270.814 117.2C272.547 116.667 274.147 115.867 275.614 114.8C277.081 113.733 278.214 112.533 279.014 111.2C279.947 109.733 280.414 108.067 280.414 106.2C280.414 103 279.347 100.067 277.214 97.4C275.214 94.6 272.681 92 269.614 89.6C266.547 87.0667 263.214 84.5333 259.614 82C256.014 79.4667 252.681 76.8 249.614 74C246.681 71.2 244.147 68.0667 242.014 64.6C239.881 61.1333 238.814 57.2667 238.814 53C238.814 46.0667 240.881 39.6 245.014 33.6C249.147 27.6 254.281 22.4667 260.414 18.2C266.681 13.8 273.481 10.3333 280.814 7.79999C288.147 5.26666 295.081 4 301.614 4C305.214 4 308.614 4.46666 311.814 5.39999C315.014 6.2 317.747 7.6 320.014 9.6C322.414 11.4667 324.281 13.8667 325.614 16.8C327.081 19.7333 327.814 23.4 327.814 27.8C327.814 29.6667 327.614 31.5333 327.214 33.4C326.947 35.2667 326.681 37.2667 326.414 39.4L297.414 47.8C297.681 46.7333 297.881 45.6667 298.014 44.6C298.281 43.5333 298.414 42.4667 298.414 41.4C298.414 37.4 297.681 34.5333 296.214 32.8C294.881 30.9333 293.081 30 290.814 30C289.747 30 288.414 30.4 286.814 31.2C285.347 32 283.814 33.0667 282.214 34.4C280.747 35.6 279.481 37.0667 278.414 38.8C277.347 40.5333 276.814 42.4 276.814 44.4C276.814 47.6 277.681 50.2667 279.414 52.4C281.281 54.5333 283.547 56.5333 286.214 58.4C288.881 60.2667 291.747 62.2 294.814 64.2C298.014 66.0667 300.947 68.5333 303.614 71.6C306.281 74.6667 308.481 78.5333 310.214 83.2C312.081 87.7333 313.014 93.5333 313.014 100.6ZM350.352 150.2C353.418 135.533 356.352 121.067 359.152 106.8C360.352 100.8 361.552 94.5333 362.752 88C363.952 81.4667 365.085 75.0667 366.152 68.8C367.352 62.4 368.352 56.2667 369.152 50.4C370.085 44.4 370.885 38.9333 371.552 34C368.485 33.6 365.352 33.4667 362.152 33.6C359.085 33.7333 356.018 33.3333 352.952 32.4C353.085 30.2667 353.152 27.8 353.152 25C353.152 22.2 353.218 19.4 353.352 16.6C353.485 13.5333 353.618 10.2667 353.752 6.8C357.218 7.06666 360.685 7.26666 364.152 7.39999C367.618 7.53333 371.085 7.6 374.552 7.6C381.352 7.6 387.885 7.46666 394.152 7.19999C400.552 6.8 406.418 6.4 411.752 5.99999C417.218 5.46666 422.552 4.86666 427.752 4.19999L425.552 15C424.885 18.0667 424.218 21.2 423.552 24.4C423.018 27.6 422.485 30.3333 421.952 32.6C419.018 33.4 416.018 34 412.952 34.4C410.018 34.6667 407.085 35.0667 404.152 35.6C403.218 40.1333 402.218 45.2 401.152 50.8C400.085 56.2667 399.018 62 397.952 68C397.018 73.8667 396.085 79.8667 395.152 86C394.218 92.1333 393.285 98 392.352 103.6C390.218 116.8 388.218 130.467 386.352 144.6L350.352 150.2ZM37.6 359C36.4 359 34.0667 359.2 30.6 359.6C27.1333 359.867 23.5333 360.267 19.8 360.8C16.0667 361.2 12.6667 361.6 9.6 362C6.66667 362.4 5.06667 362.667 4.8 362.8C6.4 357.067 8 350.733 9.6 343.8C11.2 336.733 12.8 329.4 14.4 321.8C16.1333 314.067 17.7333 306.267 19.2 298.4C20.8 290.533 22.3333 282.933 23.8 275.6C27.1333 258.533 30.4 241 33.6 223L64.8 218C61.3333 235.867 57.8667 253.4 54.4 270.6C52.9333 277.933 51.4 285.533 49.8 293.4C48.3333 301.267 46.8667 309.067 45.4 316.8C44.0667 324.533 42.6667 332.067 41.2 339.4C39.8667 346.6 38.6667 353.133 37.6 359ZM85.0625 363.2C88.1292 348.533 91.0625 334.067 93.8625 319.8C95.0625 313.8 96.2625 307.533 97.4625 301C98.6625 294.467 99.7958 288.067 100.863 281.8C102.063 275.4 103.063 269.267 103.863 263.4C104.796 257.4 105.596 251.933 106.263 247C103.196 246.6 100.063 246.467 96.8625 246.6C93.7958 246.733 90.7292 246.333 87.6625 245.4C87.7958 243.267 87.8625 240.8 87.8625 238C87.8625 235.2 87.9292 232.4 88.0625 229.6C88.1958 226.533 88.3292 223.267 88.4625 219.8C91.9292 220.067 95.3958 220.267 98.8625 220.4C102.329 220.533 105.796 220.6 109.263 220.6C116.063 220.6 122.596 220.467 128.863 220.2C135.263 219.8 141.129 219.4 146.463 219C151.929 218.467 157.263 217.867 162.463 217.2L160.263 228C159.596 231.067 158.929 234.2 158.263 237.4C157.729 240.6 157.196 243.333 156.663 245.6C153.729 246.4 150.729 247 147.663 247.4C144.729 247.667 141.796 248.067 138.863 248.6C137.929 253.133 136.929 258.2 135.863 263.8C134.796 269.267 133.729 275 132.663 281C131.729 286.867 130.796 292.867 129.863 299C128.929 305.133 127.996 311 127.063 316.6C124.929 329.8 122.929 343.467 121.063 357.6L85.0625 363.2ZM197.236 315.6C193.369 315.6 189.503 315.733 185.636 316C181.769 316.267 177.903 316.533 174.036 316.8C178.169 300.4 182.169 284.067 186.036 267.8C190.036 251.533 194.169 235.2 198.436 218.8C200.969 218.4 203.836 218 207.036 217.6C210.369 217.2 213.703 216.733 217.036 216.2C220.369 215.667 223.569 215.2 226.636 214.8C229.836 214.4 232.503 214 234.636 213.6C227.436 230.4 220.836 247.333 214.836 264.4C208.969 281.333 203.103 298.4 197.236 315.6ZM199.236 347C199.236 349.533 198.636 352.067 197.436 354.6C196.369 357.133 194.769 359.4 192.636 361.4C190.503 363.267 187.836 364.733 184.636 365.8C181.436 367 177.769 367.6 173.636 367.6C170.836 367.6 168.303 367.067 166.036 366C163.769 364.933 161.903 363.533 160.436 361.8C159.103 359.933 158.036 357.867 157.236 355.6C156.436 353.333 156.036 351.067 156.036 348.8C156.036 346.267 156.436 343.867 157.236 341.6C158.036 339.2 159.236 337.133 160.836 335.4C162.569 333.533 164.636 332 167.036 330.8C169.569 329.6 172.569 329 176.036 329C183.769 329 189.569 330.867 193.436 334.6C197.303 338.2 199.236 342.333 199.236 347Z" fill="#12619C"/>
</g>
<defs>
<filter id="filter0_d_1_17" x="0.799988" y="0.399902" width="430.952" height="375.2" filterUnits="userSpaceOnUse" color-interpolation-filters="sRGB">
<feFlood flood-opacity="0" result="BackgroundImageFix"/>
<feColorMatrix in="SourceAlpha" type="matrix" values="0 0 0 0 0 0 0 0 0 0 0 0 0 0 0 0 0 0 127 0" result="hardAlpha"/>
<feOffset dy="4"/>
<feGaussianBlur stdDeviation="2"/>
<feComposite in2="hardAlpha" operator="out"/>
<feColorMatrix type="matrix" values="0 0 0 0 0 0 0 0 0 0 0 0 0 0 0 0 0 0 0.25 0"/>
<feBlend mode="normal" in2="BackgroundImageFix" result="effect1_dropShadow_1_17"/>
<feBlend mode="normal" in="SourceGraphic" in2="effect1_dropShadow_1_17" result="shape"/>
</filter>
</defs>
</svg>
