<svg width="82" height="85" viewBox="0 0 82 85" fill="none" xmlns="http://www.w3.org/2000/svg">
<g style="mix-blend-mode:multiply">
<path d="M8.62719 11.7628L8.71125 79.9178L76.8662 79.8337L76.7822 11.6787L8.62719 11.7628ZM14.56 16.7669C14.5617 17.1655 14.2392 17.4888 13.8405 17.4882L11.5045 17.4902C11.1058 17.4896 10.7826 17.1695 10.7832 16.7707L10.7812 14.4347C10.7819 14.036 11.102 13.7129 11.5007 13.7135L13.8367 13.7115C14.2353 13.7098 14.5586 14.0322 14.558 14.4309L14.56 16.7669ZM21.2344 16.7585C21.2361 17.1571 20.9137 17.4804 20.5149 17.4798L18.179 17.4818C17.7804 17.4835 17.4571 17.161 17.4577 16.7623L17.4557 14.4263C17.4563 14.0276 17.7764 13.7044 18.1751 13.7051L20.5111 13.7031C20.9097 13.7014 21.233 14.0238 21.2324 14.4225L21.2344 16.7585ZM27.9089 16.7501C27.9106 17.1487 27.5881 17.472 27.1894 17.4714L24.8534 17.4734C24.4547 17.4727 24.1315 17.1526 24.1321 16.7539L24.1301 14.4179C24.1308 14.0192 24.4509 13.696 24.8496 13.6966L27.1856 13.6946C27.5842 13.6929 27.9075 14.0154 27.9069 14.4141L27.9089 16.7501ZM34.5833 16.7417C34.585 17.1403 34.2626 17.4636 33.8638 17.463L31.5278 17.465C31.1293 17.4667 30.8059 17.1442 30.8066 16.7455L30.8046 14.4095C30.8029 14.0109 31.1253 13.6876 31.524 13.6882L33.86 13.6862C34.2586 13.6845 34.5819 14.007 34.5813 14.4057L34.5833 16.7417ZM41.2578 16.7333C41.2571 17.132 40.937 17.4552 40.5383 17.4545L38.2023 17.4565C37.8037 17.4582 37.4804 17.1358 37.481 16.7371L37.479 14.4011C37.4773 14.0025 37.7998 13.6792 38.1985 13.6798L40.5345 13.6778C40.9332 13.6784 41.2564 13.9986 41.2557 14.3973L41.2578 16.7333ZM47.9322 16.7249C47.9316 17.1236 47.6115 17.4468 47.2127 17.4461L44.8767 17.4481C44.4782 17.4498 44.1548 17.1274 44.1555 16.7287L44.1535 14.3927C44.1518 13.9941 44.4742 13.6708 44.8729 13.6714L47.2089 13.6694C47.6075 13.6677 47.9308 13.9901 47.9302 14.3889L47.9322 16.7249ZM54.6066 16.7164C54.6083 17.115 54.2859 17.4383 53.8872 17.4377L51.5512 17.4397C51.1526 17.4414 50.8293 17.119 50.8299 16.7202L50.8279 14.3842C50.8262 13.9857 51.1487 13.6624 51.5474 13.663L53.8834 13.661C54.2821 13.6616 54.6053 13.9817 54.6046 14.3804L54.6066 16.7164ZM61.2811 16.708C61.2828 17.1066 60.9603 17.4299 60.5616 17.4293L58.2256 17.4313C57.8271 17.433 57.5037 17.1106 57.5044 16.7118L57.5024 14.3758C57.5007 13.9773 57.8231 13.6539 58.2218 13.6546L60.5578 13.6526C60.9564 13.6509 61.2797 13.9733 61.2791 14.372L61.2811 16.708ZM67.9555 16.6996C67.9572 17.0982 67.6348 17.4215 67.2361 17.4209L64.9001 17.4229C64.5015 17.4246 64.1782 17.1021 64.1788 16.7034L64.1768 14.3674C64.1751 13.9688 64.4975 13.6455 64.8963 13.6462L67.2323 13.6441C67.6308 13.6425 67.9542 13.9649 67.9535 14.3636L67.9555 16.6996ZM74.63 16.6912C74.6317 17.0898 74.3092 17.4131 73.9105 17.4125L71.5745 17.4145C71.1759 17.4162 70.8526 17.0937 70.8533 16.695L70.8512 14.359C70.8496 13.9604 71.172 13.6371 71.5707 13.6377L73.9067 13.6357C74.3053 13.634 74.6286 13.9565 74.628 14.3552L74.63 16.6912Z" fill="#D9D9D9"/>
</g>
<path d="M7.39928 10.6747L7.48566 78.8295L75.6407 78.7455L75.5566 10.5905L7.39928 10.6747ZM13.3321 15.6788C13.3338 16.0774 13.0113 16.4007 12.6126 16.4001L10.2766 16.4021C9.87788 16.4015 9.5547 16.0814 9.55533 15.6826L9.55333 13.3466C9.55396 12.9479 9.87407 12.6247 10.2728 12.6254L12.6088 12.6234C13.0074 12.6217 13.3307 12.9441 13.3301 13.3428L13.3321 15.6788ZM20.0065 15.6704C20.0082 16.069 19.6858 16.3923 19.287 16.3917L16.951 16.3937C16.5525 16.3954 16.2292 16.0729 16.2298 15.6742L16.2278 13.3382C16.2284 12.9395 16.5485 12.6163 16.9472 12.617L19.2832 12.6149C19.6818 12.6133 20.0051 12.9357 20.0045 13.3344L20.0065 15.6704ZM26.681 15.662C26.6826 16.0606 26.3602 16.3839 25.9615 16.3833L23.6255 16.3853C23.2268 16.3846 22.9036 16.0645 22.9042 15.6658L22.9022 13.3298C22.9028 12.9311 23.223 12.6079 23.6217 12.6085L25.9577 12.6065C26.3563 12.6048 26.6796 12.9273 26.6789 13.326L26.681 15.662ZM33.3554 15.6536C33.3571 16.0522 33.0347 16.3755 32.6359 16.3748L30.2999 16.3769C29.9014 16.3785 29.578 16.0561 29.5787 15.6574L29.5767 13.3214C29.575 12.9228 29.8974 12.5995 30.2961 12.6001L32.6321 12.5981C33.0307 12.5964 33.354 12.9189 33.3534 13.3176L33.3554 15.6536ZM40.0298 15.6452C40.0292 16.0439 39.7091 16.3671 39.3104 16.3664L36.9744 16.3684C36.5758 16.3701 36.2525 16.0477 36.2531 15.649L36.2511 13.313C36.2494 12.9144 36.5719 12.5911 36.9706 12.5917L39.3066 12.5897C39.7053 12.5903 40.0285 12.9104 40.0278 13.3092L40.0298 15.6452ZM46.7043 15.6367C46.7037 16.0355 46.3835 16.3586 45.9848 16.358L43.6488 16.36C43.2503 16.3617 42.9269 16.0393 42.9276 15.6406L42.9256 13.3046C42.9239 12.906 43.2463 12.5827 43.645 12.5833L45.981 12.5813C46.3796 12.5796 46.7029 12.902 46.7023 13.3007L46.7043 15.6367ZM53.3787 15.6283C53.3804 16.0269 53.058 16.3502 52.6593 16.3496L50.3233 16.3516C49.9247 16.3533 49.6014 16.0309 49.602 15.6321L49.6 13.2961C49.5983 12.8976 49.9207 12.5742 50.3195 12.5749L52.6555 12.5729C53.0542 12.5735 53.3774 12.8936 53.3767 13.2923L53.3787 15.6283ZM60.0532 15.6199C60.0549 16.0185 59.7324 16.3418 59.3337 16.3412L56.9977 16.3432C56.5991 16.3449 56.2758 16.0224 56.2765 15.6237L56.2744 13.2877C56.2728 12.8891 56.5952 12.5658 56.9939 12.5665L59.3299 12.5644C59.7285 12.5628 60.0518 12.8852 60.0512 13.2839L60.0532 15.6199ZM66.7276 15.6115C66.7293 16.0101 66.4069 16.3334 66.0082 16.3328L63.6722 16.3348C63.2736 16.3365 62.9503 16.014 62.9509 15.6153L62.9489 13.2793C62.9472 12.8807 63.2696 12.5574 63.6684 12.558L66.0044 12.556C66.4029 12.5543 66.7263 12.8768 66.7256 13.2755L66.7276 15.6115ZM73.4021 15.6031C73.4038 16.0017 73.0813 16.325 72.6826 16.3243L70.3466 16.3264C69.948 16.328 69.6247 16.0056 69.6253 15.6069L69.6233 13.2709C69.6216 12.8723 69.9441 12.549 70.3428 12.5496L72.6788 12.5476C73.0774 12.5459 73.4007 12.8684 73.4001 13.2671L73.4021 15.6031Z" fill="#FFF3C5"/>
<path d="M10.277 16.9021L10.2758 16.9021C9.60485 16.901 9.0546 16.3607 9.05533 15.6825L9.05534 15.6831L9.55533 15.6826L9.05534 15.6818L9.05333 13.3471L9.05332 13.3458C9.05439 12.6749 9.59467 12.1247 10.2729 12.1254L10.2724 12.1254L10.277 16.9021ZM10.277 16.9021L12.6118 16.9001L12.6126 16.4001L12.613 16.9001L12.6125 16.9001C13.2878 16.9008 13.8345 16.3528 13.8321 15.6775L13.8321 15.6784L13.3321 15.6788L13.8321 15.6767L13.8301 13.3436L10.277 16.9021ZM15.7278 13.3386L15.7278 13.3374C15.7288 12.6665 16.2691 12.1163 16.9473 12.117L16.9468 12.117L15.7278 13.3386ZM15.7278 13.3386L15.7298 15.6734C15.7298 15.6736 15.7298 15.6737 15.7298 15.6738C15.7289 16.3493 16.277 16.8961 16.9524 16.8937L15.7278 13.3386ZM23.6259 16.8853L23.6247 16.8853C22.9539 16.8842 22.4038 16.3442 22.4042 15.6662L23.6259 16.8853ZM23.6259 16.8853L25.9607 16.8833L23.6259 16.8853ZM40.5298 15.6447L40.5298 15.646C40.5288 16.3168 39.9886 16.867 39.3105 16.8664L39.3108 16.8664L39.3104 16.3664L39.3096 16.8664L36.9765 16.8684C36.9762 16.8684 36.976 16.8684 36.9757 16.8684C36.3003 16.8709 35.7523 16.3241 35.7531 15.6486L35.7531 15.6494L36.2531 15.649L35.7531 15.6482L35.7511 13.3151C35.7511 13.3149 35.7511 13.3147 35.7511 13.3145L35.7511 13.3134L36.2511 13.313L40.5298 15.6447ZM40.5298 15.6447L40.5278 13.31C40.5278 13.3098 40.5278 13.3097 40.5278 13.3096M40.5298 15.6447L40.5278 13.3096M40.5278 13.3096L40.5278 13.3087L40.0278 13.3092L40.5278 13.3096ZM47.2043 15.6363L47.2043 15.6375C47.2032 16.3086 46.6628 16.8588 45.9845 16.858C45.9843 16.858 45.9842 16.858 45.984 16.858L43.6509 16.86C43.6507 16.86 43.6504 16.86 43.6501 16.86C42.9747 16.8624 42.4267 16.3156 42.4276 15.6401L42.4276 15.641L42.9276 15.6406L42.4276 15.6398L42.4256 13.3067C42.4256 13.3061 42.4256 13.3055 42.4256 13.305C42.4236 12.6301 42.97 12.0827 43.645 12.0833L43.6446 12.0833L47.2043 15.6363ZM47.2043 15.6363L47.2023 13.3015C47.2023 13.3014 47.2023 13.3012 47.2023 13.301C47.2031 12.6256 46.6552 12.079 45.9799 12.0813C45.9796 12.0813 45.9792 12.0813 45.9789 12.0813M47.2043 15.6363L45.9789 12.0813M52.655 12.0729L52.6563 12.0729C53.3273 12.0739 53.8776 12.6144 53.8767 13.2927L53.8767 13.2919L52.655 12.0729ZM52.655 12.0729L50.3203 12.0749L52.655 12.0729ZM53.8787 15.6262L53.8767 13.2931L53.8787 15.6262ZM53.8787 15.6262L53.8787 15.6279M53.8787 15.6262L53.8787 15.6279M53.8787 15.6279C53.8807 16.3029 53.3341 16.8504 52.6589 16.8496C52.6588 16.8496 52.6586 16.8496 52.6585 16.8496L50.3254 16.8516C50.3251 16.8516 50.3248 16.8516 50.3246 16.8516C49.6492 16.854 49.1011 16.3072 49.102 15.6317L49.102 15.6326L49.602 15.6321L49.102 15.6313L49.1 13.2983C49.1 13.2977 49.1 13.2971 49.1 13.2966C49.098 12.6217 49.6445 12.0742 50.3196 12.0749L50.319 12.0749L53.8787 15.6279ZM45.9789 12.0813L43.6458 12.0833L45.9789 12.0813ZM66.0078 16.8328C66.683 16.8336 67.2296 16.286 67.2276 15.6111L66.0078 16.8328ZM66.0078 16.8328C66.0077 16.8328 66.0075 16.8328 66.0074 16.8328L63.6743 16.8348C63.674 16.8348 63.6737 16.8348 63.6735 16.8348L66.0078 16.8328ZM70.3428 12.5496L70.3424 12.0496L70.343 12.0496C70.3432 12.0496 70.3434 12.0496 70.3436 12.0496L72.6767 12.0476C72.6769 12.0476 72.6772 12.0476 72.6774 12.0476C73.3529 12.0452 73.9009 12.592 73.9001 13.2675C73.9001 13.2676 73.9001 13.2678 73.9001 13.2679L73.9021 15.601L69.1233 13.2713L69.6233 13.2709M70.3428 12.5496C69.9441 12.549 69.6216 12.8723 69.6233 13.2709M70.3428 12.5496L72.6788 12.5476L70.3428 12.5496ZM69.6233 13.2709L69.1233 13.273M69.6233 13.2709L69.1233 13.273M69.1233 13.273L69.1253 15.6061C69.1254 15.6062 69.1253 15.6063 69.1253 15.6064M69.1233 13.273L69.1253 15.6064M69.1253 15.6064C69.1245 16.282 69.6725 16.8288 70.348 16.8264C70.3482 16.8264 70.3485 16.8264 70.3487 16.8264L72.6818 16.8243L69.1253 15.6064ZM12.6067 12.1234L10.2736 12.1254L12.6067 12.1234ZM13.8301 13.3432C13.8309 12.6678 13.283 12.121 12.6076 12.1234L13.8301 13.3424L13.8301 13.3432ZM19.2811 12.1149L16.948 12.117L19.2811 12.1149ZM20.5045 13.334C20.5049 12.6589 19.9571 12.1126 19.2821 12.1149L20.5045 13.334ZM20.5065 15.6683L20.5045 13.3352L20.0065 15.6704L20.5065 15.67L20.5065 15.6694C20.5065 15.6691 20.5065 15.6687 20.5065 15.6683ZM22.4022 13.3302L22.4042 15.665L23.6213 12.1085L23.6217 12.1085C22.9435 12.1079 22.4033 12.6581 22.4022 13.329L22.4022 13.3302ZM25.9556 12.1065L23.6225 12.1085L25.9556 12.1065ZM27.1789 13.3256C27.1794 12.6505 26.6316 12.1042 25.9565 12.1065L27.1789 13.3256ZM27.1809 15.6599L27.1789 13.3268L26.681 15.662L27.181 15.6616L27.181 15.6611C27.181 15.6607 27.1809 15.6603 27.1809 15.6599ZM7.98503 78.3289L7.89992 11.1741L75.0572 11.0911L75.14 78.2461L7.98503 78.3289ZM32.6358 16.8748C33.311 16.8756 33.8576 16.3278 33.8554 15.6527L33.8554 15.6531L33.3554 15.6536L33.8554 15.6515L32.6358 16.8748ZM29.0787 15.6578C29.0783 16.3329 29.6261 16.8793 30.3012 16.8768L29.0787 15.6578ZM29.0767 13.3235L29.0787 15.6566L33.8534 13.3172C33.8538 12.6421 33.306 12.0958 32.631 12.0981C32.6307 12.0981 32.6303 12.0981 32.63 12.0981L30.2969 12.1001L30.2961 12.6001L30.2957 12.1001L30.2961 12.1001C29.6209 12.0995 29.0744 12.6472 29.0767 13.3223C29.0767 13.3227 29.0767 13.3231 29.0767 13.3235ZM59.3334 16.8412C60.0086 16.842 60.5551 16.2945 60.5532 15.6195L59.3334 16.8412ZM60.5532 15.6178L60.5512 13.2847C60.5512 13.2846 60.5512 13.2845 60.5512 13.2844L60.5512 13.2835L60.5532 15.6178ZM55.7765 15.6233C55.7756 16.2988 56.3236 16.8456 56.999 16.8432L55.7765 15.6242L55.7765 15.6233ZM55.7744 13.2898L55.7765 15.6229L56.9935 12.0665L56.994 12.0665C56.3189 12.0658 55.7725 12.6133 55.7744 13.2882C55.7744 13.2887 55.7744 13.2893 55.7744 13.2898ZM59.3278 12.0645L56.9947 12.0665L59.3278 12.0645ZM67.2276 15.6094L67.2256 13.2763C67.2256 13.2762 67.2256 13.276 67.2256 13.2759C67.2265 12.6004 66.6784 12.0536 66.0031 12.056C66.0028 12.056 66.0025 12.056 66.0022 12.056L63.6691 12.058C63.6689 12.058 63.6687 12.058 63.6685 12.058L63.6679 12.058L67.2276 15.6094ZM62.4489 13.2814L62.4509 15.6145C62.4509 15.6147 62.4509 15.6148 62.4509 15.615L62.4509 15.6157L62.4489 13.2814Z" stroke="black" stroke-opacity="0.4"/>
<path d="M11.3385 27.0038L11.9563 27.0023L12.4528 27.0015L13.0682 27.0002L13.805 27.0006L14.4228 26.9991L14.9193 26.9983L15.537 26.9968L16.1525 26.9955L16.8892 26.9959L17.3858 26.9951L18.0455 26.9933L18.6191 26.9946L19.3557 26.9927L19.9711 26.9914L20.47 26.9904L21.0856 26.9914L21.8222 26.9895L22.3188 26.9887L22.9365 26.9872L23.5521 26.9882L24.2887 26.9863L24.7852 26.9855L25.522 26.9859L26.0186 26.985L26.7552 26.9831L27.2517 26.9823L27.8696 26.9831L28.485 26.9818L29.2217 26.9799L29.7182 26.9791L30.3361 26.9799L31.0727 26.978L31.5693 26.9772L32.1847 26.9759L32.8026 26.9767L33.5392 26.9748L34.0358 26.974L34.6512 26.9727L35.2691 26.9735L35.346 26.9734L35.388 26.9731L36.0057 26.9716L36.5022 26.9708L37.239 26.9712L37.7356 26.9703L38.4722 26.9684L38.9687 26.9676L39.7055 26.968L40.202 26.9671L40.9387 26.9652L41.4352 26.9644L42.0531 26.9652L42.6685 26.9639L43.4052 26.962L43.9017 26.9612L44.5196 26.962L45.135 26.9607L45.8716 26.9588L46.3682 26.958L46.9861 26.9588L47.6015 26.9575L48.3381 26.9556L48.9537 26.9566L49.4526 26.9556L50.1869 26.9539L50.6857 26.9529L51.4202 26.9534L51.9191 26.9524L52.6557 26.9505L53.1522 26.9497L53.7678 26.9507L54.5044 26.9488L55.1222 26.9473L55.6187 26.9465L56.2343 26.9475L56.852 26.946L57.5886 26.9441L58.0852 26.9433L58.7031 26.9441L59.3185 26.9428L60.0551 26.9409L60.6707 26.9419L61.1696 26.9409L61.785 26.9396L62.5216 26.9377L63.1372 26.9387L63.6361 26.9377L64.2515 26.9364L64.9882 26.9368L65.4848 26.936L66.1025 26.9345L66.718 26.9332L67.4547 26.9336L67.9513 26.9328L68.569 26.9313L69.3033 26.9296L69.8023 26.9309L70.4178 26.9296L71.0355 26.9281L71.7698 26.9263L72.3877 26.9272L72.3875 26.7757L71.6508 26.7753L71.0353 26.7766L70.5365 26.7776L69.921 26.7789L69.1843 26.7785L68.6877 26.7793L68.07 26.7808L67.3357 26.7825L66.8368 26.7835L66.2212 26.7825L65.4846 26.7844L64.8692 26.7858L64.3702 26.7844L63.7547 26.7857L63.137 26.7872L62.4027 26.789L61.9037 26.7876L61.2883 26.7889L60.6705 26.7904L59.9361 26.7898L59.3183 26.7913L58.8218 26.7921L58.204 26.7936L57.4673 26.7932L56.9707 26.794L56.8938 26.7942L56.8518 26.7945L56.3553 26.7953L55.7375 26.7968L55.0008 26.7964L54.5042 26.7972L53.8888 26.7985L53.2711 26.8L52.5343 26.7996L52.0377 26.8004L51.42 26.8019L50.8046 26.8032L50.0678 26.8028L49.5713 26.8036L48.9535 26.8051L48.2191 26.8045L47.6013 26.806L47.1048 26.8068L46.3682 26.8087L45.7526 26.8077L45.1348 26.8092L44.6383 26.81L44.0205 26.8115L43.2861 26.8109L42.7872 26.8119L42.1718 26.8132L41.5541 26.8147L40.8196 26.8141L40.3207 26.8151L39.5864 26.8169L39.0876 26.8179L38.3531 26.8173L37.8543 26.8183L37.7773 26.8185L37.7354 26.8188L37.2388 26.8196L36.6211 26.8211L35.8843 26.8207L35.3878 26.8215L34.7723 26.8228L34.1545 26.822L33.4178 26.8239L32.9213 26.8247L32.3035 26.8262L31.688 26.8252L31.0725 26.8265L30.4548 26.8279L29.8371 26.8294L29.1026 26.8288L28.6037 26.8298L27.9883 26.8311L27.3706 26.8326L26.6361 26.832L26.1373 26.833L25.5218 26.8343L24.9041 26.8358L24.1696 26.8352L23.6708 26.8362L23.0553 26.8375L22.4375 26.8367L21.7032 26.8384L21.2043 26.8394L20.47 26.8412L19.971 26.8399L19.3555 26.8412L18.6189 26.8431L18.1224 26.8439L17.5045 26.8431L16.8891 26.8444L16.2713 26.8458L15.6559 26.8471L15.038 26.8463L14.4226 26.8476L13.8048 26.849L13.1893 26.848L12.5715 26.8495L11.9561 26.8508L11.3383 26.8522L10.6016 26.8518L10.6018 27.0034L11.3385 27.0038Z" fill="#A5A4A4"/>
<path d="M11.2278 32.1208L11.8432 32.1195L12.4611 32.1204L13.1977 32.1185L13.6943 32.1176L14.3099 32.1186L15.0465 32.1167L15.5453 32.1157L16.1608 32.1144L16.8975 32.1148L17.3941 32.114L18.0118 32.1125L18.6273 32.1112L19.364 32.1116L19.8606 32.1108L20.4783 32.1093L21.0937 32.108L21.8305 32.1084L22.3271 32.1076L22.9448 32.1061L23.6046 32.1067L24.297 32.1052L24.7935 32.1044L25.4113 32.1029L26.0269 32.1039L26.7635 32.102L27.26 32.1012L27.8778 32.0997L28.6122 32.1003L29.23 32.0988L29.7265 32.098L30.3443 32.0965L31.081 32.0969L31.5776 32.0961L32.3119 32.0943L32.8107 32.0933L33.5475 32.0937L34.1629 32.0924L34.6595 32.0916L35.2774 32.0924L36.014 32.0905L36.5105 32.0897L37.1283 32.0882L37.7439 32.0892L38.4805 32.0873L38.977 32.0865L39.5948 32.085L40.2103 32.086L40.947 32.0841L41.4435 32.0833L42.0613 32.0818L42.7957 32.0824L43.4135 32.0809L43.91 32.0801L44.5279 32.0809L45.1433 32.0796L45.8799 32.0777L46.3765 32.0769L46.9944 32.0777L47.6098 32.0764L48.3464 32.0745L48.843 32.0737L49.5028 32.0742L50.1952 32.0728L50.694 32.0718L51.4285 32.0723L51.9273 32.0713L52.664 32.0694L53.1605 32.0686L53.7759 32.0673L54.5127 32.0677L55.1305 32.0662L55.627 32.0654L56.2426 32.0664L56.9792 32.0645L57.5969 32.063L58.0935 32.0622L58.7114 32.063L59.3268 32.0617L60.0634 32.0598L60.56 32.059L61.1779 32.0598L61.7933 32.0585L62.5299 32.0566L63.0265 32.0558L63.6443 32.0566L64.2598 32.0553L64.9964 32.0534L65.4931 32.0549L66.2297 32.053L66.7263 32.0521L66.8032 32.0519L66.8451 32.0516L67.4629 32.0502L67.9596 32.0517L68.6962 32.0498L69.3116 32.0484L69.8105 32.0475L70.4261 32.0485L71.0438 32.047L71.7781 32.0452L72.396 32.0461L72.3958 31.8946L71.7779 31.8937L71.0436 31.8955L70.5448 31.8965L69.9293 31.8978L69.3114 31.8969L68.696 31.8982L68.0783 31.8997L67.3438 31.8991L66.845 31.9001L66.2295 31.9014L65.6118 31.9029L64.8773 31.9023L64.3785 31.9033L63.763 31.9046L63.1453 31.9061L62.4108 31.9055L61.912 31.9065L61.2966 31.9078L60.5599 31.9097L60.0632 31.9083L59.4455 31.9097L58.8301 31.911L58.2123 31.9125L57.5968 31.9115L56.979 31.9129L56.3636 31.9142L55.7458 31.9157L55.1303 31.9147L54.5125 31.9161L53.8948 31.9176L53.2794 31.9189L52.6638 31.9179L51.9272 31.9198L51.4283 31.9208L50.8127 31.9198L50.195 31.9212L49.5796 31.9225L48.9618 31.924L48.3462 31.923L47.7285 31.9244L47.1131 31.9257L46.4953 31.9272L45.8798 31.9262L45.262 31.9276L44.6466 31.9289L44.0288 31.9304L43.4133 31.9294L42.7955 31.9308L42.1801 31.9321L41.5624 31.9336L40.9468 31.9326L40.329 31.934L39.7136 31.9353L39.0957 31.9345L38.4803 31.9358L37.8626 31.9372L37.2471 31.9385L36.6292 31.9377L36.0138 31.939L35.3961 31.9404L34.6593 31.94L34.1628 31.9409L33.5473 31.9422L32.8107 31.9441L32.3118 31.9451L31.6963 31.9441L31.0785 31.9455L30.4631 31.9468L29.8452 31.946L29.2298 31.9473L28.612 31.9487L27.9966 31.95L27.3787 31.9492L26.7633 31.9505L26.1456 31.9519L25.5301 31.9532L24.9122 31.9524L24.2968 31.9537L23.6791 31.9551L23.0636 31.9564L22.4458 31.9556L21.8303 31.9569L21.2126 31.9583L20.5972 31.9596L19.9793 31.9588L19.3638 31.9601L18.7461 31.9615L18.1305 31.9605L17.3939 31.9624L16.8974 31.9633L16.2796 31.9647L15.5452 31.9642L15.0463 31.9652L14.4309 31.9665L13.8131 31.9679L13.1976 31.9669L12.5798 31.9684L11.9644 31.9697L11.3466 31.9711L10.6099 31.9707L10.6101 32.1223L11.2278 32.1208Z" fill="#A5A4A4"/>
<path d="M11.2278 37.2404L11.8432 37.2391L12.4611 37.24L13.0765 37.2387L13.6943 37.2372L14.3097 37.2359L14.9276 37.2368L15.5453 37.2353L16.1608 37.234L16.7762 37.2327L17.3941 37.2336L18.0118 37.2321L18.7461 37.2304L19.2451 37.2317L19.8606 37.2304L20.4783 37.2289L21.0937 37.2276L21.7116 37.2285L22.3271 37.2272L22.9448 37.2257L23.5602 37.2244L24.1781 37.2253L24.7935 37.224L25.4113 37.2225L26.0267 37.2212L26.6446 37.2221L27.3789 37.2203L27.8778 37.2193L28.4933 37.2204L29.1111 37.2189L29.7265 37.2176L30.3443 37.2161L30.9598 37.2171L31.5776 37.2157L32.193 37.2144L32.8107 37.2129L33.4263 37.2139L34.0441 37.2125L34.6595 37.2112L35.2772 37.2097L35.8928 37.2107L36.5105 37.2093L37.1283 37.2078L37.8627 37.2084L38.3593 37.2075L38.977 37.2061L39.5948 37.2046L40.2103 37.2057L40.8281 37.2042L41.4435 37.2029L42.0613 37.2014L42.6768 37.2024L43.2946 37.201L43.91 37.1997L44.6468 37.2001L45.1433 37.1992L45.8799 37.1973L46.4954 37.196L46.9942 37.195L47.6098 37.196L48.3464 37.1941L48.843 37.1933L49.4607 37.1918L50.0763 37.1928L50.694 37.1914L51.3095 37.1901L51.9273 37.191L52.5428 37.1896L53.1605 37.1882L53.7759 37.1869L54.3938 37.1878L55.0093 37.1864L55.627 37.185L56.2424 37.1837L56.8603 37.1845L57.4757 37.1832L58.0935 37.1818L58.7112 37.1803L59.3268 37.1813L60.0634 37.1794L60.56 37.1786L61.1779 37.1795L61.7933 37.1781L62.5299 37.1762L63.0265 37.1754L63.7632 37.1758L64.2598 37.1749L64.9964 37.173L65.612 37.174L66.1108 37.1731L66.7263 37.1717L67.4629 37.1698L67.9594 37.169L68.5773 37.1698L69.1927 37.1685L69.8105 37.1671L70.4259 37.1658L71.0438 37.1666L71.7781 37.1649L72.3958 37.1634L72.3958 37.0142L71.7779 37.0133L71.1625 37.0146L70.5448 37.0161L69.9293 37.0174L69.3114 37.0165L68.696 37.0179L68.0783 37.0193L67.4627 37.0183L66.845 37.0197L66.1107 37.0215L65.6118 37.0225L64.9962 37.0215L64.2596 37.0234L63.763 37.0243L63.1453 37.0257L62.5297 37.0247L61.912 37.0261L61.2966 37.0275L60.6788 37.0289L60.0632 37.0279L59.4455 37.0293L58.8301 37.0307L58.2123 37.0321L57.5968 37.0311L56.979 37.0326L56.3636 37.0339L55.7457 37.033L55.1303 37.0343L54.5125 37.0358L53.8948 37.0372L53.2792 37.0362L52.6615 37.0376L52.046 37.039L51.4283 37.0404L50.8127 37.0394L50.195 37.0408L49.5796 37.0422L48.8428 37.0418L48.3462 37.0426L47.7285 37.0441L46.9942 37.0458L46.4952 37.0445L45.8798 37.0458L45.262 37.0472L44.6466 37.0486L44.0287 37.0477L43.4133 37.049L42.7955 37.0505L42.1801 37.0518L41.5622 37.0509L40.9468 37.0522L40.329 37.0537L39.7136 37.055L39.0957 37.0541L38.4803 37.0554L37.8626 37.0569L37.2471 37.0582L36.6292 37.0573L35.8926 37.0592L35.3961 37.0601L34.7805 37.059L34.1628 37.0605L33.4261 37.0624L32.9296 37.0633L32.3117 37.0624L31.6543 37.064L30.9596 37.0656L30.4631 37.0665L29.7263 37.0661L29.2298 37.0669L28.612 37.0684L27.9966 37.0697L27.3787 37.0688L26.7633 37.0701L26.1456 37.0716L25.53 37.0705L24.9122 37.072L24.2968 37.0733L23.6791 37.0748L23.0635 37.0737L22.4458 37.0752L21.7115 37.077L21.0936 37.0761L20.597 37.0769L19.9793 37.0784L19.245 37.0802L18.7461 37.0812L18.1305 37.0801L17.5128 37.0816L16.7762 37.0835L16.2796 37.0844L15.664 37.0833L15.0463 37.0848L14.3097 37.0867L13.813 37.0852L13.1976 37.0866L12.5379 37.0883L11.8432 37.0899L11.3465 37.0884L10.6099 37.0904L10.6101 37.2419L11.2278 37.2404Z" fill="#A5A4A4"/>
<path d="M11.2366 42.3604L11.9732 42.3585L12.4698 42.3577L13.0853 42.3587L13.822 42.3568L14.4397 42.3553L14.9364 42.3568L15.673 42.3549L16.1696 42.354L16.9062 42.3521L17.4029 42.3536L18.0206 42.3521L18.636 42.3508L19.3728 42.3512L19.8694 42.3504L20.4871 42.3489L21.1025 42.3476L21.7203 42.3462L22.3358 42.3472L22.9536 42.3457L23.569 42.3444L24.1868 42.343L24.8023 42.344L25.4201 42.3425L26.0355 42.3412L26.6534 42.3421L27.2688 42.3408L27.8866 42.3393L28.502 42.338L29.1199 42.3389L29.7353 42.3376L30.353 42.3361L31.0875 42.3367L31.5864 42.3357L32.2018 42.3344L32.9384 42.3325L33.435 42.3316L34.0528 42.3325L34.6683 42.3312L35.286 42.3297L35.9016 42.3307L36.5193 42.3293L37.1348 42.328L37.7525 42.3265L38.3681 42.3275L38.9858 42.3261L39.6036 42.3246L40.219 42.3233L40.8369 42.3242L41.5712 42.3224L42.0701 42.3214L42.6855 42.3201L43.3034 42.321L43.9188 42.3197L44.5365 42.3182L45.152 42.3169L45.7698 42.3178L46.3853 42.3165L47.003 42.315L47.6186 42.316L48.2363 42.3146L48.8518 42.3133L49.4695 42.3118L50.0851 42.3128L50.7028 42.3114L51.3182 42.3101L51.936 42.3086L52.5516 42.3096L53.1693 42.3082L53.7847 42.3069L54.4025 42.3054L55.018 42.3064L55.6358 42.305L56.2512 42.3037L56.8691 42.3045L57.4845 42.3032L58.1023 42.3018L58.8389 42.2999L59.3356 42.3013L59.951 42.3L60.6876 42.2981L61.1865 42.2971L61.8021 42.2981L62.4198 42.2967L63.0352 42.2954L63.653 42.2939L64.2686 42.2949L64.8863 42.2935L65.5017 42.2922L66.1195 42.2907L66.735 42.2917L67.3528 42.2903L67.9682 42.289L68.5861 42.2898L69.2015 42.2885L69.8193 42.2871L70.4347 42.2858L71.0526 42.2866L71.668 42.2853L72.4046 42.2834L72.4045 42.1319L71.6678 42.1338L71.1713 42.1346L70.5535 42.1361L69.8937 42.1355L69.2014 42.137L68.7048 42.1378L68.0871 42.1393L67.4715 42.1383L66.8537 42.1397L66.2383 42.141L65.6206 42.1425L64.8861 42.1419L64.3873 42.1429L63.7718 42.1442L63.112 42.1437L62.4196 42.1452L61.9208 42.1461L61.1865 42.1479L60.6875 42.1466L59.9508 42.1485L59.4543 42.1493L58.8389 42.1507L58.221 42.1498L57.4844 42.1517L56.9878 42.1525L56.3701 42.154L55.7545 42.153L55.0179 42.1549L54.5213 42.1557L53.9036 42.1572L53.1691 42.1567L52.5514 42.1581L52.0548 42.1589L51.4369 42.1581L50.7026 42.1598L50.0849 42.1613L49.5883 42.1621L48.9705 42.1613L48.2362 42.1631L47.7373 42.164L47.1219 42.1654L46.504 42.1645L45.7697 42.1663L45.2708 42.1672L44.6554 42.1686L43.9955 42.168L43.3032 42.1695L42.8043 42.1704L42.0699 42.1699L41.571 42.1709L40.8367 42.1727L40.3378 42.1736L39.7223 42.1726L38.9856 42.1746L38.3679 42.176L37.8713 42.1769L37.2558 42.1758L36.638 42.1773L35.9014 42.1792L35.2858 42.1782L34.787 42.1792L34.1715 42.1805L33.4349 42.1824L32.9384 42.1833L32.3205 42.1824L31.7051 42.1837L30.9684 42.1856L30.4717 42.1841L29.854 42.1856L29.1197 42.1874L28.6208 42.1883L28.0053 42.1873L27.2686 42.1893L26.6532 42.1906L26.1543 42.1916L25.5388 42.1905L24.8021 42.1925L24.1867 42.1938L23.6879 42.1948L23.0723 42.1937L22.4545 42.1952L21.7202 42.197L21.2212 42.1956L20.6058 42.1969L19.9881 42.1984L19.2538 42.2002L18.7547 42.1988L18.1393 42.2001L17.5216 42.2016L16.7848 42.2012L16.2463 42.2023L15.5516 42.204L15.0551 42.2048L14.3183 42.2044L13.8218 42.2052L13.0851 42.2072L12.5886 42.208L11.8518 42.2076L11.3553 42.2084L10.6187 42.2104L10.6188 42.3619L11.2366 42.3604Z" fill="#A5A4A4"/>
<path d="M11.241 47.4799L11.9776 47.478L12.4742 47.4772L13.0897 47.4782L13.7075 47.4767L14.4441 47.4748L14.9406 47.474L15.5562 47.475L16.174 47.4735L16.9106 47.4716L17.4071 47.4708L18.025 47.4716L18.6404 47.4703L19.3771 47.4684L19.8736 47.4676L20.4915 47.4684L21.1069 47.4671L21.8435 47.4652L22.4591 47.4662L22.958 47.4652L23.5734 47.4639L24.31 47.462L24.8067 47.4635L25.4245 47.462L26.0399 47.4607L26.7767 47.4611L27.2732 47.4603L28.0098 47.4584L28.5064 47.4575L29.2431 47.4579L29.7397 47.4571L29.8166 47.4569L29.8586 47.4566L30.3574 47.4556L31.0917 47.4539L31.5908 47.4552L32.2062 47.4539L32.8239 47.4524L33.5605 47.4505L34.1761 47.4515L34.6727 47.4507L35.2904 47.4492L36.0272 47.4496L36.6426 47.4483L37.1392 47.4475L37.7569 47.446L38.4937 47.4464L38.9902 47.4456L39.608 47.4441L40.2234 47.4428L40.9602 47.4432L41.4567 47.4424L42.0744 47.4409L42.6899 47.4396L43.4266 47.44L43.9232 47.4392L44.5409 47.4377L45.2752 47.436L45.8931 47.4368L46.3897 47.436L47.1263 47.4341L47.6228 47.4332L48.3596 47.4336L48.8562 47.4328L49.4739 47.4313L50.2083 47.4319L50.7072 47.4309L51.3226 47.4296L51.9404 47.4281L52.6748 47.4287L53.1737 47.4277L53.7891 47.4264L54.4069 47.4249L55.1436 47.4253L55.6402 47.4245L55.7171 47.4243L55.7591 47.424L56.2556 47.4232L56.8734 47.4217L57.6101 47.4221L58.1067 47.4213L58.7221 47.42L59.3398 47.4185L60.0766 47.4189L60.5732 47.4181L61.1909 47.4166L61.8063 47.4153L62.4242 47.4162L63.0396 47.4149L63.6574 47.4134L64.3918 47.414L64.8907 47.413L65.5061 47.4117L66.1239 47.4102L66.7394 47.4112L67.3572 47.4098L67.9726 47.4085L68.5904 47.407L69.3248 47.4076L69.8237 47.4066L70.4391 47.4053L71.0568 47.4038L71.7913 47.4044L72.409 47.4029L72.4089 47.2514L71.6722 47.2533L71.1757 47.2542L70.4389 47.2537L69.9424 47.2546L69.2057 47.2565L68.7092 47.2574L67.9724 47.2569L67.357 47.2583L66.7393 47.2597L66.2427 47.2606L65.6248 47.2597L64.8905 47.2615L64.3917 47.2624L63.7762 47.2638L63.1583 47.2629L62.4217 47.2648L61.9252 47.2657L61.3097 47.267L60.6918 47.2661L59.9552 47.268L59.4587 47.2689L58.8431 47.2678L58.2254 47.2693L58.1484 47.2695L58.1065 47.2698L57.4887 47.2712L56.9922 47.2721L56.2554 47.2717L55.7589 47.2725L55.0223 47.2744L54.5257 47.2753L53.9078 47.2744L53.2924 47.2757L52.5558 47.2776L52.0592 47.2785L51.4413 47.2776L50.8259 47.2789L50.0893 47.2808L49.5483 47.2798L48.9748 47.2808L48.2405 47.2826L47.6228 47.284L47.1261 47.2825L46.5084 47.284L45.7741 47.2858L45.2752 47.2868L44.5407 47.2862L44.0419 47.2872L43.3076 47.289L42.8087 47.29L42.0743 47.2894L41.5754 47.2904L40.8411 47.2922L40.3422 47.2932L39.7267 47.2921L38.99 47.2941L38.3723 47.2955L37.8756 47.294L37.2602 47.2953L36.6424 47.2968L35.9058 47.2987L35.4091 47.2972L34.7914 47.2987L34.1759 47.3L33.4392 47.2996L32.8237 47.3009L32.3249 47.3019L31.7095 47.3032L30.9727 47.3028L30.3573 47.3041L29.8584 47.3051L29.1241 47.3069L28.5831 47.3058L28.0097 47.3068L27.3919 47.3083L26.6576 47.3101L26.1586 47.3087L25.5432 47.31L24.9254 47.3115L24.1911 47.3133L23.6921 47.3119L23.0767 47.3132L22.4589 47.3147L21.7245 47.3142L21.2256 47.3151L20.6102 47.3164L19.9924 47.3179L19.2557 47.3175L18.6403 47.3188L18.1437 47.3196L17.526 47.3211L16.7892 47.3207L16.2927 47.3215L15.6772 47.3228L15.0595 47.3243L14.3227 47.3239L13.8262 47.3247L13.0895 47.3267L12.593 47.3275L11.8562 47.3271L11.3597 47.3279L11.2828 47.3281L11.2408 47.3284L10.6231 47.3299L10.6232 47.4814L11.241 47.4799Z" fill="#A5A4A4"/>
<path d="M11.2493 52.5994L11.9836 52.5977L12.4825 52.5967L13.0979 52.5954L13.8346 52.5958L14.4524 52.5943L14.9489 52.5935L15.5644 52.5922L16.3011 52.5926L16.9189 52.5911L17.4154 52.5903L18.0333 52.5912L18.6487 52.5898L19.3854 52.5879L19.8819 52.5871L20.4998 52.5879L21.1152 52.5866L21.8519 52.5847L22.3484 52.5839L23.0082 52.5844L23.5817 52.5834L24.3183 52.5815L24.8593 52.5826L25.5517 52.5811L26.0482 52.5802L26.7848 52.5783L27.2815 52.5798L28.0181 52.5779L28.5147 52.577L29.2513 52.5751L29.748 52.5766L30.3657 52.5751L31.1 52.5734L31.5989 52.5724L32.2145 52.5734L32.8322 52.5719L33.5665 52.5702L34.0654 52.5692L34.681 52.5702L35.2987 52.5687L36.0353 52.5668L36.5319 52.566L37.1475 52.567L37.7652 52.5655L38.5018 52.5636L38.9985 52.5651L39.7351 52.5632L40.2317 52.5623L40.9683 52.5604L41.465 52.5619L42.0828 52.5604L42.1574 52.5604L42.2016 52.56L42.6982 52.5591L43.4349 52.5595L43.9734 52.5584L44.5492 52.5572L45.1647 52.5559L45.9014 52.5563L46.398 52.5555L47.0157 52.554L47.6311 52.5527L48.3679 52.5531L48.8645 52.5523L49.4822 52.5508L50.2165 52.5491L50.7575 52.5501L51.4498 52.5486L51.9487 52.5476L52.6831 52.5482L53.182 52.5472L53.9163 52.5454L54.4152 52.5444L55.1519 52.5448L55.6485 52.544L56.2639 52.5427L56.8817 52.5412L57.6184 52.5416L58.115 52.5408L58.7304 52.5395L59.467 52.5376L60.0849 52.5384L60.5815 52.5376L61.1992 52.5361L61.2738 52.5361L61.3181 52.5357L61.8146 52.5348L62.5514 52.5352L63.1668 52.5339L63.6657 52.5329L64.2811 52.5316L65.0179 52.532L65.6333 52.5307L66.1322 52.5297L66.7476 52.5284L67.4844 52.5288L67.9809 52.528L68.5987 52.5265L69.3331 52.5271L69.8739 52.5258L70.4474 52.5248L71.0651 52.5233L71.7996 52.5239L72.4173 52.5224L72.4172 52.3709L71.6805 52.3728L71.184 52.3737L70.4472 52.3733L69.9507 52.3741L69.2141 52.376L68.7175 52.3769L68.0996 52.376L67.3653 52.3778L66.8664 52.3788L66.251 52.3801L65.6331 52.3792L64.8988 52.381L64.4 52.382L63.7844 52.3809L63.1666 52.3824L62.4323 52.3842L61.8146 52.3856L61.3179 52.3841L60.7002 52.3856L59.9635 52.3875L59.348 52.3865L58.8514 52.3873L58.2337 52.3888L57.497 52.3907L57.0005 52.3916L56.3826 52.3907L55.7672 52.392L55.0306 52.3939L54.5339 52.3924L53.9161 52.3939L53.1818 52.3957L52.5641 52.3971L52.0674 52.3956L51.4496 52.3971L50.8342 52.3984L50.0974 52.398L49.6009 52.3988L48.9832 52.4003L48.2489 52.4021L47.631 52.4012L47.1344 52.402L46.5167 52.4035L45.7824 52.4053L45.2835 52.4063L44.5491 52.4057L44.0502 52.4067L43.3159 52.4085L42.8169 52.4071L42.7423 52.4072L42.698 52.4076L42.2014 52.4084L41.5837 52.4099L40.8471 52.4118L40.3504 52.4103L39.735 52.4116L39.1172 52.4131L38.3804 52.4127L37.8839 52.4135L37.2685 52.4148L36.6507 52.4163L35.914 52.4159L35.4174 52.4167L34.7997 52.4182L34.1842 52.4195L33.5663 52.4186L32.9509 52.4199L32.3332 52.4214L31.7178 52.4227L31.0999 52.4218L30.4844 52.4231L29.8667 52.4246L29.1323 52.424L28.6334 52.425L28.018 52.4263L27.2813 52.4283L26.6658 52.4273L26.1669 52.4282L25.4326 52.43L24.9337 52.431L24.1993 52.4305L23.7004 52.4314L23.085 52.4328L22.4672 52.4342L21.7328 52.4337L21.2339 52.4346L20.6185 52.436L20.0008 52.4374L19.3852 52.4364L18.7674 52.4378L18.152 52.4392L17.5343 52.4406L16.9187 52.4396L16.301 52.441L15.6855 52.4424L15.0678 52.4438L14.4522 52.4428L13.8345 52.4442L13.2167 52.4457L12.6012 52.4447L11.9834 52.4461L11.368 52.4475L10.6314 52.4494L10.6314 52.5986L11.2493 52.5994Z" fill="#A5A4A4"/>
<path d="M11.3771 57.7176L11.8736 57.7168L12.4914 57.7153L13.1068 57.714L13.7247 57.7149L14.3401 57.7136L14.9579 57.7121L15.5733 57.7108L16.1912 57.7117L16.8066 57.7104L17.4244 57.7089L18.0421 57.7075L18.6577 57.7085L19.3943 57.7066L20.0097 57.7053L20.5086 57.7043L21.1242 57.7053L21.8608 57.7034L22.3573 57.7025L22.9752 57.7034L23.5906 57.7021L24.3273 57.7002L24.8238 57.6993L25.4417 57.7002L26.0571 57.6989L26.7938 57.697L27.2903 57.6961L27.9082 57.697L28.5679 57.6952L29.2602 57.6938L29.7568 57.6929L30.3747 57.6938L31.109 57.692L31.6078 57.691L32.2233 57.6897L32.8412 57.6906L33.5755 57.6888L34.0743 57.6878L34.6899 57.6888L35.3076 57.6874L36.0443 57.6855L36.5408 57.6846L37.2776 57.685L37.7741 57.6842L38.5108 57.6823L39.1263 57.6833L39.6229 57.6824L40.2406 57.681L40.9772 57.6791L41.4738 57.6782L42.0917 57.6791L42.826 57.6773L43.4437 57.6759L43.9404 57.6774L44.5582 57.6759L45.2925 57.6741L45.9102 57.6727L46.4069 57.6741L47.0246 57.6727L47.6401 57.6714L47.717 57.6712L47.759 57.6709L48.3768 57.6718L48.8734 57.6709L49.4911 57.6695L50.2254 57.6677L50.7243 57.6667L51.3399 57.6677L51.9576 57.6663L52.6919 57.6645L53.1908 57.6635L53.8064 57.6645L54.466 57.6628L55.1584 57.6613L55.6574 57.6627L56.3171 57.6609L57.0095 57.6594L57.6272 57.658L58.1239 57.6595L58.7393 57.6581L59.3571 57.6567L60.0938 57.6571L60.5904 57.6562L61.2081 57.6548L61.8236 57.6535L62.5603 57.6539L63.0569 57.653L63.6746 57.6516L64.29 57.6503L65.0268 57.6507L65.5234 57.6498L66.1411 57.6484L66.7565 57.6471L67.4933 57.6475L67.9898 57.6466L68.7265 57.6447L69.342 57.6457L69.8409 57.6448L70.4563 57.6434L71.193 57.6415L71.8085 57.6425L72.4263 57.6411L72.4261 57.4896L71.8083 57.491L71.1928 57.49L70.575 57.4914L69.9596 57.4928L69.3419 57.4942L68.7263 57.4932L68.1085 57.4946L67.3742 57.4964L66.8754 57.4974L66.2598 57.4964L65.6421 57.4978L64.9078 57.4996L64.4089 57.5006L63.7933 57.4996L63.1756 57.501L62.5601 57.5024L61.9424 57.5038L61.3268 57.5028L60.7091 57.5043L60.0937 57.5056L59.4758 57.5047L58.7391 57.5066L58.2426 57.5075L57.6272 57.5088L56.8904 57.5084L56.3915 57.5093L55.7761 57.5107L55.1584 57.5121L54.5428 57.5111L53.9251 57.5125L53.3096 57.5139L52.6919 57.5153L52.0763 57.5143L51.4586 57.5157L50.8431 57.5171L50.2253 57.5162L49.6098 57.5175L48.9921 57.519L48.3767 57.5203L47.7588 57.5194L47.1433 57.5207L46.5256 57.5222L45.9102 57.5235L45.2923 57.5226L44.6769 57.5239L44.0591 57.5254L43.4437 57.5267L42.8258 57.5258L42.2104 57.5271L41.4738 57.529L40.9772 57.5299L40.3593 57.529L39.6227 57.5309L39.1261 57.5318L38.5106 57.5307L37.8928 57.5322L37.2751 57.5337L36.6597 57.535L36.0441 57.5339L35.4263 57.5354L34.8086 57.5369L34.1932 57.5382L33.5753 57.5373L32.9599 57.5386L32.3421 57.5401L31.7267 57.5414L31.1088 57.5405L30.4934 57.5418L29.8756 57.5433L29.2601 57.5422L28.6423 57.5437L28.0269 57.545L27.4091 57.5465L26.7936 57.5454L26.1758 57.5469L25.5604 57.5482L24.9427 57.5497L24.3271 57.5486L23.7093 57.5501L23.0939 57.5514L22.3571 57.551L21.8606 57.5518L21.2429 57.5533L20.5086 57.5551L20.0097 57.5561L19.3941 57.555L18.7764 57.5565L18.1609 57.5578L17.5431 57.5569L16.9276 57.5582L16.3099 57.5597L15.6921 57.5612L15.0766 57.5601L14.4611 57.5615L13.7245 57.5634L13.2257 57.5644L12.6101 57.5633L11.9923 57.5648L11.3769 57.5661L10.6401 57.5657L10.6403 57.7172L11.3771 57.7176Z" fill="#A5A4A4"/>
<path d="M11.2625 62.8364L11.878 62.8374L12.4958 62.8359L13.1112 62.8346L13.729 62.8332L14.3445 62.8342L15.0811 62.8323L15.5777 62.8314L16.1954 62.83L16.811 62.831L17.4288 62.8295L18.0442 62.8282L18.6621 62.8291L19.2775 62.8278L19.8952 62.8263L20.513 62.8249L21.1286 62.8259L21.7463 62.8244L22.3617 62.8231L22.9795 62.8217L23.7139 62.8222L24.2128 62.8212L24.8282 62.8199L25.565 62.8203L26.0615 62.8195L26.6793 62.818L27.2947 62.8167L27.9124 62.8153L28.528 62.8163L29.1458 62.8148L29.7612 62.8135L30.3791 62.8144L30.9945 62.8131L31.6122 62.8116L32.2277 62.8103L32.8456 62.8112L33.461 62.8099L34.1976 62.808L34.6942 62.8071L35.312 62.808L35.9275 62.8067L36.5452 62.8052L37.1606 62.8039L37.7785 62.8048L38.394 62.8035L39.0117 62.802L39.6273 62.8031L40.245 62.8016L40.8604 62.8003L41.4782 62.7988L42.0961 62.7997L42.8304 62.7979L43.3292 62.7969L43.9447 62.7956L44.5626 62.7965L45.178 62.7952L45.7957 62.7937L46.4112 62.7924L47.029 62.7933L47.6445 62.792L48.3811 62.7901L48.8776 62.7892L49.4955 62.7901L50.111 62.7888L50.7287 62.7873L51.4631 62.7879L51.962 62.7869L52.5774 62.7856L53.3141 62.7837L53.8108 62.7851L54.4285 62.7837L55.0439 62.7824L55.6617 62.7809L56.2772 62.7819L56.895 62.7805L57.5104 62.7792L58.1282 62.7777L58.7437 62.7787L59.3615 62.7773L60.0981 62.7754L60.5948 62.7769L61.2102 62.7755L61.828 62.7741L62.5646 62.7722L63.0613 62.7737L63.679 62.7722L64.2944 62.7709L65.0312 62.7713L65.5278 62.7704L66.1455 62.769L66.7609 62.7677L67.4977 62.7681L67.9942 62.7672L68.7309 62.7653L69.2274 62.7645L69.8452 62.763L70.5796 62.7636L71.0785 62.7626L71.6939 62.7613L72.4307 62.7617L72.4305 62.6102L71.8127 62.6116L71.0783 62.6111L70.5794 62.612L69.964 62.6134L69.3462 62.6148L68.7307 62.6138L68.1129 62.6152L67.4975 62.6166L66.8796 62.6157L66.2642 62.617L65.6464 62.6185L65.031 62.6198L64.4131 62.6189L63.7977 62.6202L63.18 62.6217L62.5645 62.623L61.9466 62.6221L61.3312 62.6234L60.7135 62.6249L60.0981 62.6262L59.4802 62.6253L58.8624 62.6267L58.247 62.6281L57.6292 62.6295L57.0137 62.6285L56.3959 62.6299L55.7805 62.6313L55.1626 62.6304L54.5472 62.6317L53.8106 62.6336L53.314 62.6345L52.6961 62.6336L51.9618 62.6354L51.463 62.6364L50.8475 62.6377L50.2296 62.6368L49.6142 62.6381L48.9965 62.6396L48.3811 62.6409L47.7632 62.64L47.1477 62.6413L46.53 62.6428L45.9144 62.6417L45.1778 62.6437L44.6813 62.6445L44.0635 62.646L43.4479 62.6449L42.8302 62.6464L42.2148 62.6477L41.597 62.6492L40.9815 62.6481L40.3637 62.6496L39.7483 62.6509L39.1305 62.6524L38.515 62.6513L37.8972 62.6528L37.2795 62.6543L36.622 62.6535L35.9273 62.6552L35.4307 62.656L34.6941 62.6579L34.1974 62.6564L33.4608 62.6584L32.9643 62.6592L32.3465 62.6607L31.7309 62.6596L30.9943 62.6616L30.4978 62.6624L29.88 62.6639L29.2645 62.6628L28.6467 62.6643L28.0313 62.6656L27.4135 62.6671L26.798 62.666L26.0613 62.668L25.5648 62.6688L24.9469 62.6679L24.2126 62.6697L23.7137 62.6707L23.0983 62.672L22.4804 62.6711L21.7461 62.6729L21.2473 62.6739L20.6318 62.6752L20.0139 62.6743L19.2773 62.6763L18.7808 62.6771L18.1653 62.6784L17.5055 62.6778L16.8108 62.6795L16.3143 62.6803L15.6965 62.6818L15.081 62.6807L14.3443 62.6827L13.8478 62.6835L13.2299 62.6826L12.4956 62.6844L11.8779 62.6859L11.3813 62.6867L10.6445 62.6863L10.6447 62.8378L11.2625 62.8364Z" fill="#A5A4A4"/>
<path d="M11.2708 67.9548L12.0052 67.9553L12.5041 67.9544L13.1195 67.953L13.7373 67.9516L14.4717 67.9521L14.9706 67.9511L15.586 67.9498L16.2037 67.9484L16.9405 67.9488L17.4371 67.948L18.0525 67.9466L18.6702 67.9452L19.407 67.9456L19.9035 67.9447L20.6402 67.9428L21.1367 67.942L21.7523 67.943L22.37 67.9415L22.9878 67.9401L23.6032 67.9388L24.2211 67.9397L24.8365 67.9383L25.4543 67.9369L26.0698 67.9379L26.6876 67.9365L27.303 67.9351L27.9207 67.9337L28.5363 67.9347L29.1541 67.9333L29.7695 67.9319L30.3872 67.9305L31.1217 67.931L31.6205 67.93L32.236 67.9287L32.8537 67.9273L33.4693 67.9283L34.087 67.9268L34.7025 67.9255L35.3203 67.9264L35.9358 67.9251L36.5535 67.9236L37.1689 67.9223L37.9057 67.9227L38.4023 67.9219L39.02 67.9204L39.7568 67.9208L40.2533 67.92L40.8687 67.9187L41.4865 67.9172L42.1042 67.9158L42.7198 67.9168L43.3375 67.9153L43.953 67.914L44.5707 67.9126L45.1863 67.9136L45.804 67.9121L46.5383 67.9104L47.0373 67.9117L47.6528 67.9104L48.2705 67.9089L48.8859 67.9076L49.5038 67.9085L50.1193 67.9072L50.737 67.9057L51.3524 67.9044L51.9703 67.9053L52.5857 67.904L53.2035 67.9025L53.8189 67.9012L54.4368 67.9021L55.0522 67.9008L55.67 67.8993L56.2855 67.9004L57.0222 67.8984L57.5187 67.8976L58.1365 67.8961L58.752 67.8972L59.3698 67.8957L59.9852 67.8944L60.6029 67.8929L61.2185 67.894L61.8363 67.8925L62.4517 67.8912L63.0694 67.8897L63.6873 67.8906L64.3027 67.8893L64.9205 67.8878L65.6549 67.8884L66.1538 67.8874L66.7692 67.8861L67.387 67.8846L68.0025 67.8857L68.6203 67.8842L69.2357 67.8829L69.8535 67.8814L70.469 67.8825L71.0868 67.881L71.7022 67.8797L72.439 67.8801L72.4388 67.7286L71.702 67.7282L71.2055 67.729L70.5877 67.7305L69.9723 67.7318L69.2355 67.7314L68.739 67.7322L68.0024 67.7341L67.5058 67.735L66.8879 67.7341L66.1536 67.7359L65.6548 67.7369L64.918 67.7365L64.4214 67.7373L63.806 67.7386L63.1883 67.7401L62.4515 67.7397L61.955 67.7405L61.3395 67.7418L60.7218 67.7433L59.985 67.7429L59.3696 67.7442L58.8707 67.7452L58.2553 67.7465L57.5185 67.7461L57.022 67.7469L56.4042 67.7484L55.7888 67.7497L55.052 67.7493L54.5555 67.7501L53.9377 67.7516L53.2033 67.751L52.5856 67.7525L52.089 67.7533L51.4713 67.7548L50.7368 67.7542L50.1191 67.7557L49.6225 67.7565L48.9628 67.7583L48.2703 67.7574L47.7715 67.7584L47.156 67.7597L46.5383 67.7612L45.8038 67.7606L45.305 67.7616L44.6896 67.7629L44.0718 67.7644L43.335 67.764L42.8385 67.7648L42.2231 67.7661L41.4863 67.7657L40.8686 67.7672L40.2531 67.7685L39.7566 67.7693L39.0198 67.7689L38.4021 67.7704L37.9055 67.7712L37.2878 67.7727L36.6722 67.7716L35.9356 67.7736L35.439 67.7744L34.8213 67.7759L34.2057 67.7748L33.4691 67.7768L32.9726 67.7776L32.3548 67.7791L31.7392 67.7781L31.6623 67.7782L31.6204 67.7785L31.0026 67.78L30.5061 67.7808L29.7693 67.7804L29.1539 67.7817L28.655 67.7827L28.0396 67.784L27.3028 67.7836L26.6874 67.7849L26.1885 67.7859L25.5731 67.7872L24.9552 67.7863L24.2209 67.7881L23.722 67.7891L23.0622 67.7885L22.4887 67.7896L21.7521 67.7915L21.1367 67.7928L20.64 67.7913L20.0222 67.7928L19.2856 67.7947L18.7891 67.7955L18.1735 67.7945L17.5558 67.7959L16.8191 67.7979L16.3226 67.7987L15.5858 67.7983L15.0893 67.7992L14.3526 67.8011L13.8561 67.8019L13.2382 67.801L12.6228 67.8024L11.8862 67.8043L11.3896 67.8051L10.6528 67.8047L10.653 67.9562L11.2708 67.9548Z" fill="#A5A4A4"/>
<path d="M71.8255 72.9993L72.4432 72.9979L72.4432 72.8487L71.7064 72.8483L71.2099 72.8491L70.4732 72.851L69.9767 72.8519L69.2399 72.8515L68.7434 72.8523L68.0068 72.8542L67.3912 72.8532L66.8923 72.8542L66.2769 72.8555L65.6591 72.857L64.9224 72.8566L64.4258 72.8574L63.8104 72.8587L63.1927 72.8602L63.1157 72.8603L63.0736 72.8583L62.4559 72.8598L61.9593 72.8606L61.3439 72.8619L60.7262 72.8634L59.9894 72.863L59.4929 72.8638L58.7562 72.8657L58.2595 72.8643L57.5229 72.8662L57.0264 72.867L56.2898 72.8689L55.7931 72.8675L55.0564 72.8694L54.5156 72.8707L53.9421 72.8717L53.3266 72.8707L52.59 72.8726L52.0934 72.8734L51.4757 72.8749L50.8601 72.8739L50.1235 72.8758L49.6269 72.8766L49.0092 72.8781L48.2747 72.8775L47.7759 72.8785L47.0416 72.8803L46.5425 72.879L45.8082 72.8807L45.3094 72.8817L44.5751 72.8835L44.0761 72.8822L43.3394 72.8841L42.8429 72.8849L42.2275 72.8862L41.6096 72.8854L40.8729 72.8873L40.3764 72.8881L39.7587 72.8896L39.1431 72.8886L38.4065 72.8905L37.9099 72.8913L37.292 72.8905L37.2174 72.8905L37.1731 72.8909L36.6766 72.8918L35.94 72.8937L35.4015 72.8948L34.8255 72.8937L34.2101 72.895L33.4735 72.8969L32.8579 72.8959L32.8581 72.8982L32.3591 72.8969L31.7436 72.8982L31.007 72.9001L30.5105 72.9009L29.8926 72.9001L29.1583 72.9018L28.6594 72.9028L28.044 72.9041L27.4261 72.9033L26.6918 72.905L26.1929 72.906L25.5773 72.905L24.9596 72.9065L24.2253 72.9082L23.7264 72.9092L23.1109 72.9082L22.4931 72.9097L21.7565 72.9116L21.1409 72.9106L20.6444 72.9114L19.9078 72.9133L19.29 72.9148L18.6744 72.9138L18.1779 72.9146L18.101 72.9148L18.0567 72.9152L17.5601 72.9161L16.8235 72.918L16.327 72.9188L15.7091 72.918L15.0937 72.9193L14.357 72.9212L13.8603 72.9197L13.2426 72.9212L12.6272 72.9225L11.8906 72.9244L11.3939 72.9229L10.6572 72.9248L10.6574 73.0764L11.2752 73.0749L12.0095 73.0731L12.5085 73.0745L13.2428 73.0727L13.7417 73.0717L14.4761 73.0723L14.975 73.0713L15.5904 73.07L15.6673 73.0698L15.7093 73.0695L16.2081 73.0685L16.9449 73.0689L17.4834 73.0678L18.0569 73.0668L18.6746 73.0653L19.4114 73.0657L19.9079 73.0649L20.5234 73.0636L21.1411 73.0621L21.8779 73.0625L22.4933 73.0612L22.9922 73.0602L23.6076 73.0589L24.3444 73.0593L24.9598 73.058L25.4587 73.057L26.1931 73.0576L26.8108 73.0561L27.3074 73.0553L27.9251 73.0538L28.5406 73.0525L29.2773 73.0529L29.7739 73.0521L30.3916 73.0506L31.1261 73.0512L31.6249 73.0502L32.2404 73.0489L32.977 73.0469L33.5926 73.048L34.2103 73.0465L34.7068 73.0457L34.7838 73.0455L34.8257 73.0452L35.3246 73.0442L36.059 73.0448L36.6768 73.0433L37.1733 73.0425L37.7911 73.041L38.5278 73.0414L39.0244 73.0406L39.6398 73.0393L40.2576 73.0378L40.9943 73.0382L41.4909 73.0374L42.1086 73.0359L42.7242 73.0369L43.4608 73.035L43.9574 73.0342L44.5751 73.0327L45.1907 73.0337L45.9273 73.0318L46.4238 73.031L47.0416 73.0295L47.6572 73.0305L48.3938 73.0286L48.8903 73.0278L49.5081 73.0263L50.2425 73.0269L50.7414 73.0259L51.3568 73.0246L52.0936 73.025L52.709 73.0236L53.2079 73.0227L53.9422 73.0209L54.4412 73.0222L55.1755 73.0204L55.6744 73.0195L56.2898 73.0181L56.9077 73.019L57.642 73.0173L58.1408 73.0163L58.7563 73.0149L59.3742 73.0158L60.1108 73.0139L60.6073 73.0131L60.6843 73.0129L60.7262 73.0126L61.2228 73.0118L61.8406 73.0126L62.5773 73.0107L63.0738 73.0099L63.6894 73.0109L64.3071 73.0094L64.9226 73.0081L65.5403 73.0067L66.1582 73.0075L66.7736 73.0062L67.3914 73.0048L68.0068 73.0034L68.6247 73.0043L69.359 73.0025L69.8578 73.0016L70.4733 73.0003L71.21 73.0007L71.8255 72.9993Z" fill="#A5A4A4"/>
<g opacity="0.8">
<path d="M27.3556 6.94636C26.8726 6.23293 26.285 5.60067 25.7977 4.8945C25.6209 4.63981 25.3695 4.31285 25.2448 3.9966L0.976917 20.4638C1.51087 20.8733 1.98253 21.8136 2.27684 22.2311C3.20319 23.5439 4.12969 24.859 5.00467 26.2076L29.2053 9.78427C28.4498 8.96437 27.9878 7.88125 27.3556 6.94636Z" fill="#FFE16F"/>
<path d="M25.0689 4.72019L1.75377 20.5409C1.89599 20.7158 2.02383 20.9006 2.13514 21.0707C2.24151 21.2333 2.34099 21.3957 2.42841 21.5383C2.43601 21.5508 2.44352 21.563 2.45094 21.5751C2.54688 21.7316 2.62283 21.8541 2.68537 21.9428L25.0689 4.72019ZM25.0689 4.72019C25.1531 4.85049 25.2381 4.96981 25.3086 5.06875C25.3373 5.10911 25.3637 5.14607 25.3866 5.179C25.6329 5.53593 25.9023 5.87292 26.1593 6.19441L26.1877 6.22989C26.4572 6.56709 26.7128 6.88877 26.9416 7.2267C27.1614 7.55168 27.3559 7.88913 27.5604 8.24386C27.6393 8.3807 27.7197 8.52011 27.8035 8.66237C28.0038 9.00213 28.2197 9.34976 28.469 9.6797M25.0689 4.72019L28.469 9.6797M28.469 9.6797L5.14465 25.5084C4.3472 24.2995 3.5138 23.1168 2.68551 21.943L28.469 9.6797Z" stroke="black" stroke-opacity="0.4"/>
</g>
</svg>
