<svg width="73" height="76" viewBox="0 0 73 76" fill="none" xmlns="http://www.w3.org/2000/svg">
<g style="mix-blend-mode:multiply">
<path d="M4.66444 7.82189L4.6691 63.7687L14.1178 72.7734L69.2784 72.7681L69.2698 7.81435L4.66444 7.82189Z" fill="#CFD1D3"/>
<path d="M4.66444 7.82189L4.6691 63.7687L14.1178 72.7734L69.2784 72.7681L69.2698 7.81435L4.66444 7.82189Z" stroke="#231815" stroke-opacity="0.4" stroke-miterlimit="10"/>
</g>
<path d="M68.1194 6.75344L3.51405 6.76098L3.51871 62.7078L12.9674 71.7125L68.128 71.7072L68.1194 6.75344Z" fill="#FFE16F" stroke="#231815" stroke-opacity="0.4" stroke-miterlimit="10"/>
<path d="M12.9687 71.7126L3.52002 62.708L12.967 62.7078L12.9687 71.7126Z" fill="#EDE5C7" stroke="#231815" stroke-opacity="0.4" stroke-miterlimit="10"/>
<g opacity="0.8">
<path d="M58.7593 2.0579L26.6299 1.80015C26.5603 2.29587 26.4281 2.82753 26.4084 3.09251C26.27 4.89182 26.2711 6.70074 26.4043 8.49961L59.0239 8.76091C58.961 7.26758 58.9002 5.77194 58.8682 4.2773C58.8531 3.6054 58.7417 2.79555 58.7615 2.05781L58.7593 2.0579Z" fill="#92A6B1" stroke="#231815" stroke-opacity="0.4" stroke-miterlimit="10"/>
</g>
</svg>
