<svg width="90" height="83" viewBox="0 0 90 83" fill="none" xmlns="http://www.w3.org/2000/svg">
<g style="mix-blend-mode:multiply">
<path d="M80.8657 7.95069L13.1211 8.04065L13.2774 76.1397L81.022 76.0497L80.8657 7.95069Z" fill="#D9D9D9"/>
</g>
<path d="M79.6054 6.90186L11.8608 6.99182L12.0172 75.0908L79.7617 75.0009L79.6054 6.90186Z" fill="#FDFDF9"/>
<path d="M12.362 7.49116L79.1066 7.40252L79.2606 74.5015L12.516 74.5902L12.362 7.49116Z" stroke="black" stroke-opacity="0.4"/>
<path d="M17.4878 15.2193C17.4327 15.2758 17.3656 15.3031 17.289 15.3033C17.2123 15.3035 17.1446 15.2748 17.0883 15.2194C17.032 15.1639 17.0047 15.0964 17.0045 15.0194C17.0042 14.9423 17.0327 14.8743 17.0878 14.8177C17.1429 14.7612 17.21 14.7339 17.2867 14.7337C17.3633 14.7335 17.431 14.7622 17.4873 14.8177C17.5436 14.8731 17.5709 14.9406 17.5711 15.0176C17.5714 15.0947 17.5429 15.1627 17.4878 15.2193Z" fill="#D9D9D9"/>
<path d="M21.062 15.2137C21.0069 15.2702 20.9398 15.2975 20.8632 15.2977C20.7865 15.2979 20.7188 15.2692 20.6625 15.2137C20.6062 15.1583 20.579 15.0908 20.5787 15.0138C20.5785 14.9367 20.6069 14.8687 20.662 14.8121C20.7171 14.7556 20.7843 14.7283 20.8609 14.7281C20.9375 14.7279 21.0053 14.7566 21.0616 14.812C21.1179 14.8675 21.1451 14.935 21.1453 15.012C21.1456 15.0891 21.1171 15.1571 21.062 15.2137Z" fill="#D9D9D9"/>
<path d="M24.6343 15.2082C24.5792 15.2647 24.5121 15.292 24.4354 15.2922C24.3588 15.2924 24.2911 15.2637 24.2348 15.2082C24.1785 15.1528 24.1512 15.0853 24.151 15.0083C24.1507 14.9312 24.1792 14.8632 24.2343 14.8066C24.2894 14.7501 24.3565 14.7228 24.4332 14.7226C24.5098 14.7224 24.5775 14.7511 24.6338 14.8065C24.6901 14.862 24.7174 14.9295 24.7176 15.0065C24.7179 15.0836 24.6894 15.1516 24.6343 15.2082Z" fill="#D9D9D9"/>
<path d="M28.209 15.2024C28.1539 15.259 28.0868 15.2863 28.0101 15.2865C27.9335 15.2866 27.8658 15.258 27.8095 15.2025C27.7532 15.1471 27.7259 15.0796 27.7257 15.0025C27.7254 14.9255 27.7539 14.8574 27.809 14.8009C27.8641 14.7443 27.9312 14.717 28.0079 14.7169C28.0845 14.7167 28.1522 14.7454 28.2085 14.8008C28.2648 14.8562 28.2921 14.9238 28.2923 15.0008C28.2926 15.0778 28.2641 15.1459 28.209 15.2024Z" fill="#D9D9D9"/>
<path d="M31.7808 15.1969C31.7257 15.2535 31.6586 15.2808 31.5819 15.281C31.5053 15.2811 31.4376 15.2525 31.3812 15.197C31.3249 15.1416 31.2977 15.0741 31.2975 14.997C31.2972 14.92 31.3257 14.8519 31.3808 14.7954C31.4359 14.7389 31.503 14.7115 31.5796 14.7114C31.6563 14.7112 31.724 14.7399 31.7803 14.7953C31.8366 14.8508 31.8638 14.9183 31.8641 14.9953C31.8643 15.0723 31.8359 15.1404 31.7808 15.1969Z" fill="#D9D9D9"/>
<path d="M35.3555 15.1935C35.3004 15.2501 35.2333 15.2774 35.1566 15.2775C35.08 15.2777 35.0123 15.249 34.956 15.1936C34.8997 15.1382 34.8724 15.0707 34.8722 14.9936C34.8719 14.9166 34.9004 14.8485 34.9555 14.792C35.0106 14.7354 35.0777 14.7081 35.1543 14.7079C35.231 14.7078 35.2987 14.7365 35.355 14.7919C35.4113 14.8473 35.4386 14.9148 35.4388 14.9919C35.4391 15.0689 35.4106 15.137 35.3555 15.1935Z" fill="#D9D9D9"/>
<path d="M38.9278 15.188C38.8727 15.2446 38.8055 15.2719 38.7289 15.2721C38.6523 15.2722 38.5845 15.2435 38.5282 15.1881C38.4719 15.1327 38.4447 15.0652 38.4444 14.9881C38.4442 14.9111 38.4727 14.843 38.5278 14.7865C38.5828 14.7299 38.65 14.7026 38.7266 14.7025C38.8033 14.7023 38.871 14.731 38.9273 14.7864C38.9836 14.8418 39.0108 14.9094 39.0111 14.9864C39.0113 15.0634 38.9829 15.1315 38.9278 15.188Z" fill="#D9D9D9"/>
<path d="M42.502 15.1823C42.4469 15.2388 42.3798 15.2661 42.3031 15.2663C42.2265 15.2665 42.1587 15.2378 42.1024 15.1824C42.0461 15.1269 42.0189 15.0594 42.0187 14.9824C42.0184 14.9053 42.0469 14.8373 42.102 14.7807C42.1571 14.7242 42.2242 14.6969 42.3008 14.6967C42.3775 14.6965 42.4452 14.7252 42.5015 14.7807C42.5578 14.8361 42.585 14.9036 42.5853 14.9807C42.5855 15.0577 42.5571 15.1258 42.502 15.1823Z" fill="#D9D9D9"/>
<path d="M46.0742 15.1768C46.0191 15.2333 45.952 15.2606 45.8754 15.2608C45.7987 15.261 45.731 15.2323 45.6747 15.1769C45.6184 15.1214 45.5912 15.0539 45.5909 14.9769C45.5907 14.8998 45.6191 14.8318 45.6742 14.7753C45.7293 14.7187 45.7965 14.6914 45.8731 14.6912C45.9497 14.691 46.0175 14.7197 46.0738 14.7752C46.1301 14.8306 46.1573 14.8981 46.1576 14.9752C46.1578 15.0522 46.1293 15.1203 46.0742 15.1768Z" fill="#D9D9D9"/>
<path d="M49.6489 15.1735C49.5939 15.23 49.5267 15.2573 49.4501 15.2575C49.3734 15.2577 49.3057 15.229 49.2494 15.1736C49.1931 15.1181 49.1659 15.0506 49.1656 14.9736C49.1654 14.8966 49.1938 14.8285 49.2489 14.772C49.304 14.7154 49.3712 14.6881 49.4478 14.6879C49.5244 14.6878 49.5922 14.7164 49.6485 14.7719C49.7048 14.8273 49.732 14.8948 49.7323 14.9719C49.7325 15.0489 49.704 15.117 49.6489 15.1735Z" fill="#D9D9D9"/>
<path d="M53.2212 15.168C53.1661 15.2245 53.099 15.2519 53.0223 15.252C52.9457 15.2522 52.878 15.2235 52.8217 15.1681C52.7654 15.1126 52.7381 15.0451 52.7379 14.9681C52.7376 14.8911 52.7661 14.823 52.8212 14.7665C52.8763 14.7099 52.9434 14.6826 53.0201 14.6824C53.0967 14.6823 53.1644 14.7109 53.2207 14.7664C53.277 14.8218 53.3043 14.8893 53.3045 14.9664C53.3048 15.0434 53.2763 15.1115 53.2212 15.168Z" fill="#D9D9D9"/>
<path d="M56.7954 15.1623C56.7403 15.2188 56.6732 15.2461 56.5966 15.2463C56.5199 15.2465 56.4522 15.2178 56.3959 15.1623C56.3396 15.1069 56.3124 15.0394 56.3121 14.9624C56.3119 14.8853 56.3403 14.8173 56.3954 14.7607C56.4505 14.7042 56.5177 14.6769 56.5943 14.6767C56.6709 14.6765 56.7387 14.7052 56.795 14.7606C56.8513 14.8161 56.8785 14.8836 56.8787 14.9606C56.879 15.0377 56.8505 15.1057 56.7954 15.1623Z" fill="#D9D9D9"/>
<path d="M60.3677 15.1568C60.3126 15.2133 60.2455 15.2406 60.1688 15.2408C60.0922 15.241 60.0245 15.2123 59.9682 15.1569C59.9119 15.1014 59.8846 15.0339 59.8844 14.9569C59.8841 14.8798 59.9126 14.8118 59.9677 14.7552C60.0228 14.6987 60.0899 14.6714 60.1666 14.6712C60.2432 14.671 60.3109 14.6997 60.3672 14.7552C60.4235 14.8106 60.4508 14.8781 60.451 14.9551C60.4513 15.0322 60.4228 15.1002 60.3677 15.1568Z" fill="#D9D9D9"/>
<path d="M63.9424 15.1534C63.8873 15.2099 63.8202 15.2372 63.7435 15.2374C63.6669 15.2376 63.5992 15.2089 63.5429 15.1534C63.4866 15.098 63.4593 15.0305 63.4591 14.9534C63.4588 14.8764 63.4873 14.8084 63.5424 14.7518C63.5975 14.6953 63.6646 14.668 63.7413 14.6678C63.8179 14.6676 63.8856 14.6963 63.9419 14.7517C63.9982 14.8072 64.0255 14.8747 64.0257 14.9517C64.026 15.0288 63.9975 15.0968 63.9424 15.1534Z" fill="#D9D9D9"/>
<path d="M67.5147 15.1479C67.4596 15.2044 67.3924 15.2317 67.3158 15.2319C67.2392 15.2321 67.1714 15.2034 67.1151 15.1479C67.0588 15.0925 67.0316 15.025 67.0314 14.948C67.0311 14.8709 67.0596 14.8029 67.1147 14.7463C67.1698 14.6898 67.2369 14.6625 67.3135 14.6623C67.3902 14.6621 67.4579 14.6908 67.5142 14.7462C67.5705 14.8017 67.5977 14.8692 67.598 14.9462C67.5982 15.0233 67.5698 15.0913 67.5147 15.1479Z" fill="#D9D9D9"/>
<path d="M71.0889 15.1421C71.0338 15.1987 70.9667 15.226 70.89 15.2262C70.8134 15.2263 70.7457 15.1976 70.6894 15.1422C70.6331 15.0868 70.6058 15.0193 70.6056 14.9422C70.6053 14.8652 70.6338 14.7971 70.6889 14.7406C70.744 14.684 70.8111 14.6567 70.8878 14.6566C70.9644 14.6564 71.0321 14.6851 71.0884 14.7405C71.1447 14.7959 71.172 14.8635 71.1722 14.9405C71.1725 15.0175 71.144 15.0856 71.0889 15.1421Z" fill="#D9D9D9"/>
<path d="M74.6612 15.1368C74.6061 15.1933 74.5389 15.2206 74.4623 15.2208C74.3856 15.221 74.3179 15.1923 74.2616 15.1368C74.2053 15.0814 74.1781 15.0139 74.1778 14.9368C74.1776 14.8598 74.2061 14.7918 74.2612 14.7352C74.3162 14.6787 74.3834 14.6514 74.46 14.6512C74.5367 14.651 74.6044 14.6797 74.6607 14.7351C74.717 14.7906 74.7442 14.8581 74.7445 14.9351C74.7447 15.0122 74.7163 15.0802 74.6612 15.1368Z" fill="#D9D9D9"/>
<path d="M17.503 21.0304C17.4479 21.087 17.3807 21.1143 17.3041 21.1145C17.2274 21.1146 17.1597 21.086 17.1034 21.0305C17.0471 20.9751 17.0199 20.9076 17.0196 20.8305C17.0194 20.7535 17.0478 20.6854 17.1029 20.6289C17.158 20.5723 17.2252 20.545 17.3018 20.5449C17.3785 20.5447 17.4462 20.5734 17.5025 20.6288C17.5588 20.6843 17.586 20.7518 17.5863 20.8288C17.5865 20.9058 17.5581 20.9739 17.503 21.0304Z" fill="#D9D9D9"/>
<path d="M21.0747 21.0249C21.0196 21.0815 20.9525 21.1088 20.8759 21.109C20.7992 21.1091 20.7315 21.0805 20.6752 21.025C20.6189 20.9696 20.5917 20.9021 20.5914 20.825C20.5912 20.748 20.6196 20.6799 20.6747 20.6234C20.7298 20.5669 20.7969 20.5395 20.8736 20.5394C20.9502 20.5392 21.018 20.5679 21.0743 20.6233C21.1306 20.6788 21.1578 20.7463 21.158 20.8233C21.1583 20.9003 21.1298 20.9684 21.0747 21.0249Z" fill="#D9D9D9"/>
<path d="M24.6494 21.0215C24.5943 21.0781 24.5272 21.1054 24.4506 21.1055C24.3739 21.1057 24.3062 21.077 24.2499 21.0216C24.1936 20.9662 24.1664 20.8987 24.1661 20.8216C24.1659 20.7446 24.1943 20.6765 24.2494 20.62C24.3045 20.5634 24.3717 20.5361 24.4483 20.536C24.5249 20.5358 24.5927 20.5645 24.649 20.6199C24.7053 20.6753 24.7325 20.7428 24.7328 20.8199C24.733 20.8969 24.7045 20.965 24.6494 21.0215Z" fill="#D9D9D9"/>
<path d="M28.2217 21.016C28.1666 21.0726 28.0995 21.0999 28.0228 21.1001C27.9462 21.1002 27.8785 21.0716 27.8222 21.0161C27.7659 20.9607 27.7386 20.8932 27.7384 20.8161C27.7381 20.7391 27.7666 20.671 27.8217 20.6145C27.8768 20.5579 27.9439 20.5306 28.0206 20.5305C28.0972 20.5303 28.1649 20.559 28.2212 20.6144C28.2775 20.6698 28.3048 20.7374 28.305 20.8144C28.3053 20.8914 28.2768 20.9595 28.2217 21.016Z" fill="#D9D9D9"/>
<path d="M31.7959 21.0104C31.7408 21.067 31.6737 21.0943 31.5971 21.0944C31.5204 21.0946 31.4527 21.0659 31.3964 21.0105C31.3401 20.9551 31.3129 20.8875 31.3126 20.8105C31.3124 20.7335 31.3408 20.6654 31.3959 20.6089C31.451 20.5523 31.5181 20.525 31.5948 20.5248C31.6714 20.5247 31.7392 20.5533 31.7955 20.6088C31.8518 20.6642 31.879 20.7317 31.8792 20.8088C31.8795 20.8858 31.851 20.9539 31.7959 21.0104Z" fill="#D9D9D9"/>
<path d="M35.3682 21.0049C35.3131 21.0615 35.246 21.0888 35.1693 21.0889C35.0927 21.0891 35.025 21.0604 34.9687 21.005C34.9124 20.9496 34.8851 20.8821 34.8849 20.805C34.8846 20.728 34.9131 20.6599 34.9682 20.6034C35.0233 20.5468 35.0904 20.5195 35.167 20.5194C35.2437 20.5192 35.3114 20.5479 35.3677 20.6033C35.424 20.6587 35.4512 20.7262 35.4515 20.8033C35.4518 20.8803 35.4233 20.9484 35.3682 21.0049Z" fill="#D9D9D9"/>
<path d="M38.9429 20.9992C38.8878 21.0557 38.8207 21.083 38.744 21.0832C38.6674 21.0834 38.5997 21.0547 38.5434 20.9993C38.4871 20.9438 38.4598 20.8763 38.4596 20.7993C38.4593 20.7222 38.4878 20.6542 38.5429 20.5976C38.598 20.5411 38.6651 20.5138 38.7418 20.5136C38.8184 20.5134 38.8861 20.5421 38.9424 20.5976C38.9987 20.653 39.026 20.7205 39.0262 20.7975C39.0265 20.8746 38.998 20.9426 38.9429 20.9992Z" fill="#D9D9D9"/>
<path d="M42.5152 20.996C42.4601 21.0526 42.3929 21.0799 42.3163 21.08C42.2397 21.0802 42.1719 21.0515 42.1156 20.9961C42.0593 20.9406 42.0321 20.8731 42.0318 20.7961C42.0316 20.7191 42.0601 20.651 42.1152 20.5945C42.1703 20.5379 42.2374 20.5106 42.314 20.5104C42.3907 20.5103 42.4584 20.5389 42.5147 20.5944C42.571 20.6498 42.5982 20.7173 42.5985 20.7944C42.5987 20.8714 42.5703 20.9395 42.5152 20.996Z" fill="#D9D9D9"/>
<path d="M46.0894 20.9903C46.0343 21.0468 45.9672 21.0741 45.8905 21.0743C45.8139 21.0745 45.7461 21.0458 45.6898 20.9904C45.6335 20.9349 45.6063 20.8674 45.6061 20.7904C45.6058 20.7133 45.6343 20.6453 45.6894 20.5887C45.7445 20.5322 45.8116 20.5049 45.8882 20.5047C45.9649 20.5045 46.0326 20.5332 46.0889 20.5886C46.1452 20.6441 46.1724 20.7116 46.1727 20.7886C46.1729 20.8657 46.1445 20.9337 46.0894 20.9903Z" fill="#D9D9D9"/>
<path d="M49.6616 20.9848C49.6065 21.0413 49.5394 21.0686 49.4628 21.0688C49.3861 21.069 49.3184 21.0403 49.2621 20.9849C49.2058 20.9294 49.1786 20.8619 49.1783 20.7849C49.1781 20.7078 49.2065 20.6398 49.2616 20.5832C49.3167 20.5267 49.3839 20.4994 49.4605 20.4992C49.5371 20.499 49.6049 20.5277 49.6612 20.5832C49.7175 20.6386 49.7447 20.7061 49.745 20.7831C49.7452 20.8602 49.7167 20.9282 49.6616 20.9848Z" fill="#D9D9D9"/>
<path d="M53.2364 20.979C53.1813 21.0356 53.1141 21.0629 53.0375 21.0631C52.9608 21.0632 52.8931 21.0346 52.8368 20.9791C52.7805 20.9237 52.7533 20.8562 52.753 20.7791C52.7528 20.7021 52.7812 20.634 52.8363 20.5775C52.8914 20.521 52.9586 20.4936 53.0352 20.4935C53.1118 20.4933 53.1796 20.522 53.2359 20.5774C53.2922 20.6329 53.3194 20.7004 53.3197 20.7774C53.3199 20.8544 53.2914 20.9225 53.2364 20.979Z" fill="#D9D9D9"/>
<path d="M56.8086 20.9759C56.7535 21.0324 56.6864 21.0597 56.6098 21.0599C56.5331 21.0601 56.4654 21.0314 56.4091 20.9759C56.3528 20.9205 56.3255 20.853 56.3253 20.776C56.325 20.6989 56.3535 20.6309 56.4086 20.5743C56.4637 20.5178 56.5308 20.4905 56.6075 20.4903C56.6841 20.4901 56.7518 20.5188 56.8081 20.5742C56.8644 20.6297 56.8917 20.6972 56.8919 20.7742C56.8922 20.8513 56.8637 20.9193 56.8086 20.9759Z" fill="#D9D9D9"/>
<path d="M60.3828 20.9703C60.3277 21.0268 60.2606 21.0541 60.184 21.0543C60.1073 21.0545 60.0396 21.0258 59.9833 20.9703C59.927 20.9149 59.8998 20.8474 59.8995 20.7703C59.8993 20.6933 59.9277 20.6252 59.9828 20.5687C60.0379 20.5122 60.1051 20.4849 60.1817 20.4847C60.2583 20.4845 60.3261 20.5132 60.3824 20.5686C60.4387 20.6241 60.4659 20.6916 60.4661 20.7686C60.4664 20.8457 60.4379 20.9137 60.3828 20.9703Z" fill="#D9D9D9"/>
<path d="M63.9551 20.9648C63.9 21.0213 63.8329 21.0486 63.7562 21.0488C63.6796 21.049 63.6119 21.0203 63.5556 20.9648C63.4993 20.9094 63.472 20.8419 63.4718 20.7649C63.4715 20.6878 63.5 20.6198 63.5551 20.5632C63.6102 20.5067 63.6773 20.4794 63.754 20.4792C63.8306 20.479 63.8983 20.5077 63.9546 20.5631C64.0109 20.6186 64.0382 20.6861 64.0384 20.7631C64.0387 20.8402 64.0102 20.9082 63.9551 20.9648Z" fill="#D9D9D9"/>
<path d="M67.5293 20.959C67.4742 21.0156 67.4071 21.0429 67.3305 21.043C67.2538 21.0432 67.1861 21.0145 67.1298 20.9591C67.0735 20.9037 67.0463 20.8362 67.046 20.7591C67.0458 20.6821 67.0742 20.614 67.1293 20.5575C67.1844 20.5009 67.2515 20.4736 67.3282 20.4735C67.4048 20.4733 67.4725 20.502 67.5288 20.5574C67.5851 20.6128 67.6124 20.6803 67.6126 20.7574C67.6129 20.8344 67.5844 20.9025 67.5293 20.959Z" fill="#D9D9D9"/>
<path d="M71.1021 20.9559C71.047 21.0124 70.9799 21.0397 70.9032 21.0399C70.8266 21.0401 70.7588 21.0114 70.7025 20.9559C70.6462 20.9005 70.619 20.833 70.6188 20.7559C70.6185 20.6789 70.647 20.6108 70.7021 20.5543C70.7572 20.4978 70.8243 20.4705 70.9009 20.4703C70.9776 20.4701 71.0453 20.4988 71.1016 20.5542C71.1579 20.6097 71.1851 20.6772 71.1854 20.7542C71.1856 20.8313 71.1572 20.8993 71.1021 20.9559Z" fill="#D9D9D9"/>
<path d="M74.6763 20.9501C74.6212 21.0067 74.5541 21.034 74.4774 21.0341C74.4008 21.0343 74.3331 21.0056 74.2768 20.9502C74.2205 20.8948 74.1932 20.8272 74.193 20.7502C74.1927 20.6732 74.2212 20.6051 74.2763 20.5486C74.3314 20.492 74.3985 20.4647 74.4751 20.4645C74.5518 20.4644 74.6195 20.493 74.6758 20.5485C74.7321 20.6039 74.7594 20.6714 74.7596 20.7485C74.7599 20.8255 74.7314 20.8936 74.6763 20.9501Z" fill="#D9D9D9"/>
<path d="M17.5156 26.8442C17.4606 26.9007 17.3934 26.928 17.3168 26.9282C17.2401 26.9284 17.1724 26.8997 17.1161 26.8442C17.0598 26.7888 17.0326 26.7213 17.0323 26.6442C17.0321 26.5672 17.0605 26.4991 17.1156 26.4426C17.1707 26.3861 17.2379 26.3588 17.3145 26.3586C17.3911 26.3584 17.4589 26.3871 17.5152 26.4425C17.5715 26.498 17.5987 26.5655 17.599 26.6425C17.5992 26.7196 17.5707 26.7876 17.5156 26.8442Z" fill="#D9D9D9"/>
<path d="M21.0899 26.8384C21.0348 26.895 20.9676 26.9223 20.891 26.9224C20.8144 26.9226 20.7466 26.8939 20.6903 26.8385C20.634 26.7831 20.6068 26.7155 20.6065 26.6385C20.6063 26.5615 20.6348 26.4934 20.6899 26.4369C20.745 26.3803 20.8121 26.353 20.8887 26.3528C20.9654 26.3527 21.0331 26.3814 21.0894 26.4368C21.1457 26.4922 21.1729 26.5597 21.1732 26.6368C21.1734 26.7138 21.145 26.7819 21.0899 26.8384Z" fill="#D9D9D9"/>
<path d="M24.6621 26.8329C24.607 26.8895 24.5399 26.9168 24.4633 26.917C24.3866 26.9171 24.3189 26.8884 24.2626 26.833C24.2063 26.7776 24.1791 26.7101 24.1788 26.633C24.1786 26.556 24.207 26.4879 24.2621 26.4314C24.3172 26.3748 24.3844 26.3475 24.461 26.3474C24.5376 26.3472 24.6054 26.3759 24.6617 26.4313C24.718 26.4867 24.7452 26.5542 24.7454 26.6313C24.7457 26.7083 24.7172 26.7764 24.6621 26.8329Z" fill="#D9D9D9"/>
<path d="M28.2368 26.8272C28.1817 26.8837 28.1146 26.911 28.038 26.9112C27.9613 26.9114 27.8936 26.8827 27.8373 26.8273C27.781 26.7718 27.7538 26.7043 27.7535 26.6273C27.7533 26.5502 27.7817 26.4822 27.8368 26.4256C27.8919 26.3691 27.9591 26.3418 28.0357 26.3416C28.1123 26.3414 28.1801 26.3701 28.2364 26.4256C28.2927 26.481 28.3199 26.5485 28.3202 26.6256C28.3204 26.7026 28.2919 26.7706 28.2368 26.8272Z" fill="#D9D9D9"/>
<path d="M31.8091 26.824C31.754 26.8806 31.6869 26.9079 31.6102 26.908C31.5336 26.9082 31.4659 26.8795 31.4096 26.8241C31.3533 26.7687 31.326 26.7011 31.3258 26.6241C31.3255 26.5471 31.354 26.479 31.4091 26.4225C31.4642 26.3659 31.5313 26.3386 31.608 26.3384C31.6846 26.3383 31.7523 26.3669 31.8086 26.4224C31.8649 26.4778 31.8922 26.5453 31.8924 26.6224C31.8927 26.6994 31.8642 26.7675 31.8091 26.824Z" fill="#D9D9D9"/>
<path d="M35.3833 26.8183C35.3282 26.8748 35.2611 26.9021 35.1845 26.9023C35.1078 26.9025 35.0401 26.8738 34.9838 26.8184C34.9275 26.7629 34.9003 26.6954 34.9 26.6184C34.8998 26.5413 34.9282 26.4733 34.9833 26.4167C35.0384 26.3602 35.1055 26.3329 35.1822 26.3327C35.2588 26.3325 35.3266 26.3612 35.3829 26.4167C35.4392 26.4721 35.4664 26.5396 35.4666 26.6166C35.4669 26.6937 35.4384 26.7617 35.3833 26.8183Z" fill="#D9D9D9"/>
<path d="M38.9556 26.8128C38.9005 26.8693 38.8334 26.8966 38.7567 26.8968C38.6801 26.897 38.6124 26.8683 38.5561 26.8129C38.4998 26.7574 38.4725 26.6899 38.4723 26.6129C38.472 26.5358 38.5005 26.4678 38.5556 26.4112C38.6107 26.3547 38.6778 26.3274 38.7544 26.3272C38.8311 26.327 38.8988 26.3557 38.9551 26.4112C39.0114 26.4666 39.0387 26.5341 39.0389 26.6111C39.0392 26.6882 39.0107 26.7562 38.9556 26.8128Z" fill="#D9D9D9"/>
<path d="M42.5303 26.8072C42.4752 26.8637 42.4081 26.891 42.3314 26.8912C42.2548 26.8914 42.1871 26.8627 42.1308 26.8072C42.0745 26.7518 42.0472 26.6843 42.047 26.6073C42.0467 26.5302 42.0752 26.4622 42.1303 26.4056C42.1854 26.3491 42.2525 26.3218 42.3292 26.3216C42.4058 26.3214 42.4735 26.3501 42.5298 26.4055C42.5861 26.461 42.6134 26.5285 42.6136 26.6055C42.6139 26.6826 42.5854 26.7506 42.5303 26.8072Z" fill="#D9D9D9"/>
<path d="M46.1021 26.8017C46.047 26.8582 45.9798 26.8855 45.9032 26.8857C45.8266 26.8859 45.7588 26.8572 45.7025 26.8018C45.6462 26.7463 45.619 26.6788 45.6188 26.6018C45.6185 26.5247 45.647 26.4567 45.7021 26.4001C45.7572 26.3436 45.8243 26.3163 45.9009 26.3161C45.9776 26.3159 46.0453 26.3446 46.1016 26.4001C46.1579 26.4555 46.1851 26.523 46.1854 26.6C46.1856 26.6771 46.1572 26.7451 46.1021 26.8017Z" fill="#D9D9D9"/>
<path d="M49.6768 26.7983C49.6217 26.8548 49.5546 26.8821 49.4779 26.8823C49.4013 26.8825 49.3335 26.8538 49.2772 26.7983C49.2209 26.7429 49.1937 26.6754 49.1935 26.5983C49.1932 26.5213 49.2217 26.4532 49.2768 26.3967C49.3319 26.3402 49.399 26.3129 49.4756 26.3127C49.5523 26.3125 49.62 26.3412 49.6763 26.3966C49.7326 26.4521 49.7598 26.5196 49.7601 26.5966C49.7603 26.6737 49.7319 26.7417 49.6768 26.7983Z" fill="#D9D9D9"/>
<path d="M53.249 26.7928C53.194 26.8493 53.1268 26.8766 53.0502 26.8768C52.9735 26.877 52.9058 26.8483 52.8495 26.7928C52.7932 26.7374 52.766 26.6699 52.7657 26.5929C52.7655 26.5158 52.7939 26.4478 52.849 26.3912C52.9041 26.3347 52.9713 26.3074 53.0479 26.3072C53.1245 26.307 53.1923 26.3357 53.2486 26.3911C53.3049 26.4466 53.3321 26.5141 53.3324 26.5911C53.3326 26.6682 53.3041 26.7362 53.249 26.7928Z" fill="#D9D9D9"/>
<path d="M56.8233 26.787C56.7682 26.8436 56.701 26.8709 56.6244 26.8711C56.5478 26.8712 56.48 26.8425 56.4237 26.7871C56.3674 26.7317 56.3402 26.6642 56.3399 26.5871C56.3397 26.5101 56.3682 26.442 56.4233 26.3855C56.4784 26.3289 56.5455 26.3016 56.6221 26.3015C56.6988 26.3013 56.7665 26.33 56.8228 26.3854C56.8791 26.4408 56.9063 26.5084 56.9066 26.5854C56.9068 26.6624 56.8784 26.7305 56.8233 26.787Z" fill="#D9D9D9"/>
<path d="M60.3955 26.7815C60.3404 26.8381 60.2733 26.8654 60.1967 26.8656C60.12 26.8657 60.0523 26.8371 59.996 26.7816C59.9397 26.7262 59.9125 26.6587 59.9122 26.5816C59.912 26.5046 59.9404 26.4365 59.9955 26.38C60.0506 26.3234 60.1178 26.2961 60.1944 26.296C60.271 26.2958 60.3388 26.3245 60.3951 26.3799C60.4514 26.4354 60.4786 26.5029 60.4788 26.5799C60.4791 26.6569 60.4506 26.725 60.3955 26.7815Z" fill="#D9D9D9"/>
<path d="M63.9702 26.7782C63.9151 26.8348 63.848 26.8621 63.7714 26.8623C63.6947 26.8624 63.627 26.8338 63.5707 26.7783C63.5144 26.7229 63.4872 26.6554 63.4869 26.5783C63.4867 26.5013 63.5151 26.4332 63.5702 26.3767C63.6253 26.3202 63.6925 26.2928 63.7691 26.2927C63.8457 26.2925 63.9135 26.3212 63.9698 26.3766C64.0261 26.4321 64.0533 26.4996 64.0536 26.5766C64.0538 26.6536 64.0253 26.7217 63.9702 26.7782Z" fill="#D9D9D9"/>
<path d="M67.5425 26.7727C67.4874 26.8293 67.4203 26.8566 67.3436 26.8568C67.267 26.8569 67.1993 26.8283 67.143 26.7728C67.0867 26.7174 67.0594 26.6499 67.0592 26.5728C67.0589 26.4958 67.0874 26.4277 67.1425 26.3712C67.1976 26.3147 67.2647 26.2873 67.3414 26.2872C67.418 26.287 67.4857 26.3157 67.542 26.3711C67.5983 26.4266 67.6256 26.4941 67.6258 26.5711C67.6261 26.6481 67.5976 26.7162 67.5425 26.7727Z" fill="#D9D9D9"/>
<path d="M71.1167 26.767C71.0616 26.8235 70.9945 26.8509 70.9179 26.851C70.8412 26.8512 70.7735 26.8225 70.7172 26.7671C70.6609 26.7116 70.6337 26.6441 70.6334 26.5671C70.6332 26.4901 70.6616 26.422 70.7167 26.3655C70.7718 26.3089 70.8389 26.2816 70.9156 26.2814C70.9922 26.2813 71.06 26.3099 71.1163 26.3654C71.1726 26.4208 71.1998 26.4883 71.2 26.5654C71.2003 26.6424 71.1718 26.7105 71.1167 26.767Z" fill="#D9D9D9"/>
<path d="M74.689 26.7615C74.6339 26.8181 74.5668 26.8454 74.4901 26.8455C74.4135 26.8457 74.3458 26.817 74.2895 26.7616C74.2332 26.7062 74.2059 26.6386 74.2057 26.5616C74.2054 26.4846 74.2339 26.4165 74.289 26.36C74.3441 26.3034 74.4112 26.2761 74.4879 26.2759C74.5645 26.2758 74.6322 26.3044 74.6885 26.3599C74.7448 26.4153 74.7721 26.4828 74.7723 26.5599C74.7726 26.6369 74.7441 26.705 74.689 26.7615Z" fill="#D9D9D9"/>
<path d="M17.5308 32.6552C17.4757 32.7117 17.4086 32.739 17.3319 32.7392C17.2553 32.7394 17.1876 32.7107 17.1312 32.6553C17.0749 32.5998 17.0477 32.5323 17.0475 32.4553C17.0472 32.3782 17.0757 32.3102 17.1308 32.2536C17.1859 32.1971 17.253 32.1698 17.3296 32.1696C17.4063 32.1694 17.474 32.1981 17.5303 32.2536C17.5866 32.309 17.6138 32.3765 17.6141 32.4536C17.6143 32.5306 17.5859 32.5987 17.5308 32.6552Z" fill="#D9D9D9"/>
<path d="M21.1026 32.6497C21.0475 32.7062 20.9803 32.7335 20.9037 32.7337C20.8271 32.7339 20.7593 32.7052 20.703 32.6498C20.6467 32.5943 20.6195 32.5268 20.6192 32.4498C20.619 32.3727 20.6475 32.3047 20.7026 32.2482C20.7577 32.1916 20.8248 32.1643 20.9014 32.1641C20.9781 32.1639 21.0458 32.1926 21.1021 32.2481C21.1584 32.3035 21.1856 32.371 21.1859 32.4481C21.1861 32.5251 21.1577 32.5932 21.1026 32.6497Z" fill="#D9D9D9"/>
<path d="M24.6773 32.6464C24.6222 32.7029 24.555 32.7303 24.4784 32.7304C24.4018 32.7306 24.334 32.7019 24.2777 32.6465C24.2214 32.591 24.1942 32.5235 24.194 32.4465C24.1937 32.3695 24.2222 32.3014 24.2773 32.2449C24.3324 32.1883 24.3995 32.161 24.4761 32.1608C24.5528 32.1607 24.6205 32.1893 24.6768 32.2448C24.7331 32.3002 24.7603 32.3677 24.7606 32.4448C24.7608 32.5218 24.7324 32.5899 24.6773 32.6464Z" fill="#D9D9D9"/>
<path d="M28.2495 32.6409C28.1944 32.6974 28.1273 32.7248 28.0507 32.7249C27.974 32.7251 27.9063 32.6964 27.85 32.641C27.7937 32.5855 27.7665 32.518 27.7662 32.441C27.766 32.364 27.7944 32.2959 27.8495 32.2394C27.9046 32.1828 27.9718 32.1555 28.0484 32.1553C28.125 32.1552 28.1928 32.1838 28.2491 32.2393C28.3054 32.2947 28.3326 32.3622 28.3328 32.4393C28.3331 32.5163 28.3046 32.5844 28.2495 32.6409Z" fill="#D9D9D9"/>
<path d="M31.8238 32.6352C31.7687 32.6917 31.7015 32.719 31.6249 32.7192C31.5482 32.7194 31.4805 32.6907 31.4242 32.6353C31.3679 32.5798 31.3407 32.5123 31.3404 32.4353C31.3402 32.3582 31.3687 32.2902 31.4237 32.2336C31.4788 32.1771 31.546 32.1498 31.6226 32.1496C31.6993 32.1494 31.767 32.1781 31.8233 32.2335C31.8796 32.289 31.9068 32.3565 31.9071 32.4335C31.9073 32.5106 31.8789 32.5786 31.8238 32.6352Z" fill="#D9D9D9"/>
<path d="M35.396 32.6297C35.3409 32.6862 35.2738 32.7135 35.1972 32.7137C35.1205 32.7139 35.0528 32.6852 34.9965 32.6298C34.9402 32.5743 34.913 32.5068 34.9127 32.4298C34.9124 32.3527 34.9409 32.2847 34.996 32.2281C35.0511 32.1716 35.1182 32.1443 35.1949 32.1441C35.2715 32.1439 35.3392 32.1726 35.3955 32.2281C35.4518 32.2835 35.4791 32.351 35.4793 32.428C35.4796 32.5051 35.4511 32.5731 35.396 32.6297Z" fill="#D9D9D9"/>
<path d="M38.9707 32.6263C38.9156 32.6828 38.8485 32.7101 38.7719 32.7103C38.6952 32.7105 38.6275 32.6818 38.5712 32.6263C38.5149 32.5709 38.4877 32.5034 38.4874 32.4264C38.4872 32.3493 38.5156 32.2813 38.5707 32.2247C38.6258 32.1682 38.6929 32.1409 38.7696 32.1407C38.8462 32.1405 38.914 32.1692 38.9703 32.2246C39.0266 32.2801 39.0538 32.3476 39.054 32.4246C39.0543 32.5017 39.0258 32.5697 38.9707 32.6263Z" fill="#D9D9D9"/>
<path d="M42.543 32.6208C42.4879 32.6773 42.4208 32.7046 42.3441 32.7048C42.2675 32.705 42.1998 32.6763 42.1435 32.6208C42.0872 32.5654 42.0599 32.4979 42.0597 32.4209C42.0594 32.3438 42.0879 32.2758 42.143 32.2192C42.1981 32.1627 42.2652 32.1354 42.3419 32.1352C42.4185 32.135 42.4862 32.1637 42.5425 32.2191C42.5988 32.2746 42.6261 32.3421 42.6263 32.4191C42.6266 32.4962 42.5981 32.5642 42.543 32.6208Z" fill="#D9D9D9"/>
<path d="M46.1172 32.6152C46.0621 32.6717 45.995 32.699 45.9183 32.6992C45.8417 32.6994 45.774 32.6707 45.7177 32.6152C45.6614 32.5598 45.6341 32.4923 45.6339 32.4152C45.6336 32.3382 45.6621 32.2701 45.7172 32.2136C45.7723 32.1571 45.8394 32.1298 45.9161 32.1296C45.9927 32.1294 46.0604 32.1581 46.1167 32.2135C46.173 32.269 46.2003 32.3365 46.2005 32.4135C46.2008 32.4906 46.1723 32.5586 46.1172 32.6152Z" fill="#D9D9D9"/>
<path d="M49.6895 32.6097C49.6344 32.6662 49.5673 32.6935 49.4906 32.6937C49.414 32.6939 49.3462 32.6652 49.2899 32.6097C49.2336 32.5543 49.2064 32.4868 49.2062 32.4097C49.2059 32.3327 49.2344 32.2647 49.2895 32.2081C49.3446 32.1516 49.4117 32.1243 49.4883 32.1241C49.565 32.1239 49.6327 32.1526 49.689 32.208C49.7453 32.2635 49.7725 32.331 49.7728 32.408C49.773 32.4851 49.7446 32.5531 49.6895 32.6097Z" fill="#D9D9D9"/>
<path d="M53.2642 32.6039C53.2091 32.6605 53.142 32.6878 53.0653 32.6879C52.9887 32.6881 52.9209 32.6594 52.8646 32.604C52.8083 32.5486 52.7811 32.4811 52.7809 32.404C52.7806 32.327 52.8091 32.2589 52.8642 32.2024C52.9193 32.1458 52.9864 32.1185 53.063 32.1183C53.1397 32.1182 53.2074 32.1469 53.2637 32.2023C53.32 32.2577 53.3472 32.3252 53.3475 32.4023C53.3477 32.4793 53.3193 32.5474 53.2642 32.6039Z" fill="#D9D9D9"/>
<path d="M56.8364 32.6007C56.7814 32.6573 56.7142 32.6846 56.6376 32.6848C56.5609 32.6849 56.4932 32.6563 56.4369 32.6008C56.3806 32.5454 56.3534 32.4779 56.3531 32.4008C56.3529 32.3238 56.3813 32.2557 56.4364 32.1992C56.4915 32.1427 56.5587 32.1154 56.6353 32.1152C56.7119 32.115 56.7797 32.1437 56.836 32.1991C56.8923 32.2546 56.9195 32.3221 56.9198 32.3991C56.92 32.4762 56.8915 32.5442 56.8364 32.6007Z" fill="#D9D9D9"/>
<path d="M60.4107 32.595C60.3556 32.6516 60.2884 32.6789 60.2118 32.679C60.1352 32.6792 60.0674 32.6505 60.0111 32.5951C59.9548 32.5396 59.9276 32.4721 59.9273 32.3951C59.9271 32.3181 59.9556 32.25 60.0107 32.1935C60.0658 32.1369 60.1329 32.1096 60.2095 32.1094C60.2862 32.1093 60.3539 32.1379 60.4102 32.1934C60.4665 32.2488 60.4937 32.3163 60.494 32.3934C60.4942 32.4704 60.4658 32.5385 60.4107 32.595Z" fill="#D9D9D9"/>
<path d="M63.9829 32.5895C63.9278 32.6461 63.8607 32.6734 63.7841 32.6735C63.7074 32.6737 63.6397 32.645 63.5834 32.5896C63.5271 32.5342 63.4999 32.4666 63.4996 32.3896C63.4994 32.3126 63.5278 32.2445 63.5829 32.188C63.638 32.1314 63.7052 32.1041 63.7818 32.1039C63.8584 32.1038 63.9262 32.1325 63.9825 32.1879C64.0388 32.2433 64.066 32.3108 64.0662 32.3879C64.0665 32.4649 64.038 32.533 63.9829 32.5895Z" fill="#D9D9D9"/>
<path d="M67.5572 32.5838C67.5021 32.6403 67.4349 32.6676 67.3583 32.6678C67.2816 32.668 67.2139 32.6393 67.1576 32.5839C67.1013 32.5284 67.0741 32.4609 67.0738 32.3839C67.0736 32.3068 67.102 32.2388 67.1571 32.1822C67.2122 32.1257 67.2794 32.0984 67.356 32.0982C67.4326 32.098 67.5004 32.1267 67.5567 32.1822C67.613 32.2376 67.6402 32.3051 67.6405 32.3821C67.6407 32.4592 67.6123 32.5272 67.5572 32.5838Z" fill="#D9D9D9"/>
<path d="M71.1299 32.5806C71.0748 32.6371 71.0077 32.6645 70.931 32.6646C70.8544 32.6648 70.7867 32.6361 70.7304 32.5807C70.6741 32.5252 70.6468 32.4577 70.6466 32.3807C70.6463 32.3037 70.6748 32.2356 70.7299 32.1791C70.785 32.1225 70.8521 32.0952 70.9288 32.095C71.0054 32.0949 71.0731 32.1235 71.1294 32.179C71.1857 32.2344 71.213 32.3019 71.2132 32.379C71.2135 32.456 71.185 32.5241 71.1299 32.5806Z" fill="#D9D9D9"/>
<path d="M74.7041 32.575C74.649 32.6315 74.5819 32.6588 74.5053 32.659C74.4286 32.6592 74.3609 32.6305 74.3046 32.5751C74.2483 32.5196 74.2211 32.4521 74.2208 32.3751C74.2206 32.298 74.249 32.23 74.3041 32.1734C74.3592 32.1169 74.4263 32.0896 74.503 32.0894C74.5796 32.0892 74.6474 32.1179 74.7037 32.1734C74.76 32.2288 74.7872 32.2963 74.7874 32.3734C74.7877 32.4504 74.7592 32.5184 74.7041 32.575Z" fill="#D9D9D9"/>
<path d="M17.5435 38.4689C17.4884 38.5254 17.4213 38.5528 17.3446 38.5529C17.268 38.5531 17.2002 38.5244 17.1439 38.469C17.0876 38.4135 17.0604 38.346 17.0602 38.269C17.0599 38.192 17.0884 38.1239 17.1435 38.0674C17.1986 38.0108 17.2657 37.9835 17.3423 37.9833C17.419 37.9832 17.4867 38.0118 17.543 38.0673C17.5993 38.1227 17.6265 38.1902 17.6268 38.2673C17.627 38.3443 17.5986 38.4124 17.5435 38.4689Z" fill="#D9D9D9"/>
<path d="M21.1177 38.4632C21.0626 38.5197 20.9955 38.547 20.9188 38.5472C20.8422 38.5474 20.7745 38.5187 20.7182 38.4633C20.6619 38.4078 20.6346 38.3403 20.6344 38.2633C20.6341 38.1862 20.6626 38.1182 20.7177 38.0616C20.7728 38.0051 20.8399 37.9778 20.9166 37.9776C20.9932 37.9774 21.0609 38.0061 21.1172 38.0615C21.1735 38.117 21.2008 38.1845 21.201 38.2615C21.2013 38.3386 21.1728 38.4066 21.1177 38.4632Z" fill="#D9D9D9"/>
<path d="M24.69 38.4577C24.6349 38.5142 24.5677 38.5415 24.4911 38.5417C24.4145 38.5419 24.3467 38.5132 24.2904 38.4578C24.2341 38.4023 24.2069 38.3348 24.2066 38.2578C24.2064 38.1807 24.2349 38.1127 24.29 38.0561C24.3451 37.9996 24.4122 37.9723 24.4888 37.9721C24.5655 37.9719 24.6332 38.0006 24.6895 38.0561C24.7458 38.1115 24.773 38.179 24.7733 38.256C24.7735 38.3331 24.7451 38.4011 24.69 38.4577Z" fill="#D9D9D9"/>
<path d="M28.2647 38.4521C28.2096 38.5086 28.1424 38.5359 28.0658 38.5361C27.9892 38.5363 27.9214 38.5076 27.8651 38.4521C27.8088 38.3967 27.7816 38.3292 27.7814 38.2522C27.7811 38.1751 27.8096 38.1071 27.8647 38.0505C27.9198 37.994 27.9869 37.9667 28.0635 37.9665C28.1402 37.9663 28.2079 37.995 28.2642 38.0504C28.3205 38.1059 28.3477 38.1734 28.348 38.2504C28.3482 38.3275 28.3198 38.3955 28.2647 38.4521Z" fill="#D9D9D9"/>
<path d="M31.8369 38.4489C31.7818 38.5054 31.7147 38.5327 31.6381 38.5329C31.5614 38.5331 31.4937 38.5044 31.4374 38.449C31.3811 38.3935 31.3539 38.326 31.3536 38.249C31.3534 38.1719 31.3818 38.1039 31.4369 38.0473C31.492 37.9908 31.5592 37.9635 31.6358 37.9633C31.7124 37.9631 31.7802 37.9918 31.8365 38.0473C31.8928 38.1027 31.92 38.1702 31.9203 38.2473C31.9205 38.3243 31.892 38.3924 31.8369 38.4489Z" fill="#D9D9D9"/>
<path d="M35.4112 38.4432C35.3561 38.4997 35.2889 38.527 35.2123 38.5272C35.1356 38.5274 35.0679 38.4987 35.0116 38.4432C34.9553 38.3878 34.9281 38.3203 34.9278 38.2432C34.9276 38.1662 34.956 38.0981 35.0111 38.0416C35.0662 37.9851 35.1334 37.9578 35.21 37.9576C35.2867 37.9574 35.3544 37.9861 35.4107 38.0415C35.467 38.097 35.4942 38.1645 35.4945 38.2415C35.4947 38.3186 35.4663 38.3866 35.4112 38.4432Z" fill="#D9D9D9"/>
<path d="M38.9834 38.4377C38.9283 38.4942 38.8612 38.5215 38.7846 38.5217C38.7079 38.5219 38.6402 38.4932 38.5839 38.4377C38.5276 38.3823 38.5004 38.3148 38.5001 38.2378C38.4999 38.1607 38.5283 38.0927 38.5834 38.0361C38.6385 37.9796 38.7056 37.9523 38.7823 37.9521C38.8589 37.9519 38.9267 37.9806 38.983 38.036C39.0393 38.0915 39.0665 38.159 39.0667 38.236C39.067 38.3131 39.0385 38.3811 38.9834 38.4377Z" fill="#D9D9D9"/>
<path d="M42.5581 38.4319C42.503 38.4885 42.4359 38.5158 42.3593 38.516C42.2826 38.5161 42.2149 38.4874 42.1586 38.432C42.1023 38.3766 42.0751 38.3091 42.0748 38.232C42.0746 38.155 42.103 38.0869 42.1581 38.0304C42.2132 37.9738 42.2803 37.9465 42.357 37.9464C42.4336 37.9462 42.5014 37.9749 42.5577 38.0303C42.614 38.0857 42.6412 38.1532 42.6414 38.2303C42.6417 38.3073 42.6132 38.3754 42.5581 38.4319Z" fill="#D9D9D9"/>
<path d="M46.1304 38.4288C46.0753 38.4853 46.0082 38.5126 45.9315 38.5128C45.8549 38.513 45.7872 38.4843 45.7309 38.4288C45.6746 38.3734 45.6473 38.3059 45.6471 38.2288C45.6468 38.1518 45.6753 38.0837 45.7304 38.0272C45.7855 37.9707 45.8526 37.9434 45.9293 37.9432C46.0059 37.943 46.0736 37.9717 46.1299 38.0271C46.1862 38.0826 46.2135 38.1501 46.2137 38.2271C46.214 38.3042 46.1855 38.3722 46.1304 38.4288Z" fill="#D9D9D9"/>
<path d="M49.7046 38.423C49.6495 38.4796 49.5824 38.5069 49.5057 38.507C49.4291 38.5072 49.3614 38.4785 49.3051 38.4231C49.2488 38.3677 49.2215 38.3001 49.2213 38.2231C49.221 38.1461 49.2495 38.078 49.3046 38.0215C49.3597 37.9649 49.4268 37.9376 49.5035 37.9374C49.5801 37.9373 49.6478 37.9659 49.7041 38.0214C49.7604 38.0768 49.7877 38.1443 49.7879 38.2214C49.7882 38.2984 49.7597 38.3665 49.7046 38.423Z" fill="#D9D9D9"/>
<path d="M53.2769 38.4175C53.2218 38.4741 53.1547 38.5014 53.078 38.5015C53.0014 38.5017 52.9336 38.473 52.8773 38.4176C52.821 38.3622 52.7938 38.2947 52.7936 38.2176C52.7933 38.1406 52.8218 38.0725 52.8769 38.016C52.932 37.9594 52.9991 37.9321 53.0757 37.9319C53.1524 37.9318 53.2201 37.9605 53.2764 38.0159C53.3327 38.0713 53.3599 38.1388 53.3602 38.2159C53.3604 38.2929 53.332 38.361 53.2769 38.4175Z" fill="#D9D9D9"/>
<path d="M56.8511 38.4119C56.796 38.4684 56.7289 38.4958 56.6522 38.4959C56.5756 38.4961 56.5079 38.4674 56.4516 38.412C56.3953 38.3565 56.368 38.289 56.3678 38.212C56.3675 38.135 56.396 38.0669 56.4511 38.0104C56.5062 37.9538 56.5733 37.9265 56.65 37.9263C56.7266 37.9262 56.7943 37.9548 56.8506 38.0103C56.9069 38.0657 56.9342 38.1332 56.9344 38.2103C56.9347 38.2873 56.9062 38.3554 56.8511 38.4119Z" fill="#D9D9D9"/>
<path d="M60.4234 38.4064C60.3683 38.463 60.3011 38.4903 60.2245 38.4904C60.1479 38.4906 60.0801 38.4619 60.0238 38.4065C59.9675 38.351 59.9403 38.2835 59.94 38.2065C59.9398 38.1295 59.9683 38.0614 60.0234 38.0049C60.0785 37.9483 60.1456 37.921 60.2222 37.9208C60.2989 37.9207 60.3666 37.9493 60.4229 38.0048C60.4792 38.0602 60.5064 38.1277 60.5067 38.2048C60.5069 38.2818 60.4785 38.3499 60.4234 38.4064Z" fill="#D9D9D9"/>
<path d="M63.9981 38.403C63.943 38.4595 63.8758 38.4868 63.7992 38.487C63.7226 38.4872 63.6548 38.4585 63.5985 38.4031C63.5422 38.3476 63.515 38.2801 63.5148 38.2031C63.5145 38.126 63.543 38.058 63.5981 38.0014C63.6532 37.9449 63.7203 37.9176 63.7969 37.9174C63.8736 37.9172 63.9413 37.9459 63.9976 38.0014C64.0539 38.0568 64.0811 38.1243 64.0814 38.2014C64.0816 38.2784 64.0532 38.3465 63.9981 38.403Z" fill="#D9D9D9"/>
<path d="M67.5703 38.3975C67.5152 38.454 67.4481 38.4813 67.3715 38.4815C67.2948 38.4817 67.2271 38.453 67.1708 38.3976C67.1145 38.3421 67.0873 38.2746 67.087 38.1976C67.0868 38.1205 67.1152 38.0525 67.1703 37.996C67.2254 37.9394 67.2926 37.9121 67.3692 37.9119C67.4458 37.9118 67.5136 37.9404 67.5699 37.9959C67.6262 38.0513 67.6534 38.1188 67.6536 38.1959C67.6539 38.2729 67.6254 38.341 67.5703 38.3975Z" fill="#D9D9D9"/>
<path d="M71.1446 38.3918C71.0895 38.4483 71.0223 38.4756 70.9457 38.4758C70.869 38.476 70.8013 38.4473 70.745 38.3918C70.6887 38.3364 70.6615 38.2689 70.6612 38.1919C70.661 38.1148 70.6894 38.0468 70.7445 37.9902C70.7996 37.9337 70.8668 37.9064 70.9434 37.9062C71.0201 37.906 71.0878 37.9347 71.1441 37.9901C71.2004 38.0456 71.2276 38.1131 71.2279 38.1901C71.2281 38.2672 71.1997 38.3352 71.1446 38.3918Z" fill="#D9D9D9"/>
<path d="M74.7168 38.3863C74.6617 38.4428 74.5946 38.4701 74.518 38.4703C74.4413 38.4705 74.3736 38.4418 74.3173 38.3863C74.261 38.3309 74.2338 38.2634 74.2335 38.1864C74.2333 38.1093 74.2617 38.0413 74.3168 37.9847C74.3719 37.9282 74.439 37.9009 74.5157 37.9007C74.5923 37.9005 74.66 37.9292 74.7163 37.9846C74.7726 38.0401 74.7999 38.1076 74.8001 38.1846C74.8004 38.2617 74.7719 38.3297 74.7168 38.3863Z" fill="#D9D9D9"/>
<path d="M17.5586 44.2801C17.5035 44.3366 17.4364 44.3639 17.3598 44.3641C17.2831 44.3643 17.2154 44.3356 17.1591 44.2801C17.1028 44.2247 17.0755 44.1572 17.0753 44.0802C17.075 44.0031 17.1035 43.9351 17.1586 43.8785C17.2137 43.822 17.2808 43.7947 17.3575 43.7945C17.4341 43.7943 17.5018 43.823 17.5581 43.8784C17.6144 43.9339 17.6417 44.0014 17.6419 44.0784C17.6422 44.1555 17.6137 44.2235 17.5586 44.2801Z" fill="#D9D9D9"/>
<path d="M21.1304 44.2746C21.0753 44.3311 21.0082 44.3584 20.9315 44.3586C20.8549 44.3588 20.7872 44.3301 20.7309 44.2747C20.6746 44.2192 20.6473 44.1517 20.6471 44.0747C20.6468 43.9976 20.6753 43.9296 20.7304 43.873C20.7855 43.8165 20.8526 43.7892 20.9293 43.789C21.0059 43.7888 21.0736 43.8175 21.1299 43.873C21.1862 43.9284 21.2135 43.9959 21.2137 44.0729C21.214 44.15 21.1855 44.218 21.1304 44.2746Z" fill="#D9D9D9"/>
<path d="M24.7051 44.2712C24.65 44.3277 24.5829 44.355 24.5062 44.3552C24.4296 44.3554 24.3619 44.3267 24.3056 44.2712C24.2493 44.2158 24.222 44.1483 24.2218 44.0712C24.2215 43.9942 24.25 43.9262 24.3051 43.8696C24.3602 43.8131 24.4273 43.7858 24.504 43.7856C24.5806 43.7854 24.6483 43.8141 24.7046 43.8695C24.7609 43.925 24.7882 43.9925 24.7884 44.0695C24.7887 44.1466 24.7602 44.2146 24.7051 44.2712Z" fill="#D9D9D9"/>
<path d="M28.2774 44.2657C28.2223 44.3222 28.1551 44.3495 28.0785 44.3497C28.0019 44.3499 27.9341 44.3212 27.8778 44.2657C27.8215 44.2103 27.7943 44.1428 27.794 44.0658C27.7938 43.9887 27.8223 43.9207 27.8774 43.8641C27.9325 43.8076 27.9996 43.7803 28.0762 43.7801C28.1529 43.7799 28.2206 43.8086 28.2769 43.864C28.3332 43.9195 28.3604 43.987 28.3607 44.064C28.3609 44.1411 28.3325 44.2091 28.2774 44.2657Z" fill="#D9D9D9"/>
<path d="M31.8521 44.2599C31.797 44.3165 31.7298 44.3438 31.6532 44.344C31.5766 44.3441 31.5088 44.3154 31.4525 44.26C31.3962 44.2046 31.369 44.1371 31.3688 44.06C31.3685 43.983 31.397 43.9149 31.4521 43.8584C31.5072 43.8018 31.5743 43.7745 31.6509 43.7744C31.7276 43.7742 31.7953 43.8029 31.8516 43.8583C31.9079 43.9137 31.9351 43.9813 31.9354 44.0583C31.9356 44.1353 31.9072 44.2034 31.8521 44.2599Z" fill="#D9D9D9"/>
<path d="M35.4239 44.2544C35.3688 44.311 35.3016 44.3383 35.225 44.3385C35.1483 44.3386 35.0806 44.31 35.0243 44.2545C34.968 44.1991 34.9408 44.1316 34.9405 44.0545C34.9403 43.9775 34.9687 43.9094 35.0238 43.8529C35.0789 43.7963 35.1461 43.769 35.2227 43.7689C35.2994 43.7687 35.3671 43.7974 35.4234 43.8528C35.4797 43.9083 35.5069 43.9758 35.5072 44.0528C35.5074 44.1298 35.4789 44.1979 35.4239 44.2544Z" fill="#D9D9D9"/>
<path d="M38.9986 44.2511C38.9435 44.3077 38.8763 44.335 38.7997 44.3352C38.7231 44.3353 38.6553 44.3067 38.599 44.2512C38.5427 44.1958 38.5155 44.1283 38.5152 44.0512C38.515 43.9742 38.5435 43.9061 38.5986 43.8496C38.6536 43.7931 38.7208 43.7657 38.7974 43.7656C38.8741 43.7654 38.9418 43.7941 38.9981 43.8495C39.0544 43.905 39.0816 43.9725 39.0819 44.0495C39.0821 44.1265 39.0537 44.1946 38.9986 44.2511Z" fill="#D9D9D9"/>
<path d="M42.5708 44.2456C42.5157 44.3022 42.4486 44.3295 42.372 44.3297C42.2953 44.3298 42.2276 44.3012 42.1713 44.2457C42.115 44.1903 42.0878 44.1228 42.0875 44.0457C42.0873 43.9687 42.1157 43.9006 42.1708 43.8441C42.2259 43.7876 42.293 43.7602 42.3697 43.7601C42.4463 43.7599 42.5141 43.7886 42.5704 43.844C42.6267 43.8995 42.6539 43.967 42.6541 44.044C42.6544 44.121 42.6259 44.1891 42.5708 44.2456Z" fill="#D9D9D9"/>
<path d="M46.145 44.2399C46.0899 44.2964 46.0228 44.3238 45.9462 44.3239C45.8695 44.3241 45.8018 44.2954 45.7455 44.24C45.6892 44.1845 45.662 44.117 45.6617 44.04C45.6615 43.963 45.6899 43.8949 45.745 43.8384C45.8001 43.7818 45.8673 43.7545 45.9439 43.7543C46.0205 43.7542 46.0883 43.7828 46.1446 43.8383C46.2009 43.8937 46.2281 43.9612 46.2284 44.0383C46.2286 44.1153 46.2001 44.1834 46.145 44.2399Z" fill="#D9D9D9"/>
<path d="M49.7173 44.2344C49.6622 44.291 49.5951 44.3183 49.5184 44.3184C49.4418 44.3186 49.3741 44.2899 49.3178 44.2345C49.2615 44.1791 49.2342 44.1115 49.234 44.0345C49.2337 43.9575 49.2622 43.8894 49.3173 43.8329C49.3724 43.7763 49.4395 43.749 49.5162 43.7488C49.5928 43.7487 49.6605 43.7773 49.7168 43.8328C49.7731 43.8882 49.8004 43.9557 49.8006 44.0328C49.8009 44.1098 49.7724 44.1779 49.7173 44.2344Z" fill="#D9D9D9"/>
<path d="M53.292 44.231C53.2369 44.2875 53.1698 44.3148 53.0932 44.315C53.0165 44.3152 52.9488 44.2865 52.8925 44.2311C52.8362 44.1756 52.8089 44.1081 52.8087 44.0311C52.8084 43.954 52.8369 43.886 52.892 43.8294C52.9471 43.7729 53.0142 43.7456 53.0909 43.7454C53.1675 43.7452 53.2352 43.7739 53.2915 43.8294C53.3478 43.8848 53.3751 43.9523 53.3753 44.0294C53.3756 44.1064 53.3471 44.1745 53.292 44.231Z" fill="#D9D9D9"/>
<path d="M56.8643 44.2255C56.8092 44.282 56.7421 44.3094 56.6654 44.3095C56.5888 44.3097 56.521 44.281 56.4647 44.2256C56.4084 44.1701 56.3812 44.1026 56.381 44.0256C56.3807 43.9486 56.4092 43.8805 56.4643 43.824C56.5194 43.7674 56.5865 43.7401 56.6631 43.7399C56.7398 43.7398 56.8075 43.7684 56.8638 43.8239C56.9201 43.8793 56.9473 43.9468 56.9476 44.0239C56.9478 44.1009 56.9194 44.169 56.8643 44.2255Z" fill="#D9D9D9"/>
<path d="M60.4385 44.2198C60.3834 44.2763 60.3163 44.3036 60.2396 44.3038C60.163 44.304 60.0953 44.2753 60.039 44.2198C59.9827 44.1644 59.9554 44.0969 59.9552 44.0199C59.9549 43.9428 59.9834 43.8748 60.0385 43.8182C60.0936 43.7617 60.1607 43.7344 60.2374 43.7342C60.314 43.734 60.3817 43.7627 60.438 43.8181C60.4943 43.8736 60.5216 43.9411 60.5218 44.0181C60.5221 44.0952 60.4936 44.1632 60.4385 44.2198Z" fill="#D9D9D9"/>
<path d="M64.0108 44.2143C63.9557 44.2708 63.8885 44.2981 63.8119 44.2983C63.7353 44.2985 63.6675 44.2698 63.6112 44.2144C63.5549 44.1589 63.5277 44.0914 63.5274 44.0144C63.5272 43.9373 63.5557 43.8693 63.6108 43.8127C63.6659 43.7562 63.733 43.7289 63.8096 43.7287C63.8863 43.7285 63.954 43.7572 64.0103 43.8126C64.0666 43.8681 64.0938 43.9356 64.0941 44.0126C64.0943 44.0897 64.0659 44.1577 64.0108 44.2143Z" fill="#D9D9D9"/>
<path d="M67.585 44.2087C67.5299 44.2652 67.4628 44.2925 67.3861 44.2927C67.3095 44.2929 67.2417 44.2642 67.1854 44.2087C67.1291 44.1533 67.1019 44.0858 67.1017 44.0087C67.1014 43.9317 67.1299 43.8637 67.185 43.8071C67.2401 43.7506 67.3072 43.7233 67.3838 43.7231C67.4605 43.7229 67.5282 43.7516 67.5845 43.807C67.6408 43.8625 67.668 43.93 67.6683 44.007C67.6685 44.0841 67.6401 44.1521 67.585 44.2087Z" fill="#D9D9D9"/>
<path d="M71.1577 44.2055C71.1026 44.262 71.0355 44.2893 70.9589 44.2895C70.8822 44.2897 70.8145 44.261 70.7582 44.2056C70.7019 44.1501 70.6747 44.0826 70.6744 44.0056C70.6742 43.9285 70.7026 43.8605 70.7577 43.8039C70.8128 43.7474 70.88 43.7201 70.9566 43.7199C71.0332 43.7197 71.101 43.7484 71.1573 43.8039C71.2136 43.8593 71.2408 43.9268 71.2411 44.0038C71.2413 44.0809 71.2128 44.1489 71.1577 44.2055Z" fill="#D9D9D9"/>
<path d="M74.732 44.1997C74.6769 44.2563 74.6097 44.2836 74.5331 44.2838C74.4565 44.2839 74.3887 44.2553 74.3324 44.1998C74.2761 44.1444 74.2489 44.0769 74.2486 43.9998C74.2484 43.9228 74.2769 43.8547 74.332 43.7982C74.387 43.7417 74.4542 43.7144 74.5308 43.7142C74.6075 43.714 74.6752 43.7427 74.7315 43.7981C74.7878 43.8536 74.815 43.9211 74.8153 43.9981C74.8155 44.0752 74.7871 44.1432 74.732 44.1997Z" fill="#D9D9D9"/>
<path d="M17.5713 50.0937C17.5162 50.1502 17.4491 50.1775 17.3724 50.1777C17.2958 50.1779 17.2281 50.1492 17.1718 50.0937C17.1155 50.0383 17.0882 49.9708 17.088 49.8938C17.0877 49.8167 17.1162 49.7487 17.1713 49.6921C17.2264 49.6356 17.2935 49.6083 17.3702 49.6081C17.4468 49.6079 17.5145 49.6366 17.5708 49.692C17.6271 49.7475 17.6544 49.815 17.6546 49.892C17.6549 49.9691 17.6264 50.0371 17.5713 50.0937Z" fill="#D9D9D9"/>
<path d="M21.146 50.0881C21.0909 50.1446 21.0238 50.1719 20.9472 50.1721C20.8705 50.1723 20.8028 50.1436 20.7465 50.0881C20.6902 50.0327 20.663 49.9652 20.6627 49.8881C20.6624 49.8111 20.6909 49.743 20.746 49.6865C20.8011 49.63 20.8682 49.6027 20.9449 49.6025C21.0215 49.6023 21.0892 49.631 21.1455 49.6864C21.2018 49.7419 21.2291 49.8094 21.2293 49.8864C21.2296 49.9635 21.2011 50.0315 21.146 50.0881Z" fill="#D9D9D9"/>
<path d="M24.7178 50.0826C24.6627 50.1391 24.5956 50.1664 24.5189 50.1666C24.4423 50.1668 24.3746 50.1381 24.3183 50.0826C24.262 50.0272 24.2347 49.9597 24.2345 49.8826C24.2342 49.8056 24.2627 49.7376 24.3178 49.681C24.3729 49.6245 24.44 49.5972 24.5167 49.597C24.5933 49.5968 24.661 49.6255 24.7173 49.6809C24.7736 49.7364 24.8009 49.8039 24.8011 49.8809C24.8014 49.958 24.7729 50.026 24.7178 50.0826Z" fill="#D9D9D9"/>
<path d="M28.2925 50.0768C28.2374 50.1334 28.1703 50.1607 28.0936 50.1608C28.017 50.161 27.9493 50.1323 27.893 50.0769C27.8367 50.0215 27.8094 49.954 27.8092 49.8769C27.8089 49.7999 27.8374 49.7318 27.8925 49.6753C27.9476 49.6187 28.0147 49.5914 28.0914 49.5912C28.168 49.5911 28.2357 49.6198 28.292 49.6752C28.3483 49.7306 28.3756 49.7981 28.3758 49.8752C28.3761 49.9522 28.3476 50.0203 28.2925 50.0768Z" fill="#D9D9D9"/>
<path d="M31.8648 50.0736C31.8097 50.1302 31.7425 50.1575 31.6659 50.1577C31.5893 50.1579 31.5215 50.1292 31.4652 50.0737C31.4089 50.0183 31.3817 49.9508 31.3815 49.8737C31.3812 49.7967 31.4097 49.7286 31.4648 49.6721C31.5199 49.6156 31.587 49.5883 31.6636 49.5881C31.7403 49.5879 31.808 49.6166 31.8643 49.672C31.9206 49.7275 31.9478 49.795 31.9481 49.872C31.9483 49.9491 31.9199 50.0171 31.8648 50.0736Z" fill="#D9D9D9"/>
<path d="M35.439 50.0679C35.3839 50.1245 35.3168 50.1518 35.2401 50.1519C35.1635 50.1521 35.0958 50.1234 35.0395 50.068C34.9832 50.0125 34.9559 49.945 34.9557 49.868C34.9554 49.791 34.9839 49.7229 35.039 49.6664C35.0941 49.6098 35.1612 49.5825 35.2378 49.5823C35.3145 49.5822 35.3822 49.6108 35.4385 49.6663C35.4948 49.7217 35.5221 49.7892 35.5223 49.8663C35.5226 49.9433 35.4941 50.0114 35.439 50.0679Z" fill="#D9D9D9"/>
<path d="M39.0113 50.0624C38.9562 50.119 38.889 50.1463 38.8124 50.1464C38.7357 50.1466 38.668 50.1179 38.6117 50.0625C38.5554 50.0071 38.5282 49.9395 38.5279 49.8625C38.5277 49.7855 38.5562 49.7174 38.6112 49.6609C38.6663 49.6043 38.7335 49.577 38.8101 49.5768C38.8868 49.5767 38.9545 49.6054 39.0108 49.6608C39.0671 49.7162 39.0943 49.7837 39.0946 49.8608C39.0948 49.9378 39.0664 50.0059 39.0113 50.0624Z" fill="#D9D9D9"/>
<path d="M42.586 50.0567C42.5309 50.1132 42.4637 50.1405 42.3871 50.1407C42.3105 50.1409 42.2427 50.1122 42.1864 50.0568C42.1301 50.0013 42.1029 49.9338 42.1026 49.8568C42.1024 49.7797 42.1309 49.7117 42.186 49.6551C42.2411 49.5986 42.3082 49.5713 42.3848 49.5711C42.4615 49.5709 42.5292 49.5996 42.5855 49.6551C42.6418 49.7105 42.669 49.778 42.6693 49.855C42.6695 49.9321 42.6411 50.0001 42.586 50.0567Z" fill="#D9D9D9"/>
<path d="M46.1582 50.0535C46.1031 50.11 46.036 50.1374 45.9594 50.1375C45.8827 50.1377 45.815 50.109 45.7587 50.0536C45.7024 49.9981 45.6752 49.9306 45.6749 49.8536C45.6747 49.7766 45.7031 49.7085 45.7582 49.652C45.8133 49.5954 45.8804 49.5681 45.9571 49.5679C46.0337 49.5678 46.1015 49.5964 46.1578 49.6519C46.2141 49.7073 46.2413 49.7748 46.2415 49.8519C46.2418 49.9289 46.2133 49.997 46.1582 50.0535Z" fill="#D9D9D9"/>
<path d="M49.7324 50.0479C49.6773 50.1044 49.6102 50.1317 49.5336 50.1319C49.4569 50.1321 49.3892 50.1034 49.3329 50.048C49.2766 49.9925 49.2494 49.925 49.2491 49.848C49.2489 49.7709 49.2773 49.7029 49.3324 49.6463C49.3875 49.5898 49.4547 49.5625 49.5313 49.5623C49.6079 49.5621 49.6757 49.5908 49.732 49.6463C49.7883 49.7017 49.8155 49.7692 49.8158 49.8463C49.816 49.9233 49.7875 49.9913 49.7324 50.0479Z" fill="#D9D9D9"/>
<path d="M53.3047 50.0424C53.2496 50.0989 53.1825 50.1262 53.1058 50.1264C53.0292 50.1266 52.9615 50.0979 52.9052 50.0425C52.8489 49.987 52.8216 49.9195 52.8214 49.8425C52.8211 49.7654 52.8496 49.6974 52.9047 49.6409C52.9598 49.5843 53.0269 49.557 53.1036 49.5568C53.1802 49.5566 53.2479 49.5853 53.3042 49.6408C53.3605 49.6962 53.3878 49.7637 53.388 49.8408C53.3883 49.9178 53.3598 49.9859 53.3047 50.0424Z" fill="#D9D9D9"/>
<path d="M56.8789 50.0367C56.8238 50.0932 56.7567 50.1205 56.6801 50.1207C56.6034 50.1209 56.5357 50.0922 56.4794 50.0367C56.4231 49.9813 56.3959 49.9138 56.3956 49.8368C56.3954 49.7597 56.4238 49.6917 56.4789 49.6351C56.534 49.5786 56.6011 49.5513 56.6778 49.5511C56.7544 49.5509 56.8222 49.5796 56.8785 49.635C56.9348 49.6905 56.962 49.758 56.9622 49.835C56.9625 49.9121 56.934 49.9801 56.8789 50.0367Z" fill="#D9D9D9"/>
<path d="M60.4517 50.0335C60.3966 50.09 60.3295 50.1173 60.2528 50.1175C60.1762 50.1177 60.1084 50.089 60.0521 50.0336C59.9958 49.9781 59.9686 49.9106 59.9684 49.8336C59.9681 49.7565 59.9966 49.6885 60.0517 49.6319C60.1068 49.5754 60.1739 49.5481 60.2505 49.5479C60.3272 49.5477 60.3949 49.5764 60.4512 49.6319C60.5075 49.6873 60.5347 49.7548 60.535 49.8319C60.5352 49.9089 60.5068 49.9769 60.4517 50.0335Z" fill="#D9D9D9"/>
<path d="M64.0259 50.0278C63.9708 50.0843 63.9037 50.1116 63.827 50.1118C63.7504 50.112 63.6827 50.0833 63.6264 50.0278C63.5701 49.9724 63.5428 49.9049 63.5426 49.8278C63.5423 49.7508 63.5708 49.6827 63.6259 49.6262C63.681 49.5697 63.7481 49.5424 63.8248 49.5422C63.9014 49.542 63.9691 49.5707 64.0254 49.6261C64.0817 49.6816 64.109 49.7491 64.1092 49.8261C64.1095 49.9032 64.081 49.9712 64.0259 50.0278Z" fill="#D9D9D9"/>
<path d="M67.5982 50.0223C67.5431 50.0788 67.4759 50.1061 67.3993 50.1063C67.3227 50.1065 67.2549 50.0778 67.1986 50.0223C67.1423 49.9669 67.1151 49.8994 67.1148 49.8223C67.1146 49.7453 67.1431 49.6772 67.1982 49.6207C67.2533 49.5642 67.3204 49.5369 67.397 49.5367C67.4737 49.5365 67.5414 49.5652 67.5977 49.6206C67.654 49.6761 67.6812 49.7436 67.6815 49.8206C67.6817 49.8977 67.6533 49.9657 67.5982 50.0223Z" fill="#D9D9D9"/>
<path d="M71.1724 50.0165C71.1173 50.0731 71.0502 50.1004 70.9735 50.1005C70.8969 50.1007 70.8292 50.072 70.7729 50.0166C70.7166 49.9612 70.6893 49.8936 70.6891 49.8166C70.6888 49.7396 70.7173 49.6715 70.7724 49.615C70.8275 49.5584 70.8946 49.5311 70.9712 49.5309C71.0479 49.5308 71.1156 49.5595 71.1719 49.6149C71.2282 49.6703 71.2554 49.7378 71.2557 49.8149C71.256 49.8919 71.2275 49.96 71.1724 50.0165Z" fill="#D9D9D9"/>
<path d="M74.7447 50.011C74.6896 50.0676 74.6224 50.0949 74.5458 50.0951C74.4691 50.0952 74.4014 50.0665 74.3451 50.0111C74.2888 49.9557 74.2616 49.8882 74.2613 49.8111C74.2611 49.7341 74.2895 49.666 74.3446 49.6095C74.3997 49.5529 74.4669 49.5256 74.5435 49.5255C74.6201 49.5253 74.6879 49.554 74.7442 49.6094C74.8005 49.6648 74.8277 49.7323 74.828 49.8094C74.8282 49.8864 74.7998 49.9545 74.7447 50.011Z" fill="#D9D9D9"/>
<path d="M17.5864 55.9048C17.5314 55.9614 17.4642 55.9887 17.3876 55.9889C17.3109 55.989 17.2432 55.9603 17.1869 55.9049C17.1306 55.8495 17.1034 55.782 17.1031 55.7049C17.1029 55.6279 17.1313 55.5598 17.1864 55.5033C17.2415 55.4467 17.3087 55.4194 17.3853 55.4193C17.4619 55.4191 17.5297 55.4478 17.586 55.5032C17.6423 55.5586 17.6695 55.6261 17.6698 55.7032C17.67 55.7802 17.6415 55.8483 17.5864 55.9048Z" fill="#D9D9D9"/>
<path d="M21.1582 55.8993C21.1031 55.9559 21.036 55.9832 20.9594 55.9834C20.8827 55.9835 20.815 55.9549 20.7587 55.8994C20.7024 55.844 20.6752 55.7765 20.6749 55.6994C20.6747 55.6224 20.7031 55.5543 20.7582 55.4978C20.8133 55.4412 20.8804 55.4139 20.9571 55.4138C21.0337 55.4136 21.1015 55.4423 21.1578 55.4977C21.2141 55.5531 21.2413 55.6207 21.2415 55.6977C21.2418 55.7747 21.2133 55.8428 21.1582 55.8993Z" fill="#D9D9D9"/>
<path d="M24.7329 55.8959C24.6778 55.9525 24.6107 55.9798 24.5341 55.9799C24.4574 55.9801 24.3897 55.9514 24.3334 55.896C24.2771 55.8406 24.2499 55.773 24.2496 55.696C24.2494 55.619 24.2778 55.5509 24.3329 55.4944C24.388 55.4378 24.4552 55.4105 24.5318 55.4103C24.6084 55.4102 24.6762 55.4388 24.7325 55.4943C24.7888 55.5497 24.816 55.6172 24.8162 55.6943C24.8165 55.7713 24.788 55.8394 24.7329 55.8959Z" fill="#D9D9D9"/>
<path d="M28.3052 55.8904C28.2501 55.947 28.183 55.9743 28.1063 55.9744C28.0297 55.9746 27.962 55.9459 27.9057 55.8905C27.8494 55.8351 27.8221 55.7676 27.8219 55.6905C27.8216 55.6135 27.8501 55.5454 27.9052 55.4889C27.9603 55.4323 28.0274 55.405 28.1041 55.4048C28.1807 55.4047 28.2484 55.4334 28.3047 55.4888C28.361 55.5442 28.3883 55.6117 28.3885 55.6888C28.3888 55.7658 28.3603 55.8339 28.3052 55.8904Z" fill="#D9D9D9"/>
<path d="M31.8799 55.8848C31.8248 55.9413 31.7577 55.9687 31.681 55.9688C31.6044 55.969 31.5367 55.9403 31.4804 55.8849C31.4241 55.8294 31.3968 55.7619 31.3966 55.6849C31.3963 55.6079 31.4248 55.5398 31.4799 55.4833C31.535 55.4267 31.6021 55.3994 31.6788 55.3992C31.7554 55.3991 31.8231 55.4277 31.8794 55.4832C31.9357 55.5386 31.963 55.6061 31.9632 55.6832C31.9635 55.7602 31.935 55.8283 31.8799 55.8848Z" fill="#D9D9D9"/>
<path d="M35.4517 55.8793C35.3966 55.9359 35.3295 55.9632 35.2528 55.9633C35.1762 55.9635 35.1084 55.9348 35.0521 55.8794C34.9958 55.8239 34.9686 55.7564 34.9684 55.6794C34.9681 55.6024 34.9966 55.5343 35.0517 55.4778C35.1068 55.4212 35.1739 55.3939 35.2505 55.3937C35.3272 55.3936 35.3949 55.4222 35.4512 55.4777C35.5075 55.5331 35.5347 55.6006 35.535 55.6777C35.5352 55.7547 35.5068 55.8228 35.4517 55.8793Z" fill="#D9D9D9"/>
<path d="M39.0264 55.8759C38.9713 55.9324 38.9042 55.9597 38.8275 55.9599C38.7509 55.9601 38.6832 55.9314 38.6269 55.876C38.5706 55.8205 38.5433 55.753 38.5431 55.676C38.5428 55.5989 38.5713 55.5309 38.6264 55.4743C38.6815 55.4178 38.7486 55.3905 38.8252 55.3903C38.9019 55.3901 38.9696 55.4188 39.0259 55.4743C39.0822 55.5297 39.1094 55.5972 39.1097 55.6743C39.11 55.7513 39.0815 55.8194 39.0264 55.8759Z" fill="#D9D9D9"/>
<path d="M42.5987 55.8704C42.5436 55.9269 42.4764 55.9543 42.3998 55.9544C42.3232 55.9546 42.2554 55.9259 42.1991 55.8705C42.1428 55.815 42.1156 55.7475 42.1153 55.6705C42.1151 55.5934 42.1436 55.5254 42.1987 55.4689C42.2537 55.4123 42.3209 55.385 42.3975 55.3848C42.4742 55.3847 42.5419 55.4133 42.5982 55.4688C42.6545 55.5242 42.6817 55.5917 42.682 55.6688C42.6822 55.7458 42.6538 55.8139 42.5987 55.8704Z" fill="#D9D9D9"/>
<path d="M46.1729 55.8647C46.1178 55.9212 46.0506 55.9485 45.974 55.9487C45.8974 55.9489 45.8296 55.9202 45.7733 55.8647C45.717 55.8093 45.6898 55.7418 45.6896 55.6648C45.6893 55.5877 45.7178 55.5197 45.7729 55.4631C45.828 55.4066 45.8951 55.3793 45.9717 55.3791C46.0484 55.3789 46.1161 55.4076 46.1724 55.463C46.2287 55.5185 46.2559 55.586 46.2562 55.663C46.2564 55.7401 46.228 55.8081 46.1729 55.8647Z" fill="#D9D9D9"/>
<path d="M49.7451 55.8592C49.69 55.9157 49.6229 55.943 49.5463 55.9432C49.4696 55.9434 49.4019 55.9147 49.3456 55.8592C49.2893 55.8038 49.2621 55.7363 49.2618 55.6593C49.2616 55.5822 49.29 55.5142 49.3451 55.4576C49.4002 55.4011 49.4674 55.3738 49.544 55.3736C49.6206 55.3734 49.6884 55.4021 49.7447 55.4575C49.801 55.513 49.8282 55.5805 49.8285 55.6575C49.8287 55.7346 49.8002 55.8026 49.7451 55.8592Z" fill="#D9D9D9"/>
<path d="M53.3198 55.8558C53.2648 55.9123 53.1976 55.9396 53.121 55.9398C53.0443 55.94 52.9766 55.9113 52.9203 55.8558C52.864 55.8004 52.8368 55.7329 52.8365 55.6558C52.8363 55.5788 52.8647 55.5107 52.9198 55.4542C52.9749 55.3977 53.0421 55.3704 53.1187 55.3702C53.1953 55.37 53.2631 55.3987 53.3194 55.4541C53.3757 55.5096 53.4029 55.5771 53.4032 55.6541C53.4034 55.7312 53.3749 55.7992 53.3198 55.8558Z" fill="#D9D9D9"/>
<path d="M56.8921 55.8503C56.837 55.9068 56.7699 55.9341 56.6932 55.9343C56.6166 55.9345 56.5489 55.9058 56.4926 55.8503C56.4363 55.7949 56.409 55.7274 56.4088 55.6503C56.4085 55.5733 56.437 55.5053 56.4921 55.4487C56.5472 55.3922 56.6143 55.3649 56.691 55.3647C56.7676 55.3645 56.8353 55.3932 56.8916 55.4486C56.9479 55.5041 56.9752 55.5716 56.9754 55.6486C56.9757 55.7257 56.9472 55.7937 56.8921 55.8503Z" fill="#D9D9D9"/>
<path d="M60.4663 55.8446C60.4112 55.9012 60.3441 55.9285 60.2675 55.9287C60.1908 55.9288 60.1231 55.9002 60.0668 55.8447C60.0105 55.7893 59.9833 55.7218 59.983 55.6447C59.9828 55.5677 60.0112 55.4996 60.0663 55.4431C60.1214 55.3866 60.1886 55.3592 60.2652 55.3591C60.3418 55.3589 60.4096 55.3876 60.4659 55.443C60.5222 55.4985 60.5494 55.566 60.5496 55.643C60.5499 55.72 60.5214 55.7881 60.4663 55.8446Z" fill="#D9D9D9"/>
<path d="M64.0386 55.8392C63.9835 55.8957 63.9164 55.923 63.8397 55.9232C63.7631 55.9234 63.6954 55.8947 63.6391 55.8392C63.5828 55.7838 63.5555 55.7163 63.5553 55.6392C63.555 55.5622 63.5835 55.4941 63.6386 55.4376C63.6937 55.3811 63.7608 55.3538 63.8375 55.3536C63.9141 55.3534 63.9818 55.3821 64.0381 55.4375C64.0944 55.493 64.1217 55.5605 64.1219 55.6375C64.1222 55.7146 64.0937 55.7826 64.0386 55.8392Z" fill="#D9D9D9"/>
<path d="M67.6133 55.8357C67.5582 55.8923 67.4911 55.9196 67.4144 55.9198C67.3378 55.9199 67.2701 55.8913 67.2138 55.8358C67.1575 55.7804 67.1302 55.7129 67.13 55.6358C67.1297 55.5588 67.1582 55.4907 67.2133 55.4342C67.2684 55.3776 67.3355 55.3503 67.4122 55.3502C67.4888 55.35 67.5565 55.3787 67.6128 55.4341C67.6691 55.4895 67.6964 55.5571 67.6966 55.6341C67.6969 55.7111 67.6684 55.7792 67.6133 55.8357Z" fill="#D9D9D9"/>
<path d="M71.1856 55.8302C71.1305 55.8868 71.0633 55.9141 70.9867 55.9143C70.9101 55.9144 70.8423 55.8858 70.786 55.8303C70.7297 55.7749 70.7025 55.7074 70.7023 55.6303C70.702 55.5533 70.7305 55.4852 70.7856 55.4287C70.8407 55.3722 70.9078 55.3448 70.9844 55.3447C71.0611 55.3445 71.1288 55.3732 71.1851 55.4286C71.2414 55.4841 71.2686 55.5516 71.2689 55.6286C71.2691 55.7056 71.2407 55.7737 71.1856 55.8302Z" fill="#D9D9D9"/>
<path d="M74.7598 55.8245C74.7047 55.881 74.6376 55.9083 74.5609 55.9085C74.4843 55.9087 74.4166 55.88 74.3603 55.8246C74.304 55.7691 74.2767 55.7016 74.2765 55.6246C74.2762 55.5476 74.3047 55.4795 74.3598 55.423C74.4149 55.3664 74.482 55.3391 74.5586 55.3389C74.6353 55.3388 74.703 55.3674 74.7593 55.4229C74.8156 55.4783 74.8429 55.5458 74.8431 55.6229C74.8434 55.6999 74.8149 55.768 74.7598 55.8245Z" fill="#D9D9D9"/>
<path d="M17.5991 61.7185C17.544 61.7751 17.4769 61.8024 17.4003 61.8026C17.3236 61.8027 17.2559 61.7741 17.1996 61.7186C17.1433 61.6632 17.1161 61.5957 17.1158 61.5186C17.1156 61.4416 17.144 61.3735 17.1991 61.317C17.2542 61.2605 17.3214 61.2331 17.398 61.233C17.4746 61.2328 17.5424 61.2615 17.5987 61.3169C17.655 61.3724 17.6822 61.4399 17.6825 61.5169C17.6827 61.594 17.6542 61.662 17.5991 61.7185Z" fill="#D9D9D9"/>
<path d="M21.1739 61.7128C21.1188 61.7693 21.0516 61.7967 20.975 61.7968C20.8983 61.797 20.8306 61.7683 20.7743 61.7129C20.718 61.6574 20.6908 61.5899 20.6905 61.5129C20.6903 61.4359 20.7187 61.3678 20.7738 61.3113C20.8289 61.2547 20.8961 61.2274 20.9727 61.2272C21.0494 61.2271 21.1171 61.2557 21.1734 61.3112C21.2297 61.3666 21.2569 61.4341 21.2572 61.5112C21.2574 61.5882 21.2289 61.6563 21.1739 61.7128Z" fill="#D9D9D9"/>
<path d="M24.7456 61.7073C24.6905 61.7639 24.6234 61.7912 24.5468 61.7913C24.4701 61.7915 24.4024 61.7628 24.3461 61.7074C24.2898 61.652 24.2626 61.5844 24.2623 61.5074C24.2621 61.4304 24.2905 61.3623 24.3456 61.3058C24.4007 61.2492 24.4678 61.2219 24.5445 61.2217C24.6211 61.2216 24.6889 61.2502 24.7452 61.3057C24.8015 61.3611 24.8287 61.4286 24.8289 61.5057C24.8292 61.5827 24.8007 61.6508 24.7456 61.7073Z" fill="#D9D9D9"/>
<path d="M28.3203 61.7016C28.2652 61.7581 28.1981 61.7854 28.1215 61.7856C28.0448 61.7858 27.9771 61.7571 27.9208 61.7017C27.8645 61.6462 27.8373 61.5787 27.837 61.5017C27.8368 61.4246 27.8652 61.3566 27.9203 61.3C27.9754 61.2435 28.0426 61.2162 28.1192 61.216C28.1958 61.2158 28.2636 61.2445 28.3199 61.3C28.3762 61.3554 28.4034 61.4229 28.4036 61.4999C28.4039 61.577 28.3754 61.645 28.3203 61.7016Z" fill="#D9D9D9"/>
<path d="M31.8926 61.6984C31.8375 61.7549 31.7704 61.7823 31.6937 61.7824C31.6171 61.7826 31.5494 61.7539 31.4931 61.6985C31.4368 61.643 31.4095 61.5755 31.4093 61.4985C31.409 61.4215 31.4375 61.3534 31.4926 61.2969C31.5477 61.2403 31.6148 61.213 31.6915 61.2128C31.7681 61.2127 31.8358 61.2413 31.8921 61.2968C31.9484 61.3522 31.9757 61.4197 31.9759 61.4968C31.9762 61.5738 31.9477 61.6419 31.8926 61.6984Z" fill="#D9D9D9"/>
<path d="M35.4668 61.6928C35.4117 61.7493 35.3446 61.7766 35.268 61.7768C35.1913 61.777 35.1236 61.7483 35.0673 61.6929C35.011 61.6374 34.9838 61.5699 34.9835 61.4929C34.9833 61.4158 35.0117 61.3478 35.0668 61.2912C35.1219 61.2347 35.189 61.2074 35.2657 61.2072C35.3423 61.207 35.41 61.2357 35.4663 61.2912C35.5226 61.3466 35.5499 61.4141 35.5501 61.4911C35.5504 61.5682 35.5219 61.6362 35.4668 61.6928Z" fill="#D9D9D9"/>
<path d="M39.0391 61.6873C38.984 61.7438 38.9169 61.7711 38.8402 61.7713C38.7636 61.7715 38.6959 61.7428 38.6396 61.6874C38.5833 61.6319 38.556 61.5644 38.5558 61.4874C38.5555 61.4103 38.584 61.3423 38.6391 61.2857C38.6942 61.2292 38.7613 61.2019 38.8379 61.2017C38.9146 61.2015 38.9823 61.2302 39.0386 61.2857C39.0949 61.3411 39.1221 61.4086 39.1224 61.4857C39.1227 61.5627 39.0942 61.6308 39.0391 61.6873Z" fill="#D9D9D9"/>
<path d="M42.6138 61.6816C42.5587 61.7381 42.4916 61.7654 42.4149 61.7656C42.3383 61.7658 42.2706 61.7371 42.2143 61.6816C42.158 61.6262 42.1307 61.5587 42.1305 61.4816C42.1302 61.4046 42.1587 61.3366 42.2138 61.28C42.2689 61.2235 42.336 61.1962 42.4127 61.196C42.4893 61.1958 42.557 61.2245 42.6133 61.2799C42.6696 61.3354 42.6969 61.4029 42.6971 61.4799C42.6974 61.557 42.6689 61.625 42.6138 61.6816Z" fill="#D9D9D9"/>
<path d="M46.1861 61.6784C46.131 61.7349 46.0638 61.7622 45.9872 61.7624C45.9106 61.7626 45.8428 61.7339 45.7865 61.6785C45.7302 61.623 45.703 61.5555 45.7027 61.4785C45.7025 61.4014 45.731 61.3334 45.7861 61.2768C45.8411 61.2203 45.9083 61.193 45.9849 61.1928C46.0616 61.1926 46.1293 61.2213 46.1856 61.2768C46.2419 61.3322 46.2691 61.3997 46.2694 61.4767C46.2696 61.5538 46.2412 61.6218 46.1861 61.6784Z" fill="#D9D9D9"/>
<path d="M49.7603 61.6726C49.7052 61.7292 49.6381 61.7565 49.5614 61.7567C49.4848 61.7568 49.417 61.7282 49.3607 61.6727C49.3044 61.6173 49.2772 61.5498 49.277 61.4727C49.2767 61.3957 49.3052 61.3276 49.3603 61.2711C49.4154 61.2146 49.4825 61.1873 49.5591 61.1871C49.6358 61.1869 49.7035 61.2156 49.7598 61.271C49.8161 61.3265 49.8433 61.394 49.8436 61.471C49.8438 61.5481 49.8154 61.6161 49.7603 61.6726Z" fill="#D9D9D9"/>
<path d="M53.3325 61.6672C53.2774 61.7237 53.2103 61.751 53.1337 61.7512C53.057 61.7514 52.9893 61.7227 52.933 61.6672C52.8767 61.6118 52.8495 61.5443 52.8492 61.4672C52.849 61.3902 52.8774 61.3221 52.9325 61.2656C52.9876 61.2091 53.0548 61.1818 53.1314 61.1816C53.208 61.1814 53.2758 61.2101 53.3321 61.2655C53.3884 61.321 53.4156 61.3885 53.4159 61.4655C53.4161 61.5426 53.3876 61.6106 53.3325 61.6672Z" fill="#D9D9D9"/>
<path d="M56.9068 61.6614C56.8517 61.718 56.7845 61.7453 56.7079 61.7454C56.6313 61.7456 56.5635 61.7169 56.5072 61.6615C56.4509 61.6061 56.4237 61.5385 56.4234 61.4615C56.4232 61.3845 56.4517 61.3164 56.5068 61.2599C56.5618 61.2033 56.629 61.176 56.7056 61.1758C56.7823 61.1757 56.85 61.2044 56.9063 61.2598C56.9626 61.3152 56.9898 61.3827 56.9901 61.4598C56.9903 61.5368 56.9619 61.6049 56.9068 61.6614Z" fill="#D9D9D9"/>
<path d="M60.4795 61.6582C60.4244 61.7148 60.3573 61.7421 60.2807 61.7423C60.204 61.7424 60.1363 61.7138 60.08 61.6583C60.0237 61.6029 59.9964 61.5354 59.9962 61.4583C59.9959 61.3813 60.0244 61.3132 60.0795 61.2567C60.1346 61.2002 60.2017 61.1728 60.2784 61.1727C60.355 61.1725 60.4227 61.2012 60.479 61.2566C60.5353 61.3121 60.5626 61.3796 60.5628 61.4566C60.5631 61.5336 60.5346 61.6017 60.4795 61.6582Z" fill="#D9D9D9"/>
<path d="M64.0537 61.6526C63.9986 61.7092 63.9315 61.7365 63.8549 61.7367C63.7782 61.7368 63.7105 61.7082 63.6542 61.6527C63.5979 61.5973 63.5707 61.5298 63.5704 61.4527C63.5702 61.3757 63.5986 61.3076 63.6537 61.2511C63.7088 61.1945 63.776 61.1672 63.8526 61.1671C63.9292 61.1669 63.997 61.1956 64.0533 61.251C64.1096 61.3064 64.1368 61.374 64.137 61.451C64.1373 61.528 64.1088 61.5961 64.0537 61.6526Z" fill="#D9D9D9"/>
<path d="M67.626 61.6471C67.5709 61.7037 67.5038 61.731 67.4271 61.7312C67.3505 61.7313 67.2828 61.7027 67.2265 61.6472C67.1702 61.5918 67.1429 61.5243 67.1427 61.4472C67.1424 61.3702 67.1709 61.3021 67.226 61.2456C67.2811 61.189 67.3482 61.1617 67.4249 61.1616C67.5015 61.1614 67.5692 61.1901 67.6255 61.2455C67.6818 61.3009 67.7091 61.3685 67.7093 61.4455C67.7096 61.5225 67.6811 61.5906 67.626 61.6471Z" fill="#D9D9D9"/>
<path d="M71.2002 61.6414C71.1451 61.6979 71.078 61.7252 71.0014 61.7254C70.9247 61.7256 70.857 61.6969 70.8007 61.6415C70.7444 61.586 70.7172 61.5185 70.7169 61.4415C70.7166 61.3644 70.7451 61.2964 70.8002 61.2398C70.8553 61.1833 70.9224 61.156 70.9991 61.1558C71.0757 61.1556 71.1434 61.1843 71.1997 61.2398C71.256 61.2952 71.2833 61.3627 71.2835 61.4398C71.2838 61.5168 71.2553 61.5849 71.2002 61.6414Z" fill="#D9D9D9"/>
<path d="M74.773 61.6382C74.7179 61.6948 74.6507 61.7221 74.5741 61.7222C74.4975 61.7224 74.4297 61.6937 74.3734 61.6383C74.3171 61.5829 74.2899 61.5154 74.2897 61.4383C74.2894 61.3613 74.3179 61.2932 74.373 61.2367C74.4281 61.1801 74.4952 61.1528 74.5718 61.1527C74.6485 61.1525 74.7162 61.1812 74.7725 61.2366C74.8288 61.292 74.856 61.3595 74.8563 61.4366C74.8565 61.5136 74.8281 61.5817 74.773 61.6382Z" fill="#D9D9D9"/>
<path d="M17.6143 67.5297C17.5592 67.5862 17.4921 67.6136 17.4154 67.6137C17.3388 67.6139 17.271 67.5852 17.2147 67.5298C17.1584 67.4743 17.1312 67.4068 17.131 67.3298C17.1307 67.2527 17.1592 67.1847 17.2143 67.1282C17.2694 67.0716 17.3365 67.0443 17.4131 67.0441C17.4898 67.044 17.5575 67.0726 17.6138 67.1281C17.6701 67.1835 17.6973 67.251 17.6976 67.3281C17.6978 67.4051 17.6694 67.4732 17.6143 67.5297Z" fill="#D9D9D9"/>
<path d="M21.1865 67.5264C21.1315 67.5829 21.0643 67.6103 20.9877 67.6104C20.911 67.6106 20.8433 67.5819 20.787 67.5265C20.7307 67.471 20.7035 67.4035 20.7032 67.3265C20.703 67.2495 20.7314 67.1814 20.7865 67.1249C20.8416 67.0683 20.9088 67.041 20.9854 67.0408C21.062 67.0407 21.1298 67.0693 21.1861 67.1248C21.2424 67.1802 21.2696 67.2477 21.2699 67.3248C21.2701 67.4018 21.2416 67.4699 21.1865 67.5264Z" fill="#D9D9D9"/>
<path d="M24.7608 67.5208C24.7057 67.5773 24.6385 67.6046 24.5619 67.6048C24.4853 67.605 24.4175 67.5763 24.3612 67.5209C24.3049 67.4654 24.2777 67.3979 24.2774 67.3209C24.2772 67.2438 24.3057 67.1758 24.3608 67.1192C24.4159 67.0627 24.483 67.0354 24.5596 67.0352C24.6363 67.035 24.704 67.0637 24.7603 67.1192C24.8166 67.1746 24.8438 67.2421 24.8441 67.3192C24.8443 67.3962 24.8159 67.4643 24.7608 67.5208Z" fill="#D9D9D9"/>
<path d="M28.333 67.5153C28.2779 67.5718 28.2108 67.5991 28.1342 67.5993C28.0575 67.5995 27.9898 67.5708 27.9335 67.5154C27.8772 67.4599 27.85 67.3924 27.8497 67.3154C27.8495 67.2384 27.8779 67.1703 27.933 67.1138C27.9881 67.0572 28.0552 67.0299 28.1319 67.0297C28.2085 67.0296 28.2763 67.0582 28.3326 67.1137C28.3889 67.1691 28.4161 67.2366 28.4163 67.3137C28.4166 67.3907 28.3881 67.4588 28.333 67.5153Z" fill="#D9D9D9"/>
<path d="M31.9077 67.5096C31.8526 67.5661 31.7855 67.5934 31.7089 67.5936C31.6322 67.5938 31.5645 67.5651 31.5082 67.5096C31.4519 67.4542 31.4247 67.3867 31.4244 67.3096C31.4242 67.2326 31.4526 67.1646 31.5077 67.108C31.5628 67.0515 31.63 67.0242 31.7066 67.024C31.7832 67.0238 31.851 67.0525 31.9073 67.1079C31.9636 67.1634 31.9908 67.2309 31.991 67.3079C31.9913 67.385 31.9628 67.453 31.9077 67.5096Z" fill="#D9D9D9"/>
<path d="M35.4795 67.5041C35.4244 67.5606 35.3573 67.5879 35.2807 67.5881C35.204 67.5883 35.1363 67.5596 35.08 67.5041C35.0237 67.4487 34.9964 67.3812 34.9962 67.3042C34.9959 67.2271 35.0244 67.1591 35.0795 67.1025C35.1346 67.046 35.2017 67.0187 35.2784 67.0185C35.355 67.0183 35.4227 67.047 35.479 67.1024C35.5353 67.1579 35.5626 67.2254 35.5628 67.3024C35.5631 67.3795 35.5346 67.4475 35.4795 67.5041Z" fill="#D9D9D9"/>
<path d="M39.0542 67.5007C38.9991 67.5572 38.932 67.5845 38.8554 67.5847C38.7787 67.5849 38.711 67.5562 38.6547 67.5007C38.5984 67.4453 38.5712 67.3778 38.5709 67.3007C38.5707 67.2237 38.5991 67.1556 38.6542 67.0991C38.7093 67.0426 38.7764 67.0153 38.8531 67.0151C38.9297 67.0149 38.9975 67.0436 39.0538 67.099C39.1101 67.1545 39.1373 67.222 39.1375 67.299C39.1378 67.3761 39.1093 67.4441 39.0542 67.5007Z" fill="#D9D9D9"/>
<path d="M42.6265 67.4952C42.5714 67.5517 42.5043 67.579 42.4276 67.5792C42.351 67.5794 42.2833 67.5507 42.227 67.4952C42.1707 67.4398 42.1434 67.3723 42.1432 67.2953C42.1429 67.2182 42.1714 67.1501 42.2265 67.0936C42.2816 67.0371 42.3487 67.0098 42.4253 67.0096C42.502 67.0094 42.5697 67.0381 42.626 67.0935C42.6823 67.149 42.7096 67.2165 42.7098 67.2935C42.7101 67.3706 42.6816 67.4386 42.6265 67.4952Z" fill="#D9D9D9"/>
<path d="M46.2007 67.4894C46.1456 67.546 46.0785 67.5733 46.0018 67.5734C45.9252 67.5736 45.8575 67.5449 45.8012 67.4895C45.7449 67.4341 45.7176 67.3666 45.7174 67.2895C45.7171 67.2125 45.7456 67.1444 45.8007 67.0879C45.8558 67.0313 45.9229 67.004 45.9996 67.0038C46.0762 67.0037 46.1439 67.0324 46.2002 67.0878C46.2565 67.1432 46.2838 67.2107 46.284 67.2878C46.2843 67.3648 46.2558 67.4329 46.2007 67.4894Z" fill="#D9D9D9"/>
<path d="M49.773 67.484C49.7179 67.5406 49.6507 67.5679 49.5741 67.5681C49.4975 67.5683 49.4297 67.5396 49.3734 67.4841C49.3171 67.4287 49.2899 67.3612 49.2897 67.2841C49.2894 67.2071 49.3179 67.139 49.373 67.0825C49.4281 67.026 49.4952 66.9987 49.5718 66.9985C49.6485 66.9983 49.7162 67.027 49.7725 67.0824C49.8288 67.1379 49.856 67.2054 49.8563 67.2824C49.8565 67.3595 49.8281 67.4275 49.773 67.484Z" fill="#D9D9D9"/>
<path d="M53.3452 67.4809C53.2901 67.5374 53.223 67.5647 53.1464 67.5649C53.0697 67.5651 53.002 67.5364 52.9457 67.481C52.8894 67.4255 52.8622 67.358 52.8619 67.281C52.8617 67.2039 52.8901 67.1359 52.9452 67.0793C53.0003 67.0228 53.0675 66.9955 53.1441 66.9953C53.2207 66.9951 53.2885 67.0238 53.3448 67.0792C53.4011 67.1347 53.4283 67.2022 53.4286 67.2792C53.4288 67.3563 53.4003 67.4243 53.3452 67.4809Z" fill="#D9D9D9"/>
<path d="M56.9199 67.4751C56.8648 67.5317 56.7977 67.559 56.7211 67.5592C56.6444 67.5593 56.5767 67.5307 56.5204 67.4752C56.4641 67.4198 56.4369 67.3523 56.4366 67.2752C56.4364 67.1982 56.4648 67.1301 56.5199 67.0736C56.575 67.0171 56.6422 66.9897 56.7188 66.9896C56.7954 66.9894 56.8632 67.0181 56.9195 67.0735C56.9758 67.129 57.003 67.1965 57.0033 67.2735C57.0035 67.3505 56.975 67.4186 56.9199 67.4751Z" fill="#D9D9D9"/>
<path d="M60.4922 67.4696C60.4371 67.5262 60.37 67.5535 60.2933 67.5537C60.2167 67.5538 60.149 67.5252 60.0927 67.4697C60.0364 67.4143 60.0091 67.3468 60.0089 67.2697C60.0086 67.1927 60.0371 67.1246 60.0922 67.0681C60.1473 67.0116 60.2144 66.9842 60.2911 66.9841C60.3677 66.9839 60.4354 67.0126 60.4917 67.068C60.548 67.1235 60.5753 67.191 60.5755 67.268C60.5758 67.3451 60.5473 67.4131 60.4922 67.4696Z" fill="#D9D9D9"/>
<path d="M64.0664 67.4639C64.0113 67.5204 63.9442 67.5478 63.8676 67.5479C63.7909 67.5481 63.7232 67.5194 63.6669 67.464C63.6106 67.4085 63.5834 67.341 63.5831 67.264C63.5829 67.187 63.6113 67.1189 63.6664 67.0624C63.7215 67.0058 63.7886 66.9785 63.8653 66.9783C63.9419 66.9782 64.0097 67.0068 64.066 67.0623C64.1223 67.1177 64.1495 67.1852 64.1497 67.2623C64.15 67.3393 64.1215 67.4074 64.0664 67.4639Z" fill="#D9D9D9"/>
<path d="M67.6387 67.4607C67.5836 67.5173 67.5165 67.5446 67.4398 67.5448C67.3632 67.5449 67.2955 67.5163 67.2392 67.4608C67.1829 67.4054 67.1556 67.3379 67.1554 67.2608C67.1551 67.1838 67.1836 67.1157 67.2387 67.0592C67.2938 67.0026 67.3609 66.9753 67.4376 66.9752C67.5142 66.975 67.5819 67.0037 67.6382 67.0591C67.6945 67.1145 67.7218 67.1821 67.722 67.2591C67.7223 67.3361 67.6938 67.4042 67.6387 67.4607Z" fill="#D9D9D9"/>
<path d="M71.2134 67.455C71.1583 67.5115 71.0912 67.5388 71.0145 67.539C70.9379 67.5392 70.8702 67.5105 70.8139 67.4551C70.7576 67.3996 70.7303 67.3321 70.7301 67.2551C70.7298 67.178 70.7583 67.11 70.8134 67.0534C70.8685 66.9969 70.9356 66.9696 71.0123 66.9694C71.0889 66.9692 71.1566 66.9979 71.2129 67.0534C71.2692 67.1088 71.2965 67.1763 71.2967 67.2534C71.297 67.3304 71.2685 67.3985 71.2134 67.455Z" fill="#D9D9D9"/>
<path d="M74.7852 67.4495C74.7301 67.506 74.663 67.5333 74.5863 67.5335C74.5097 67.5337 74.4419 67.505 74.3856 67.4496C74.3293 67.3941 74.3021 67.3266 74.3019 67.2496C74.3016 67.1725 74.3301 67.1045 74.3852 67.048C74.4403 66.9914 74.5074 66.9641 74.584 66.9639C74.6607 66.9638 74.7284 66.9924 74.7847 67.0479C74.841 67.1033 74.8682 67.1708 74.8685 67.2479C74.8687 67.3249 74.8403 67.393 74.7852 67.4495Z" fill="#D9D9D9"/>
<g opacity="0.8">
<g opacity="0.8">
<path d="M82.1931 18.7161C82.7448 18.0595 83.189 17.322 83.7332 16.6591C83.9293 16.4213 84.1746 16.09 84.441 15.8829L67.4691 1.451C67.2232 2.07421 66.4514 2.78641 66.1329 3.18057C65.1279 4.42839 64.1206 5.67642 63.07 6.88414L79.9838 21.2678C80.5639 20.319 81.4726 19.5799 82.1956 18.7182L82.1931 18.7161Z" fill="#7DA8BF"/>
<path d="M81.6498 18.5854L81.8103 18.3944C82.0712 18.0839 82.3091 17.7514 82.5583 17.4005L82.5896 17.3564C82.8257 17.0238 83.0735 16.6747 83.3468 16.3419L83.3474 16.3411C83.3743 16.3085 83.4046 16.2707 83.4378 16.2292C83.5125 16.1361 83.602 16.0244 83.7016 15.9105L67.6055 2.22332C67.4781 2.40541 67.3377 2.57666 67.2067 2.72842C67.0786 2.87679 66.9489 3.0182 66.8352 3.14214C66.8267 3.1514 66.8183 3.16055 66.81 3.16961C66.6864 3.30441 66.5899 3.41056 66.5221 3.49449L81.6498 18.5854ZM81.6498 18.5854C81.4461 18.8153 81.2317 19.0368 81.0088 19.2672C80.899 19.3807 80.7871 19.4964 80.6734 19.6162C80.4043 19.8998 80.1321 20.2002 79.8851 20.5275L63.7776 6.82959L81.6498 18.5854ZM82.226 18.6766C82.4992 18.3475 82.7466 17.9989 82.9941 17.6503C83.2328 17.3142 83.4714 16.978 83.7332 16.6591L82.226 18.6766Z" stroke="black" stroke-opacity="0.4"/>
</g>
</g>
<g opacity="0.8">
<g opacity="0.8">
<path d="M24.5657 77.6579C25.1174 77.0013 25.5617 76.2638 26.1058 75.601C26.3019 75.3631 26.5473 75.0318 26.8136 74.8247L9.83924 60.3907C9.59334 61.0139 8.82151 61.7261 8.50304 62.1203C7.49801 63.3681 6.49067 64.6161 5.44007 65.8238L22.354 80.2075C22.934 79.2587 23.8427 78.5196 24.5657 77.6579Z" fill="#7DA8BF"/>
<path d="M24.1827 77.3365L24.1829 77.3362C24.4438 77.0257 24.6817 76.6932 24.9309 76.3423C24.9414 76.3276 24.9518 76.3128 24.9623 76.2981C25.1984 75.9655 25.4462 75.6165 25.7194 75.2837L25.72 75.283C25.7469 75.2503 25.7772 75.2125 25.8105 75.171C25.8851 75.0779 25.9747 74.9662 26.0742 74.8523L9.97564 61.163C9.8482 61.3451 9.70784 61.5164 9.57682 61.6681C9.44873 61.8165 9.31899 61.9579 9.20529 62.0819C9.19681 62.0911 9.18841 62.1003 9.18011 62.1093C9.05647 62.2441 8.96002 62.3503 8.89218 62.4342M24.1827 77.3365L5.76684 65.4454C6.70039 64.3563 7.60264 63.2382 8.50304 62.1203L8.89195 62.4345C8.89203 62.4344 8.8921 62.4343 8.89218 62.4342M24.1827 77.3365C23.9316 77.6358 23.6621 77.9143 23.379 78.2069C23.2691 78.3204 23.1572 78.4361 23.0435 78.5559C22.7745 78.8395 22.5022 79.1399 22.2553 79.4672M24.1827 77.3365L22.2553 79.4672M8.89218 62.4342C7.99294 63.5507 7.08675 64.6737 6.14774 65.7693L22.2553 79.4672M8.89218 62.4342L22.2553 79.4672" stroke="black" stroke-opacity="0.4"/>
</g>
</g>
</svg>
