<svg width="85" height="84" viewBox="0 0 85 84" fill="none" xmlns="http://www.w3.org/2000/svg">
<g clip-path="url(#clip0_58_71)">
<g style="mix-blend-mode:multiply">
<path d="M76.6846 10.0421L9.61591 9.84683L9.54073 76.4038L76.6119 76.5971L76.6846 10.0421ZM12.6918 14.5141C12.6931 13.6361 13.4107 12.9246 14.2978 12.9277C15.1826 12.9306 15.9008 13.6439 15.8993 14.5242C15.898 15.4022 15.1804 16.1137 14.2933 16.1106C13.4085 16.1077 12.6902 15.3944 12.6918 14.5141ZM12.6841 21.7559C12.6854 20.8779 13.403 20.1664 14.2901 20.1695C15.1749 20.1724 15.8931 20.8857 15.8916 21.766C15.8903 22.644 15.1727 23.3555 14.2856 23.3524C13.4008 23.3495 12.6825 22.6362 12.6841 21.7559ZM12.6764 28.9977C12.6777 28.1197 13.3953 27.4082 14.2823 27.4113C15.1672 27.4142 15.8854 28.1275 15.8839 29.0078C15.8823 29.8881 15.165 30.5973 14.2779 30.5942C13.3931 30.5914 12.6748 29.878 12.6764 28.9977ZM12.6687 36.2395C12.67 35.3615 13.3875 34.65 14.2746 34.6531C15.1595 34.656 15.8777 35.3694 15.8761 36.2496C15.8748 37.1277 15.1573 37.8392 14.2702 37.836C13.3854 37.8332 12.6671 37.1198 12.6687 36.2395ZM12.661 43.4814C12.6623 42.6033 13.3798 41.8918 14.2669 41.895C15.1517 41.8978 15.87 42.6112 15.8684 43.4915C15.8671 44.3695 15.1495 45.081 14.2625 45.0779C13.3776 45.075 12.6594 44.3616 12.661 43.4814ZM12.6532 50.7232C12.6545 49.8451 13.3721 49.1337 14.2592 49.1368C15.144 49.1396 15.8623 49.853 15.8607 50.7333C15.8594 51.6113 15.1418 52.3228 14.2547 52.3197C13.3699 52.3168 12.6517 51.6035 12.6532 50.7232ZM12.6455 57.965C12.6468 57.087 13.3644 56.3755 14.2515 56.3786C15.1363 56.3815 15.8546 57.0948 15.853 57.9751C15.8517 58.8531 15.1341 59.5646 14.247 59.5615C13.3622 59.5586 12.644 58.8453 12.6455 57.965ZM12.6378 65.2068C12.6391 64.3288 13.3567 63.6173 14.2438 63.6204C15.1286 63.6233 15.8469 64.3366 15.8453 65.2169C15.844 66.0949 15.1264 66.8064 14.2393 66.8033C13.3522 66.8002 12.6362 66.0871 12.6378 65.2068ZM14.2316 74.0451C13.3468 74.0423 12.6285 73.3289 12.6301 72.4486C12.6314 71.5706 13.349 70.8591 14.2361 70.8622C15.1209 70.8651 15.8392 71.5785 15.8376 72.4587C15.8363 73.3368 15.1187 74.0483 14.2316 74.0451Z" fill="#D9D9D9"/>
</g>
<path d="M75.5555 8.88844L8.4843 8.69516L8.40912 75.2522L75.4803 75.4454L75.5555 8.88844ZM11.5604 13.3601C11.5618 12.4821 12.2793 11.7706 13.1664 11.7738C14.0535 11.7769 14.7695 12.49 14.7679 13.3703C14.7666 14.2483 14.049 14.9598 13.162 14.9566C12.2771 14.9538 11.5589 14.2404 11.5604 13.3601ZM11.5527 20.602C11.554 19.7239 12.2716 19.0124 13.1587 19.0156C14.0435 19.0184 14.7618 19.7318 14.7602 20.6121C14.7589 21.4901 14.0413 22.2016 13.1542 22.1985C12.2694 22.1956 11.5512 21.4823 11.5527 20.602ZM11.545 27.8438C11.5463 26.9658 12.2639 26.2543 13.151 26.2574C14.0358 26.2603 14.7541 26.9736 14.7525 27.8539C14.7512 28.7319 14.0336 29.4434 13.1465 29.4403C12.2617 29.4374 11.5435 28.7241 11.545 27.8438ZM11.5373 35.0856C11.5386 34.2076 12.2562 33.4961 13.1433 33.4992C14.0281 33.5021 14.7464 34.2154 14.7448 35.0957C14.7435 35.9737 14.0259 36.6852 13.1388 36.6821C12.254 36.6792 11.5357 35.9659 11.5373 35.0856ZM11.5296 42.3274C11.5309 41.4494 12.2485 40.7379 13.1356 40.741C14.0204 40.7439 14.7387 41.4572 14.7371 42.3375C14.7358 43.2156 14.0182 43.927 13.1311 43.9239C12.2463 43.9211 11.528 43.2077 11.5296 42.3274ZM11.5219 49.5692C11.5232 48.6912 12.2408 47.9797 13.1279 47.9828C14.015 47.986 14.7309 48.6991 14.7294 49.5793C14.7281 50.4574 14.0105 51.1689 13.1234 51.1657C12.2386 51.1629 11.5203 50.4495 11.5219 49.5692ZM11.5142 56.811C11.5155 55.933 12.2331 55.2215 13.1202 55.2247C14.005 55.2275 14.7232 55.9409 14.7217 56.8212C14.7204 57.6992 14.0028 58.4107 13.1157 58.4076C12.2309 58.4047 11.5126 57.6913 11.5142 56.811ZM11.5065 64.0529C11.5078 63.1748 12.2254 62.4633 13.1124 62.4665C13.9973 62.4693 14.7155 63.1827 14.714 64.063C14.7126 64.941 13.9951 65.6525 13.108 65.6494C12.2209 65.6462 11.5049 64.9332 11.5065 64.0529ZM13.1003 72.8912C12.2155 72.8883 11.4972 72.175 11.4988 71.2947C11.5001 70.4167 12.2176 69.7052 13.1047 69.7083C13.9895 69.7112 14.7078 70.4245 14.7062 71.3048C14.7049 72.1828 13.9874 72.8943 13.1003 72.8912Z" fill="white"/>
<path d="M13.1605 18.5156C14.3166 18.5194 15.2622 19.4524 15.2602 20.6128L13.1605 18.5156ZM13.1605 18.5156C11.9998 18.5115 11.0545 19.4437 11.0527 20.6011L13.1605 18.5156ZM13.1526 25.7574C14.3088 25.7611 15.2545 26.6942 15.2525 27.8546L13.1526 25.7574ZM13.1526 25.7574C11.992 25.7534 11.0468 26.6856 11.045 27.8429L13.1526 25.7574ZM13.1449 32.9992C14.3011 33.003 15.2468 33.936 15.2448 35.0965L13.1449 32.9992ZM13.1449 32.9992C11.9843 32.9952 11.0391 33.9274 11.0373 35.0847L13.1449 32.9992ZM13.1372 40.241C14.2935 40.2448 15.2392 41.1779 15.2371 42.3384C15.2353 43.4957 14.2901 44.4279 13.1295 44.4239L13.1372 40.241ZM13.1372 40.241C11.9766 40.237 11.0314 41.1692 11.0296 42.3265M13.1372 40.241L11.0296 42.3265M11.0296 42.3265C11.0275 43.487 11.9731 44.4201 13.1293 44.4239L11.0296 42.3265ZM15.2217 56.8221C15.2199 57.9794 14.2747 58.9116 13.1141 58.9075L15.2217 56.8221ZM15.2217 56.8221C15.2237 55.6616 14.2781 54.7285 13.1219 54.7247L15.2217 56.8221ZM13.1141 61.9665C14.2703 61.9702 15.216 62.9033 15.214 64.0639C15.2121 65.2212 14.2669 66.1535 13.1062 66.1494C11.9475 66.1453 11.0045 65.2122 11.0065 64.0521L13.1141 61.9665ZM13.1141 61.9665C11.9534 61.9625 11.0083 62.8947 11.0065 64.052L13.1141 61.9665ZM74.9809 74.944L8.90969 74.7536L8.98374 9.1966L75.0549 9.387L74.9809 74.944ZM13.1682 11.2738C12.0075 11.2697 11.0623 12.2019 11.0604 13.3593L15.2679 13.371C15.2699 12.2109 14.3269 11.2778 13.1682 11.2738ZM11.0604 13.3594C11.0585 14.5199 12.0041 15.4529 13.1603 15.4566C14.321 15.4607 15.2661 14.5285 15.2679 13.3711L11.0604 13.3594ZM11.0527 20.6012C11.0507 21.7617 11.9964 22.6947 13.1526 22.6985C14.3133 22.7025 15.2584 21.7703 15.2602 20.613L11.0527 20.6012ZM11.045 27.843C11.043 29.0035 11.9887 29.9365 13.1449 29.9403C14.3055 29.9443 15.2507 29.0121 15.2525 27.8548L11.045 27.843ZM11.0373 35.0849C11.0353 36.2453 11.981 37.1784 13.1372 37.1821C14.2978 37.1861 15.243 36.2539 15.2448 35.0966L11.0373 35.0849ZM13.1296 47.4828C11.9689 47.4788 11.0237 48.411 11.0219 49.5683L15.2294 49.5801C15.2314 48.42 14.2884 47.4869 13.1296 47.4828ZM11.0219 49.5685C11.0199 50.7289 11.9655 51.6619 13.1216 51.6657C13.1217 51.6657 13.1217 51.6657 13.1218 51.6657L13.1234 51.1657C14.0105 51.1689 14.7281 50.4574 14.7294 49.5793L15.2294 49.5802L11.0219 49.5685ZM13.1218 54.7247C11.9611 54.7206 11.016 55.6528 11.0142 56.8102L13.1218 54.7247ZM11.0142 56.8103C11.0122 57.9707 11.9578 58.9037 13.1139 58.9075L11.0142 56.8103ZM10.9988 71.2939C10.9968 72.4543 11.9423 73.3874 13.0985 73.3912L10.9988 71.2939ZM13.0986 73.3912C14.2593 73.3952 15.2044 72.463 15.2062 71.3057C15.2083 70.1452 14.2627 69.2121 13.1065 69.2083L13.0986 73.3912ZM13.1064 69.2083C11.9457 69.2043 11.0006 70.1365 10.9988 71.2938L13.1064 69.2083Z" stroke="black" stroke-opacity="0.4"/>
<g opacity="0.8">
<g opacity="0.8">
<path d="M16.2922 7.36065C16.3977 8.27149 16.4892 9.18528 16.5641 10.1018C16.6445 11.092 16.7061 12.0848 16.7678 13.0775L43.6348 11.149C43.4828 10.2008 43.3897 9.24111 43.3682 8.28042C43.3588 7.87913 43.3595 7.46985 43.2228 7.09289C43.1706 6.94512 43.0948 6.80152 43.0989 6.6442C43.101 6.52552 43.1485 6.41204 43.1711 6.29569C43.2028 6.11866 43.1727 5.93912 43.1445 5.76209C43.1149 5.3562 42.8341 4.74778 42.9256 4.33059L16.1979 6.24986C16.2707 6.60122 16.2545 7.04532 16.2922 7.36065Z" fill="#5D92AF"/>
<path d="M16.7886 7.3013L16.7888 7.30308C16.895 8.21912 16.987 9.13852 17.0625 10.061L17.0625 10.0613C17.1296 10.8887 17.1837 11.7171 17.2354 12.5426L43.0611 10.6889M43.0611 10.6889C42.953 9.89581 42.8863 9.09487 42.8683 8.292M43.0611 10.6889L43.5609 10.653C43.4525 9.86679 43.386 9.07393 43.3682 8.28042C43.3675 8.25255 43.3669 8.22464 43.3663 8.1967C43.3582 7.82243 43.35 7.44367 43.2228 7.09289C43.2109 7.05923 43.1978 7.0258 43.1847 6.99237C43.1402 6.879 43.0957 6.7657 43.0989 6.6442L42.599 6.63557C42.599 6.63486 42.599 6.63415 42.5991 6.63344C42.5952 6.79476 42.6325 6.93267 42.6659 7.03184C42.6827 7.08167 42.701 7.12865 42.7153 7.16505L42.7185 7.17325C42.7324 7.20872 42.7425 7.23433 42.7514 7.25957L42.7514 7.25958L42.7527 7.26332C42.8509 7.53398 42.8578 7.83414 42.867 8.23564C42.8674 8.25421 42.8679 8.27299 42.8683 8.292M42.8683 8.292C42.8683 8.29187 42.8683 8.29174 42.8683 8.29161L43.368 8.28043L42.8683 8.29216C42.8683 8.29211 42.8683 8.29206 42.8683 8.292Z" stroke="black" stroke-opacity="0.4"/>
</g>
</g>
</g>
<defs>
<clipPath id="clip0_58_71">
<rect width="75.4001" height="75.4001" fill="white" transform="translate(9.42188 0.498535) rotate(6.52507)"/>
</clipPath>
</defs>
</svg>
