<svg width="233" height="50" viewBox="0 0 233 50" fill="none" xmlns="http://www.w3.org/2000/svg">
<g filter="url(#filter0_d_1_82)">
<path d="M4.65098 21.9L6.30098 12.45L8.00098 2.25H15.801L12.201 21.45L4.65098 21.9ZM14.951 21.45C15.1176 20.45 15.301 19.4333 15.501 18.4C15.6676 17.5667 15.8343 16.6667 16.001 15.7C16.201 14.7333 16.3843 13.8833 16.551 13.15C16.8176 11.5833 17.051 10.15 17.251 8.85C17.4843 7.51666 17.6843 6.33333 17.851 5.3C18.0176 4.26667 18.1676 3.28333 18.301 2.35H26.051L22.901 21.35H18.801L14.951 21.45ZM26.517 40.05C27.517 35.55 28.467 31.15 29.367 26.85C29.7337 25.05 30.117 23.15 30.517 21.15C30.917 19.15 31.3003 17.1833 31.667 15.25C32.0337 13.3167 32.3837 11.45 32.717 9.65C33.0503 7.85 33.3337 6.2 33.567 4.7C34.5337 4.4 35.4837 4.15 36.417 3.95C37.3503 3.71666 38.3003 3.51666 39.267 3.35C40.267 3.18333 41.2003 3.1 42.067 3.1C43.567 3.1 44.817 3.35 45.817 3.85C46.8503 4.35 47.6837 5.03333 48.317 5.9C48.9503 6.73333 49.4003 7.71667 49.667 8.85C49.9337 9.98333 50.067 11.2 50.067 12.5C50.067 14.3667 49.717 16.1667 49.017 17.9C48.3503 19.6333 47.4337 21.1833 46.267 22.55C45.1337 23.8833 43.817 24.95 42.317 25.75C40.8503 26.55 39.317 26.95 37.717 26.95H37.167C36.9003 28.0833 36.6503 29.3167 36.417 30.65C36.1837 31.9833 35.9837 33.2167 35.817 34.35C35.5837 35.6833 35.367 37.0167 35.167 38.35L26.517 40.05ZM40.467 9.15C40.1003 11.35 39.7337 13.4333 39.367 15.4C39.0003 17.3667 38.6003 19.4667 38.167 21.7C38.7003 21.5667 39.2503 21.2667 39.817 20.8C40.417 20.3 40.967 19.6667 41.467 18.9C41.967 18.1 42.367 17.1833 42.667 16.15C42.967 15.1167 43.117 14.0333 43.117 12.9C43.117 11.6667 42.8337 10.7333 42.267 10.1C41.7337 9.46666 41.1337 9.15 40.467 9.15ZM79.1123 12.95C79.1123 15.6833 78.8123 18.2667 78.2123 20.7C77.6456 23.1 76.879 25.3167 75.9123 27.35C74.9456 29.35 73.8123 31.15 72.5123 32.75C71.2456 34.3167 69.9123 35.6667 68.5123 36.8C67.1123 37.9 65.6956 38.75 64.2623 39.35C62.829 39.9167 61.4623 40.2 60.1623 40.2C59.0623 40.2 58.0623 40 57.1623 39.6C56.2623 39.1667 55.479 38.55 54.8123 37.75C54.1456 36.9167 53.6123 35.8667 53.2123 34.6C52.8456 33.3 52.6623 31.75 52.6623 29.95C52.6623 28.0833 52.8956 26.1167 53.3623 24.05C53.829 21.9833 54.4623 19.9333 55.2623 17.9C56.0623 15.8667 57.0456 13.9333 58.2123 12.1C59.379 10.2667 60.6623 8.65 62.0623 7.25C63.4623 5.81667 64.9623 4.68333 66.5623 3.85C68.1623 3.01666 69.829 2.6 71.5623 2.6C73.0623 2.6 74.2956 2.91667 75.2623 3.55C76.2623 4.15 77.029 4.95 77.5623 5.95C78.129 6.91667 78.529 8.01667 78.7623 9.25C78.9956 10.4833 79.1123 11.7167 79.1123 12.95ZM60.1123 28.65C60.1123 29.0167 60.179 29.4 60.3123 29.8C60.4456 30.2 60.629 30.55 60.8623 30.85C61.0956 31.15 61.379 31.4167 61.7123 31.65C62.079 31.85 62.4623 31.95 62.8623 31.95C64.3623 31.95 65.6956 31.4333 66.8623 30.4C68.029 29.3667 68.9956 28.1 69.7623 26.6C70.529 25.1 71.1123 23.5 71.5123 21.8C71.9456 20.1 72.1623 18.55 72.1623 17.15C72.1623 16.75 72.129 16.3167 72.0623 15.85C72.029 15.3833 71.929 14.95 71.7623 14.55C71.629 14.15 71.3956 13.8167 71.0623 13.55C70.7623 13.25 70.3456 13.1 69.8123 13.1C68.7456 13.1 67.7623 13.3667 66.8623 13.9C65.9623 14.4333 65.1456 15.15 64.4123 16.05C63.7123 16.9167 63.0956 17.9167 62.5623 19.05C62.029 20.15 61.5623 21.2833 61.1623 22.45C60.7956 23.5833 60.529 24.7 60.3623 25.8C60.1956 26.9 60.1123 27.85 60.1123 28.65ZM103.421 27.65C103.421 29.5167 103.054 31.2167 102.321 32.75C101.621 34.25 100.654 35.55 99.4205 36.65C98.2205 37.75 96.7872 38.6 95.1205 39.2C93.4872 39.8 91.7205 40.1 89.8205 40.1C88.4872 40.1 87.1538 39.75 85.8205 39.05C84.4872 38.3167 83.2038 37.1667 81.9705 35.6L85.6705 28.35C85.9038 28.7833 86.2538 29.2333 86.7205 29.7C87.1872 30.1333 87.7038 30.5167 88.2705 30.85C88.8705 31.1833 89.4538 31.4667 90.0205 31.7C90.6205 31.9 91.1538 32 91.6205 32C92.0205 32 92.4372 31.9333 92.8705 31.8C93.3038 31.6667 93.7038 31.4667 94.0705 31.2C94.4372 30.9333 94.7205 30.6333 94.9205 30.3C95.1538 29.9333 95.2705 29.5167 95.2705 29.05C95.2705 28.25 95.0038 27.5167 94.4705 26.85C93.9705 26.15 93.3372 25.5 92.5705 24.9C91.8038 24.2667 90.9705 23.6333 90.0705 23C89.1705 22.3667 88.3372 21.7 87.5705 21C86.8372 20.3 86.2038 19.5167 85.6705 18.65C85.1372 17.7833 84.8705 16.8167 84.8705 15.75C84.8705 14.0167 85.3872 12.4 86.4205 10.9C87.4538 9.4 88.7372 8.11666 90.2705 7.05C91.8372 5.95 93.5372 5.08333 95.3705 4.45C97.2038 3.81667 98.9372 3.5 100.571 3.5C101.471 3.5 102.321 3.61667 103.121 3.85C103.921 4.05 104.604 4.4 105.171 4.9C105.771 5.36667 106.237 5.96667 106.571 6.7C106.937 7.43333 107.121 8.35 107.121 9.45C107.121 9.91667 107.071 10.3833 106.971 10.85C106.904 11.3167 106.837 11.8167 106.771 12.35L99.5205 14.45C99.5872 14.1833 99.6372 13.9167 99.6705 13.65C99.7372 13.3833 99.7705 13.1167 99.7705 12.85C99.7705 11.85 99.5872 11.1333 99.2205 10.7C98.8872 10.2333 98.4372 10 97.8705 10C97.6038 10 97.2705 10.1 96.8705 10.3C96.5038 10.5 96.1205 10.7667 95.7205 11.1C95.3538 11.4 95.0372 11.7667 94.7705 12.2C94.5038 12.6333 94.3705 13.1 94.3705 13.6C94.3705 14.4 94.5872 15.0667 95.0205 15.6C95.4872 16.1333 96.0538 16.6333 96.7205 17.1C97.3872 17.5667 98.1038 18.05 98.8705 18.55C99.6705 19.0167 100.404 19.6333 101.071 20.4C101.737 21.1667 102.287 22.1333 102.721 23.3C103.187 24.4333 103.421 25.8833 103.421 27.65ZM112.755 40.05C113.522 36.3833 114.255 32.7667 114.955 29.2C115.255 27.7 115.555 26.1333 115.855 24.5C116.155 22.8667 116.438 21.2667 116.705 19.7C117.005 18.1 117.255 16.5667 117.455 15.1C117.688 13.6 117.888 12.2333 118.055 11C117.288 10.9 116.505 10.8667 115.705 10.9C114.938 10.9333 114.172 10.8333 113.405 10.6C113.438 10.0667 113.455 9.45 113.455 8.75C113.455 8.05 113.472 7.35 113.505 6.65C113.538 5.88333 113.572 5.06666 113.605 4.2C114.472 4.26666 115.338 4.31666 116.205 4.35C117.072 4.38333 117.938 4.4 118.805 4.4C120.505 4.4 122.138 4.36667 123.705 4.3C125.305 4.2 126.772 4.1 128.105 4C129.472 3.86666 130.805 3.71666 132.105 3.55L131.555 6.25C131.388 7.01667 131.222 7.8 131.055 8.6C130.922 9.4 130.788 10.0833 130.655 10.65C129.922 10.85 129.172 11 128.405 11.1C127.672 11.1667 126.938 11.2667 126.205 11.4C125.972 12.5333 125.722 13.8 125.455 15.2C125.188 16.5667 124.922 18 124.655 19.5C124.422 20.9667 124.188 22.4667 123.955 24C123.722 25.5333 123.488 27 123.255 28.4C122.722 31.7 122.222 35.1167 121.755 38.65L112.755 40.05ZM155.036 39C154.736 39 154.152 39.05 153.286 39.15C152.419 39.2167 151.519 39.3167 150.586 39.45C149.652 39.55 148.802 39.65 148.036 39.75C147.302 39.85 146.902 39.9167 146.836 39.95C147.236 38.5167 147.636 36.9333 148.036 35.2C148.436 33.4333 148.836 31.6 149.236 29.7C149.669 27.7667 150.069 25.8167 150.436 23.85C150.836 21.8833 151.219 19.9833 151.586 18.15C152.419 13.8833 153.236 9.5 154.036 5L161.836 3.75C160.969 8.21667 160.102 12.6 159.236 16.9C158.869 18.7333 158.486 20.6333 158.086 22.6C157.719 24.5667 157.352 26.5167 156.986 28.45C156.652 30.3833 156.302 32.2667 155.936 34.1C155.602 35.9 155.302 37.5333 155.036 39ZM166.901 40.05C167.668 36.3833 168.401 32.7667 169.101 29.2C169.401 27.7 169.701 26.1333 170.001 24.5C170.301 22.8667 170.585 21.2667 170.851 19.7C171.151 18.1 171.401 16.5667 171.601 15.1C171.835 13.6 172.035 12.2333 172.201 11C171.435 10.9 170.651 10.8667 169.851 10.9C169.085 10.9333 168.318 10.8333 167.551 10.6C167.585 10.0667 167.601 9.45 167.601 8.75C167.601 8.05 167.618 7.35 167.651 6.65C167.685 5.88333 167.718 5.06666 167.751 4.2C168.618 4.26666 169.485 4.31666 170.351 4.35C171.218 4.38333 172.085 4.4 172.951 4.4C174.651 4.4 176.285 4.36667 177.851 4.3C179.451 4.2 180.918 4.1 182.251 4C183.618 3.86666 184.951 3.71666 186.251 3.55L185.701 6.25C185.535 7.01667 185.368 7.8 185.201 8.6C185.068 9.4 184.935 10.0833 184.801 10.65C184.068 10.85 183.318 11 182.551 11.1C181.818 11.1667 181.085 11.2667 180.351 11.4C180.118 12.5333 179.868 13.8 179.601 15.2C179.335 16.5667 179.068 18 178.801 19.5C178.568 20.9667 178.335 22.4667 178.101 24C177.868 25.5333 177.635 27 177.401 28.4C176.868 31.7 176.368 35.1167 175.901 38.65L166.901 40.05ZM194.945 28.15C193.978 28.15 193.011 28.1833 192.045 28.25C191.078 28.3167 190.111 28.3833 189.145 28.45C190.178 24.35 191.178 20.2667 192.145 16.2C193.145 12.1333 194.178 8.05 195.245 3.95C195.878 3.85 196.595 3.75 197.395 3.65C198.228 3.55 199.061 3.43333 199.895 3.3C200.728 3.16667 201.528 3.05 202.295 2.95C203.095 2.85 203.761 2.75 204.295 2.65C202.495 6.85 200.845 11.0833 199.345 15.35C197.878 19.5833 196.411 23.85 194.945 28.15ZM195.445 36C195.445 36.6333 195.295 37.2667 194.995 37.9C194.728 38.5333 194.328 39.1 193.795 39.6C193.261 40.0667 192.595 40.4333 191.795 40.7C190.995 41 190.078 41.15 189.045 41.15C188.345 41.15 187.711 41.0167 187.145 40.75C186.578 40.4833 186.111 40.1333 185.745 39.7C185.411 39.2333 185.145 38.7167 184.945 38.15C184.745 37.5833 184.645 37.0167 184.645 36.45C184.645 35.8167 184.745 35.2167 184.945 34.65C185.145 34.05 185.445 33.5333 185.845 33.1C186.278 32.6333 186.795 32.25 187.395 31.95C188.028 31.65 188.778 31.5 189.645 31.5C191.578 31.5 193.028 31.9667 193.995 32.9C194.961 33.8 195.445 34.8333 195.445 36ZM217.529 20.3L219.279 11.85L221.379 1.3L228.929 0.849997L225.329 20.3H217.529ZM207.479 20.35L208.779 11.75L210.479 1.3H218.529L214.979 19.6L207.479 20.35Z" fill="white"/>
</g>
<defs>
<filter id="filter0_d_1_82" x="0.650879" y="0.850098" width="232.279" height="48.2998" filterUnits="userSpaceOnUse" color-interpolation-filters="sRGB">
<feFlood flood-opacity="0" result="BackgroundImageFix"/>
<feColorMatrix in="SourceAlpha" type="matrix" values="0 0 0 0 0 0 0 0 0 0 0 0 0 0 0 0 0 0 127 0" result="hardAlpha"/>
<feOffset dy="4"/>
<feGaussianBlur stdDeviation="2"/>
<feComposite in2="hardAlpha" operator="out"/>
<feColorMatrix type="matrix" values="0 0 0 0 0 0 0 0 0 0 0 0 0 0 0 0 0 0 0.25 0"/>
<feBlend mode="normal" in2="BackgroundImageFix" result="effect1_dropShadow_1_82"/>
<feBlend mode="normal" in="SourceGraphic" in2="effect1_dropShadow_1_82" result="shape"/>
</filter>
</defs>
</svg>
