<svg width="24" height="24" viewBox="0 0 24 24" fill="none" xmlns="http://www.w3.org/2000/svg">
<path d="M19.485 20.154L13.223 13.892C12.723 14.318 12.148 14.6477 11.498 14.881C10.848 15.1144 10.1947 15.231 9.53798 15.231C7.93665 15.231 6.58132 14.6767 5.47198 13.568C4.36265 12.4594 3.80798 11.1044 3.80798 9.50305C3.80798 7.90171 4.36198 6.54605 5.46998 5.43605C6.57798 4.32605 7.93265 3.77038 9.53398 3.76905C11.1353 3.76771 12.4913 4.32238 13.602 5.43305C14.7127 6.54371 15.268 7.89938 15.268 9.50005C15.268 10.1947 15.145 10.867 14.899 11.517C14.653 12.167 14.3297 12.723 13.929 13.185L20.191 19.446L19.485 20.154ZM9.53898 14.23C10.8656 14.23 11.9856 13.7734 12.899 12.86C13.8123 11.9467 14.269 10.8264 14.269 9.49904C14.269 8.17171 13.8123 7.05171 12.899 6.13905C11.9856 5.22638 10.8656 4.76971 9.53898 4.76905C8.21232 4.76838 7.09198 5.22505 6.17798 6.13905C5.26398 7.05305 4.80732 8.17304 4.80798 9.49904C4.80865 10.825 5.26532 11.945 6.17798 12.859C7.09065 13.773 8.21065 14.2297 9.53798 14.229" fill="#231815"/>
</svg>
